<?xml version="1.0" encoding="UTF-8"?>
<!-- Generated by jsxcad -->
<!DOCTYPE svg PUBLIC "-//W3C//DTD SVG 1.1 Tiny//EN" "http://www.w3.org/Graphics/SVG/1.1/DTD/svg11-tiny.dtd">
<svg baseProfile="tiny" height="92.6913705583757mm" width="176.7000000000001mm" viewBox="-88.35000000000005 -46.225888324873125 176.7000000000001 92.6913705583757" version="1.1" stroke="black" stroke-width=".1" fill="none" xmlns="http://www.w3.org/2000/svg">
<path fill="#000000" stroke="#000000" d="M73 40.924873096446696 L73 45.16446700507614 L73 -41.16446700507614 L73 -45.40406091370558 z"/>
<path fill="#000000" stroke="#000000" d="M88.35 41.98629441624365 L88.35 46.2258883248731 L-88.35 46.2258883248731 L-88.35 41.98629441624365 z"/>
<path fill="#000000" stroke="#000000" d="M-73 40.924873096446696 L-73 45.16446700507614 L73 45.16446700507614 L73 40.924873096446696 z"/>
<path fill="#000000" stroke="#000000" d="M73 -45.404060913705585 L73 -41.16446700507615 L-73 -41.16446700507615 L-73 -45.404060913705585 z"/>
<path fill="#000000" stroke="#000000" d="M-73 -45.40406091370558 L-73 -41.16446700507614 L-73 45.16446700507614 L-73 40.924873096446696 z"/>
<path fill="#000000" stroke="#000000" d="M88.35 -46.465482233502534 L88.35 -42.22588832487309 L88.35 46.2258883248731 L88.35 41.98629441624365 z"/>
<path fill="#000000" stroke="#000000" d="M-88.35 41.98629441624365 L-88.35 46.2258883248731 L-88.35 -42.22588832487309 L-88.35 -46.465482233502534 z"/>
<path fill="#000000" stroke="#000000" d="M-88.35 -46.465482233502534 L-88.35 -42.2258883248731 L88.35 -42.2258883248731 L88.35 -46.465482233502534 z"/>
<path fill="#000000" stroke="#000000" d="M88.35 41.98629441624365 L-88.35 41.98629441624365 L-88.35 -46.46548223350253 L88.35 -46.46548223350253 M-73 -45.40406091370558 L-73 40.924873096446696 L73 40.924873096446696 L73 -45.40406091370558 z"/>
<path fill="#000000" stroke="#000000" d="M-88.35 46.22588832487309 L88.35 46.22588832487309 L88.35 -42.22588832487309 L-88.35 -42.22588832487309 M-73 45.16446700507613 L-73 -41.16446700507613 L73 -41.16446700507613 L73 45.16446700507613 z"/>
</svg>