<?xml version="1.0" encoding="UTF-8"?>
<!-- Generated by jsxcad -->
<!DOCTYPE svg PUBLIC "-//W3C//DTD SVG 1.1 Tiny//EN" "http://www.w3.org/Graphics/SVG/1.1/DTD/svg11-tiny.dtd">
<svg baseProfile="tiny" height="114.82793400638829mm" width="46.00000000000002mm" viewBox="-15.000000000000007 -58.80744569641681 46.00000000000002 114.82793400638829" version="1.1" stroke="black" stroke-width=".1" fill="none" xmlns="http://www.w3.org/2000/svg">
<path fill="#3c3c3c" stroke="#3c3c3c" d="M12.287163746048773 -22.28519560809832 L12.287163746048773 48.37470286905903 L12.5 50.000000000000014 L12.5 -20.659898477157338 z"/>
<path fill="#3c3c3c" stroke="#3c3c3c" d="M11.655902867554449 -23.855145194574156 L11.655902867554445 46.80475328258319 L12.287163746048773 48.37470286905903 L12.287163746048774 -22.285195608098324 z"/>
<path fill="#3c3c3c" stroke="#3c3c3c" d="M10.627714196620179 -25.316284486364406 L10.627714196620175 45.343613990792946 L11.655902867554454 46.80475328258319 L11.65590286755446 -23.85514519457416 z"/>
<path fill="#3c3c3c" stroke="#3c3c3c" d="M9.237611465258244 -26.618856137330564 L9.237611465258242 44.04104233982679 L10.627714196620186 45.34361399079294 L10.62771419662019 -25.316284486364406 z"/>
<path fill="#3c3c3c" stroke="#3c3c3c" d="M7.5329329547407236 -27.718502632161485 L7.532932954740711 42.94139584499587 L9.237611465258265 44.041042339826774 L9.23761146525826 -26.618856137330564 z"/>
<path fill="#3c3c3c" stroke="#3c3c3c" d="M5.5717294472067245 -28.577776828356328 L5.5717294472067245 42.082121648801 L7.532932954740702 42.94139584499582 L7.532932954740702 -27.718502632161513 z"/>
<path fill="#3c3c3c" stroke="#3c3c3c" d="M3.420787375901032 -29.167417173749424 L3.420787375901032 41.49248130340791 L5.5717294472067245 42.08212164880101 L5.5717294472067245 -28.57777682835632 z"/>
<path fill="#3c3c3c" stroke="#3c3c3c" d="M1.1533544932912716 -29.467344173574105 L1.1533544932912716 41.19255430358328 L3.4207873759010323 41.49248130340795 L3.4207873759010323 -29.167417173749435 z"/>
<path fill="#3c3c3c" stroke="#3c3c3c" d="M-1.1533544932912778 -29.467344173574094 L-1.1533544932912778 41.19255430358326 L1.1533544932912718 41.19255430358326 L1.1533544932912718 -29.467344173574094 z"/>
<path fill="#3c3c3c" stroke="#3c3c3c" d="M-3.420787375901037 -29.16741717374943 L-3.420787375901037 41.49248130340793 L-1.1533544932912776 41.19255430358326 L-1.1533544932912776 -29.467344173574105 z"/>
<path fill="#3c3c3c" stroke="#3c3c3c" d="M-5.571729447206731 -28.577776828356324 L-5.571729447206731 42.08212164880101 L-3.420787375901037 41.4924813034079 L-3.420787375901037 -29.167417173749424 z"/>
<path fill="#3c3c3c" stroke="#3c3c3c" d="M-7.532932954740706 -27.718502632161503 L-7.532932954740706 42.94139584499582 L-5.571729447206731 42.082121648801 L-5.571729447206731 -28.57777682835632 z"/>
<path fill="#3c3c3c" stroke="#3c3c3c" d="M-9.237611465258249 -26.618856137330564 L-9.237611465258249 44.041042339826795 L-7.532932954740727 42.94139584499586 L-7.532932954740711 -27.718502632161485 z"/>
<path fill="#3c3c3c" stroke="#3c3c3c" d="M-10.62771419662019 -25.3162844863644 L-10.627714196620184 45.34361399079295 L-9.237611465258254 44.04104233982678 L-9.237611465258258 -26.618856137330567 z"/>
<path fill="#3c3c3c" stroke="#3c3c3c" d="M-11.65590286755445 -23.855145194574156 L-11.655902867554454 46.80475328258319 L-10.627714196620191 45.343613990792946 L-10.62771419662019 -25.316284486364403 z"/>
<path fill="#3c3c3c" stroke="#3c3c3c" d="M-12.287163746048776 -22.285195608098313 L-12.287163746048778 48.374702869059035 L-11.65590286755445 46.80475328258319 L-11.655902867554449 -23.855145194574156 z"/>
<path fill="#3c3c3c" stroke="#3c3c3c" d="M-12.5 -20.65989847715733 L-12.5 50.00000000000002 L-12.287163746048774 48.374702869059035 L-12.287163746048774 -22.285195608098316 z"/>
<path fill="#3c3c3c" stroke="#3c3c3c" d="M-12.287163746048769 -19.03460134621635 L-12.287163746048769 51.625297130941 L-12.499999999999998 50.000000000000014 L-12.499999999999998 -20.65989847715733 z"/>
<path fill="#3c3c3c" stroke="#3c3c3c" d="M-11.655902867554442 -17.464651759740512 L-11.655902867554444 53.195246717416836 L-12.287163746048769 51.625297130941 L-12.287163746048767 -19.03460134621635 z"/>
<path fill="#3c3c3c" stroke="#3c3c3c" d="M-10.627714196620158 -16.003512467950266 L-10.627714196620168 54.65638600920709 L-11.655902867554435 53.195246717416836 L-11.655902867554438 -17.46465175974051 z"/>
<path fill="#3c3c3c" stroke="#3c3c3c" d="M-9.23761146525823 -14.700940816984104 L-9.23761146525822 55.95895766017324 L-10.627714196620166 54.65638600920709 L-10.62771419662016 -16.00351246795027 z"/>
<path fill="#3c3c3c" stroke="#3c3c3c" d="M-7.532932954740696 -13.601294322153189 L-7.532932954740695 57.058604155004176 L-9.237611465258215 55.95895766017325 L-9.237611465258219 -14.70094081698409 z"/>
<path fill="#3c3c3c" stroke="#3c3c3c" d="M-5.571729447206723 -12.742020125958373 L-5.571729447206723 57.91787835119895 L-7.5329329547407005 57.05860415500414 L-7.5329329547407005 -13.601294322153187 z"/>
<path fill="#3c3c3c" stroke="#3c3c3c" d="M-3.420787375901027 -12.152379780565278 L-3.420787375901027 58.507518696592086 L-5.571729447206724 57.91787835119898 L-5.571729447206724 -12.742020125958382 z"/>
<path fill="#3c3c3c" stroke="#3c3c3c" d="M-1.1533544932912674 -11.852452780740604 L-1.1533544932912674 58.80744569641672 L-3.4207873759010274 58.50751869659205 L-3.4207873759010274 -12.152379780565274 z"/>
<path fill="#3c3c3c" stroke="#3c3c3c" d="M1.1533544932912758 -11.85245278074062 L1.1533544932912758 58.80744569641676 L-1.1533544932912676 58.80744569641676 L-1.1533544932912676 -11.85245278074062 z"/>
<path fill="#3c3c3c" stroke="#3c3c3c" d="M3.4207873759010403 -12.152379780565285 L3.4207873759010403 58.50751869659208 L1.1533544932912756 58.80744569641676 L1.1533544932912756 -11.852452780740611 z"/>
<path fill="#3c3c3c" stroke="#3c3c3c" d="M5.571729447206732 -12.742020125958376 L5.571729447206732 57.91787835119896 L3.4207873759010403 58.507518696592065 L3.4207873759010403 -12.152379780565276 z"/>
<path fill="#3c3c3c" stroke="#3c3c3c" d="M7.532932954740707 -13.601294322153192 L7.532932954740707 57.05860415500413 L5.571729447206732 57.91787835119895 L5.571729447206732 -12.742020125958376 z"/>
<path fill="#3c3c3c" stroke="#3c3c3c" d="M11.65590286755444 -17.464651759740526 L11.655902867554442 53.19524671741683 L10.627714196620175 54.65638600920708 L10.627714196620172 -16.003512467950273 z"/>
<path fill="#3c3c3c" stroke="#3c3c3c" d="M9.237611465258224 -14.700940816984119 L9.237611465258226 55.95895766017325 L7.532932954740697 57.05860415500416 L7.532932954740689 -13.6012943221532 z"/>
<path fill="#3c3c3c" stroke="#3c3c3c" d="M10.627714196620165 -16.003512467950276 L10.627714196620165 54.656386009207075 L9.237611465258233 55.95895766017324 L9.237611465258231 -14.70094081698411 z"/>
<path fill="#3c3c3c" stroke="#3c3c3c" d="M12.287163746048773 -19.034601346216355 L12.287163746048769 51.62529713094099 L11.655902867554447 53.19524671741683 L11.65590286755445 -17.46465175974052 z"/>
<path fill="#3c3c3c" stroke="#3c3c3c" d="M12.499999999999996 -20.659898477157334 L12.499999999999998 50.000000000000014 L12.287163746048773 51.62529713094099 L12.28716374604877 -19.034601346216355 z"/>
<path fill="#3c3c3c" stroke="#3c3c3c" d="M12.287163746048773 -22.28519560809832 L12.5 -20.659898477157338 L12.287163746048774 -19.034601346216355 L11.655902867554452 -17.464651759740523 L10.62771419662018 -16.003512467950273 L9.23761146525824 -14.70094081698411 L7.532932954740708 -13.60129432215319 L5.5717294472067325 -12.742020125958373 L3.4207873759010408 -12.152379780565271 L1.1533544932912758 -11.852452780740599 L-1.1533544932912676 -11.852452780740599 L-3.420787375901028 -12.15237978056527 L-5.5717294472067245 -12.742020125958373 L-7.532932954740701 -13.601294322153185 L-9.237611465258235 -14.700940816984106 L-10.627714196620174 -16.003512467950262 L-11.655902867554445 -17.46465175974051 L-12.28716374604877 -19.034601346216352 L-12.5 -20.659898477157334 L-12.287163746048774 -22.285195608098313 L-11.655902867554449 -23.855145194574156 L-10.62771419662018 -25.316284486364403 L-9.237611465258242 -26.61885613733056 L-7.532932954740708 -27.71850263216148 L-5.571729447206732 -28.577776828356303 L-3.420787375901038 -29.1674171737494 L-1.1533544932912778 -29.467344173574077 L1.1533544932912718 -29.467344173574077 L3.4207873759010328 -29.167417173749406 L5.571729447206725 -28.577776828356303 L7.532932954740704 -27.71850263216148 L9.237611465258237 -26.61885613733056 L10.627714196620175 -25.316284486364406 L11.655902867554447 -23.855145194574156 z"/>
<path fill="#3c3c3c" stroke="#3c3c3c" d="M12.287163746048773 48.374702869059035 L11.655902867554447 46.80475328258319 L10.627714196620175 45.34361399079294 L9.237611465258237 44.04104233982679 L7.532932954740704 42.94139584499587 L5.571729447206725 42.08212164880105 L3.4207873759010328 41.49248130340795 L1.1533544932912718 41.19255430358328 L-1.1533544932912778 41.19255430358328 L-3.420787375901038 41.49248130340795 L-5.571729447206732 42.08212164880105 L-7.532932954740708 42.94139584499587 L-9.237611465258242 44.04104233982679 L-10.62771419662018 45.34361399079295 L-11.655902867554449 46.80475328258319 L-12.287163746048774 48.374702869059035 L-12.5 50.000000000000014 L-12.28716374604877 51.625297130941 L-11.655902867554445 53.195246717416836 L-10.627714196620174 54.65638600920708 L-9.237611465258235 55.95895766017324 L-7.532932954740701 57.05860415500417 L-5.5717294472067245 57.91787835119898 L-3.420787375901028 58.507518696592086 L-1.1533544932912676 58.80744569641675 L1.1533544932912758 58.80744569641675 L3.4207873759010408 58.50751869659207 L5.5717294472067325 57.91787835119898 L7.532932954740708 57.058604155004154 L9.23761146525824 55.95895766017324 L10.62771419662018 54.656386009207075 L11.655902867554452 53.19524671741682 L12.287163746048774 51.62529713094099 L12.5 50.00000000000001 z"/>
<path fill="#3c3c3c" stroke="#3c3c3c" d="M-0.025000000000000015 -55.95920712150059 L0.024999999999999967 -55.95920712150059 L-1.1533544932912674 -11.852452780740599 z"/>
<path fill="#3c3c3c" stroke="#3c3c3c" d="M-0.05000000000000383 -55.98984771573601 L-11.65590286755445 -23.855145194574156 L-10.627714196620184 -25.3162844863644 z"/>
<path fill="#3c3c3c" stroke="#3c3c3c" d="M-0.02499999999998985 -55.95920712150059 L-9.23761146525822 -14.700940816984104 L-10.62771419662016 -16.003512467950266 z"/>
<path fill="#3c3c3c" stroke="#3c3c3c" d="M-0.025000000000000015 -55.95920712150059 L-1.1533544932912674 -11.852452780740599 L-3.420787375901027 -12.152379780565267 z"/>
<path fill="#3c3c3c" stroke="#3c3c3c" d="M0.02499999999999246 -56.02048830997145 L5.571729447206723 -28.57777682835631 L7.532932954740703 -27.7185026321615 z"/>
<path fill="#3c3c3c" stroke="#3c3c3c" d="M10.627714196620165 -16.00351246795027 L0.024999999999986474 -55.9592071215006 L0.049999999999987374 -55.98984771573601 z"/>
<path fill="#3c3c3c" stroke="#3c3c3c" d="M10.627714196620177 -25.316284486364403 L11.655902867554452 -23.85514519457416 L0.05000000000000501 -55.98984771573601 z"/>
<path fill="#3c3c3c" stroke="#3c3c3c" d="M0.05000000000000115 -55.98984771573601 L11.655902867554447 -23.85514519457416 L12.287163746048773 -22.28519560809832 z"/>
<path fill="#3c3c3c" stroke="#3c3c3c" d="M-0.05000000000000889 -55.989847715736005 L-10.62771419662019 -25.3162844863644 L-0.025000000000007818 -56.02048830997143 z"/>
<path fill="#3c3c3c" stroke="#3c3c3c" d="M-0.02500000000000444 -56.020488309971434 L-10.627714196620195 -25.316284486364403 L-9.23761146525825 -26.618856137330557 z"/>
<path fill="#3c3c3c" stroke="#3c3c3c" d="M-0.05000000000000042 -55.98984771573601 L-12.499999999999998 -20.659898477157334 L-12.287163746048773 -22.285195608098316 z"/>
<path fill="#3c3c3c" stroke="#3c3c3c" d="M-0.04999999999999112 -55.989847715736005 L-11.655902867554444 -17.464651759740512 L-12.28716374604876 -19.034601346216352 z"/>
<path fill="#3c3c3c" stroke="#3c3c3c" d="M-0.02499999999999999 -56.020488309971434 L-3.4207873759010377 -29.167417173749424 L-1.1533544932912776 -29.4673441735741 z"/>
<path fill="#3c3c3c" stroke="#3c3c3c" d="M-7.5329329547407005 -13.601294322153185 L-9.237611465258233 -14.700940816984106 L-0.024999999999999512 -55.95920712150058 z"/>
<path fill="#3c3c3c" stroke="#3c3c3c" d="M-0.025000000000000015 -55.95920712150059 L-3.4207873759010274 -12.152379780565267 L-5.571729447206724 -12.742020125958371 z"/>
<path fill="#3c3c3c" stroke="#3c3c3c" d="M3.4207873759010403 -12.152379780565271 L0.024999999999999967 -55.95920712150058 L5.571729447206732 -12.742020125958373 z"/>
<path fill="#3c3c3c" stroke="#3c3c3c" d="M9.237611465258228 -14.70094081698411 L0.024999999999985256 -55.95920712150058 L10.627714196620168 -16.00351246795027 z"/>
<path fill="#3c3c3c" stroke="#3c3c3c" d="M-0.02500000000000002 -55.95920712150059 L-0.05 -55.98984771573601 L-0.024999999999999994 -56.02048830997143 L0.025 -56.02048830997143 L0.05 -55.98984771573601 L0.02499999999999997 -55.95920712150059 z"/>
<path fill="#3c3c3c" stroke="#3c3c3c" d="M10.62771419662018 -25.316284486364413 L0.050000000000008586 -55.989847715736005 L0.025000000000004116 -56.02048830997143 z"/>
<path fill="#3c3c3c" stroke="#3c3c3c" d="M0.025000000000001407 -56.020488309971434 L9.237611465258242 -26.61885613733057 L10.627714196620184 -25.316284486364403 z"/>
<path fill="#3c3c3c" stroke="#3c3c3c" d="M3.4207873759010323 -29.167417173749417 L5.5717294472067245 -28.57777682835632 L0.024999999999999998 -56.02048830997145 z"/>
<path fill="#3c3c3c" stroke="#3c3c3c" d="M-0.025000000000004206 -56.02048830997144 L-7.532932954740705 -27.718502632161496 L-5.571729447206727 -28.57777682835631 z"/>
<path fill="#3c3c3c" stroke="#3c3c3c" d="M-5.571729447206731 -28.57777682835631 L-3.4207873759010377 -29.167417173749406 L-0.02499999999999999 -56.02048830997145 z"/>
<path fill="#3c3c3c" stroke="#3c3c3c" d="M-12.287163746048764 -19.03460134621635 L-12.499999999999998 -20.659898477157334 L-0.04999999999999943 -55.98984771573601 z"/>
<path fill="#3c3c3c" stroke="#3c3c3c" d="M-5.571729447206724 -12.742020125958371 L-7.5329329547407005 -13.601294322153187 L-0.024999999999999 -55.95920712150059 z"/>
<path fill="#3c3c3c" stroke="#3c3c3c" d="M7.532932954740707 -13.601294322153189 L0.02500000000000068 -55.95920712150059 L9.237611465258238 -14.70094081698411 z"/>
<path fill="#3c3c3c" stroke="#3c3c3c" d="M1.1533544932912756 -11.852452780740599 L0.024999999999999967 -55.9592071215006 L3.4207873759010403 -12.152379780565273 z"/>
<path fill="#3c3c3c" stroke="#3c3c3c" d="M-0.024999999999999994 -56.02048830997145 L-1.1533544932912778 -29.467344173574094 L1.1533544932912718 -29.467344173574094 z"/>
<path fill="#3c3c3c" stroke="#3c3c3c" d="M12.499999999999996 -20.659898477157334 L0.04999999999999967 -55.98984771573601 L12.287163746048769 -22.285195608098324 z"/>
<path fill="#3c3c3c" stroke="#3c3c3c" d="M-9.23761146525824 -26.61885613733057 L-7.532932954740712 -27.7185026321615 L-0.025000000000001504 -56.02048830997144 z"/>
<path fill="#3c3c3c" stroke="#3c3c3c" d="M1.1533544932912716 -29.46734417357409 L3.420787375901032 -29.167417173749413 L0.024999999999999998 -56.02048830997145 z"/>
<path fill="#3c3c3c" stroke="#3c3c3c" d="M-12.287163746048774 -22.285195608098316 L-11.655902867554449 -23.855145194574153 L-0.050000000000004687 -55.989847715736005 z"/>
<path fill="#3c3c3c" stroke="#3c3c3c" d="M-1.1533544932912676 -11.852452780740597 L0.02499999999999997 -55.9592071215006 L1.1533544932912758 -11.852452780740597 z"/>
<path fill="#3c3c3c" stroke="#3c3c3c" d="M10.627714196620163 -16.00351246795027 L0.0499999999999979 -55.98984771573601 L11.655902867554426 -17.46465175974052 z"/>
<path fill="#3c3c3c" stroke="#3c3c3c" d="M7.532932954740705 -27.71850263216149 L9.237611465258242 -26.618856137330575 L0.024999999999995956 -56.02048830997144 z"/>
<path fill="#3c3c3c" stroke="#3c3c3c" d="M-10.627714196620166 -16.003512467950266 L-11.655902867554431 -17.46465175974051 L-0.0499999999999936 -55.98984771573601 z"/>
<path fill="#3c3c3c" stroke="#3c3c3c" d="M12.28716374604877 -19.034601346216355 L0.04999999999999497 -55.98984771573601 L12.499999999999995 -20.659898477157338 z"/>
<path fill="#3c3c3c" stroke="#3c3c3c" d="M11.655902867554435 -17.46465175974052 L0.0499999999999924 -55.98984771573601 L12.287163746048765 -19.034601346216355 z"/>
<path fill="#3c3c3c" stroke="#3c3c3c" d="M-0.02499999999999999 -56.02048830997145 L1.1533544932912716 -29.467344173574094 L0.024999999999999998 -56.02048830997145 z"/>
<path fill="#3c3c3c" stroke="#3c3c3c" d="M5.571729447206732 -12.742020125958373 L0.02500000000000023 -55.95920712150059 L7.532932954740707 -13.601294322153189 z"/>
<path fill="#3c3c3c" stroke="#3c3c3c" d="M-0.024999999999987352 -55.9592071215006 L-10.62771419662017 -16.003512467950266 L-0.04999999999998649 -55.989847715736005 z"/>
<path fill="#3c3c3c" stroke="#3c3c3c" d="M12.287163746048774 -19.034601346216355 L12.5 -20.659898477157338 L12.287163746048773 -22.285195608098324 L11.655902867554447 -23.85514519457416 L10.627714196620175 -25.316284486364406 L9.237611465258237 -26.618856137330564 L7.532932954740704 -27.718502632161485 L5.571729447206725 -28.5777768283563 L3.4207873759010328 -29.167417173749403 L1.1533544932912718 -29.467344173574073 L-1.1533544932912778 -29.467344173574073 L-3.420787375901038 -29.167417173749403 L-5.571729447206732 -28.5777768283563 L-7.532932954740708 -27.71850263216148 L-9.237611465258242 -26.61885613733056 L-10.62771419662018 -25.3162844863644 L-11.655902867554449 -23.855145194574156 L-12.287163746048774 -22.285195608098313 L-12.5 -20.659898477157334 L-12.28716374604877 -19.03460134621635 L-11.655902867554445 -17.46465175974051 L-10.627714196620174 -16.003512467950262 L-9.237611465258235 -14.700940816984106 L-7.532932954740701 -13.601294322153187 L-5.5717294472067245 -12.742020125958371 L-3.420787375901028 -12.152379780565267 L-1.1533544932912676 -11.852452780740599 L1.1533544932912758 -11.852452780740599 L3.4207873759010408 -12.152379780565271 L5.5717294472067325 -12.742020125958373 L7.532932954740708 -13.60129432215319 L9.23761146525824 -14.70094081698411 L10.62771419662018 -16.003512467950273 L11.655902867554452 -17.46465175974052 z"/>
<path fill="#000000" stroke="#000000" d="M30.999999999999996 46.46700507614213 L30.999999999999996 50.000000000000014 L-15 50.000000000000014 L-15 46.46700507614213 z"/>
<path fill="#000000" stroke="#000000" d="M30.999999999999993 46.467005076142144 L30.999999999999996 50.000000000000014 z"/>
<path fill="#000000" stroke="#000000" d="M-15 46.46700507614215 L-15 50.00000000000002 L-15 39.38578680203047 L-15 35.85279187817261 z"/>
<path fill="#000000" stroke="#000000" d="M30.766044443118982 46.012159427460396 L30.76604444311898 49.545154351318274 L31 50.000000000000014 L31.000000000000004 46.467005076142144 z"/>
<path fill="#000000" stroke="#000000" d="M-15 35.8527918781726 L-15 39.38578680203046 L15 39.38578680203046 L15 35.8527918781726 z"/>
<path fill="#000000" stroke="#000000" d="M15.000000000000018 35.8527918781726 L15.000000000000014 39.38578680203048 L30.766044443119004 49.54515435131827 L30.766044443119004 46.01215942746039 z"/>
<path fill="#000000" stroke="#000000" d="M30.999999999999996 46.467005076142144 L-15 46.467005076142144 L-15 35.8527918781726 L15 35.8527918781726 L30.76604444311898 46.012159427460396 L31 46.467005076142144 z"/>
<path fill="#000000" stroke="#000000" d="M30.999999999999996 50.000000000000014 L31 50.000000000000014 L30.76604444311898 49.545154351318274 L15 39.385786802030466 L-15 39.385786802030466 L-15 50.000000000000014 z"/>
</svg>