<?xml version="1.0" encoding="UTF-8"?>
<!-- Generated by jsxcad -->
<!DOCTYPE svg PUBLIC "-//W3C//DTD SVG 1.1 Tiny//EN" "http://www.w3.org/Graphics/SVG/1.1/DTD/svg11-tiny.dtd">
<svg baseProfile="tiny" height="19.322227541883343mm" width="35.000000000000014mm" viewBox="-5.0000000000000036 -9.461452180417139 35.000000000000014 19.322227541883343" version="1.1" stroke="black" stroke-width=".1" fill="none" xmlns="http://www.w3.org/2000/svg">
<path fill="#000000" stroke="#000000" d="M-5 -0.19458544839255215 L-5 6.8714043993231835 L-5 -0.20473773265651155 L-5 -7.270727580372247 z"/>
<path fill="#000000" stroke="#000000" d="M5 -0.19458544839255362 L5 6.871404399323183 L-5 6.871404399323183 L-5 -0.19458544839255362 z"/>
<path fill="#000000" stroke="#000000" d="M5 -7.270727580372247 L5 -0.20473773265651155 L5 6.8714043993231835 L5 -0.19458544839255215 z"/>
<path fill="#000000" stroke="#000000" d="M-5 -7.270727580372249 L-5 -0.2047377326565128 L5 -0.2047377326565128 L5 -7.270727580372249 z"/>
<path fill="#000000" stroke="#000000" d="M-5 -0.19458544839255215 L-5 -7.270727580372246 L5 -7.270727580372246 L5 -0.19458544839255215 z"/>
<path fill="#000000" stroke="#000000" d="M-5 6.871404399323183 L5 6.871404399323183 L5 -0.20473773265651155 L-5 -0.20473773265651155 z"/>
<path fill="#000000" stroke="#000000" d="M29.999999999999996 -3.7326565143823993 L29.999999999999996 3.3333333333333353 L24.999999999999993 9.461452180417131 L24.999999999999993 2.395462332701397 z"/>
<path fill="#000000" stroke="#000000" d="M25 -9.86077536146619 L25 -2.7947855137504565 L30 3.3333333333333353 L30 -3.732656514382399 z"/>
<path fill="#000000" stroke="#000000" d="M15 -9.860775361466194 L15 -2.7947855137504622 L24.999999999999993 -2.794785513750461 L24.999999999999993 -9.860775361466194 z"/>
<path fill="#000000" stroke="#000000" d="M9.999999999999998 -3.7326565143824006 L9.999999999999998 3.3333333333333335 L15 -2.7947855137504583 L15 -9.860775361466192 z"/>
<path fill="#000000" stroke="#000000" d="M24.99999999999999 2.395462332701397 L24.99999999999999 9.461452180417131 L14.999999999999993 9.461452180417128 L14.999999999999993 2.3954623327013933 z"/>
<path fill="#000000" stroke="#000000" d="M14.999999999999996 2.3954623327013933 L14.999999999999995 9.461452180417128 L10 3.3333333333333335 L10 -3.7326565143824006 z"/>
<path fill="#000000" stroke="#000000" d="M30 -3.7326565143823998 L24.999999999999993 2.395462332701397 L14.999999999999996 2.3954623327013933 L10 -3.7326565143824015 L15.000000000000002 -9.860775361466192 L25 -9.86077536146619 z"/>
<path fill="#000000" stroke="#000000" d="M30 3.3333333333333353 L25 -2.794785513750457 L15.000000000000002 -2.7947855137504583 L10 3.333333333333334 L14.999999999999996 9.461452180417128 L24.999999999999993 9.461452180417131 z"/>
</svg>