<?xml version="1.0" encoding="UTF-8"?>
<!-- Generated by jsxcad -->
<!DOCTYPE svg PUBLIC "-//W3C//DTD SVG 1.1 Tiny//EN" "http://www.w3.org/Graphics/SVG/1.1/DTD/svg11-tiny.dtd">
<svg baseProfile="tiny" height="30.000000000000014mm" width="22.000000000000025mm" viewBox="-11.000000000000014 -5.000000000000012 22.000000000000025 30.000000000000014" version="1.1" stroke="black" stroke-width=".1" fill="none" xmlns="http://www.w3.org/2000/svg">
<path fill="#000000" stroke="#000000" d="M-5.373333832178484 -24.960573506572384 L-5.373333832178484 -24.960573506572384 L-5.686047402353439 -24.990133642141355 L-5.686047402353439 -24.990133642141355 z"/>
<path fill="#000000" stroke="#000000" d="M-5.686047402353439 -24.990133642141355 L-5.686047402353439 -24.990133642141355 L-6.000000000000006 -24.999999999999996 L-6.000000000000006 -24.999999999999996 z"/>
<path fill="#000000" stroke="#000000" d="M-4.756550564175731 -24.842915805643152 L-4.756550564175731 -24.842915805643152 L-5.063093427071382 -24.91143625364344 L-5.063093427071382 -24.91143625364344 z"/>
<path fill="#000000" stroke="#000000" d="M-5.063093427071382 -24.91143625364344 L-5.063093427071382 -24.91143625364344 L-5.373333832178484 -24.960573506572384 L-5.373333832178484 -24.960573506572384 z"/>
<path fill="#000000" stroke="#000000" d="M-4.454915028125268 -24.755282581475765 L-4.454915028125268 -24.755282581475765 L-4.756550564175732 -24.842915805643152 L-4.756550564175732 -24.842915805643152 z"/>
<path fill="#000000" stroke="#000000" d="M-3.871103542174641 -24.52413526233009 L-3.871103542174641 -24.52413526233009 L-4.159377236576615 -24.64888242944125 L-4.159377236576615 -24.64888242944125 z"/>
<path fill="#000000" stroke="#000000" d="M-4.159377236576614 -24.64888242944125 L-4.159377236576614 -24.64888242944125 L-4.454915028125268 -24.755282581475765 L-4.454915028125268 -24.755282581475765 z"/>
<path fill="#000000" stroke="#000000" d="M-3.591231629491428 -24.38153340021931 L-3.591231629491428 -24.38153340021931 L-3.871103542174641 -24.52413526233009 L-3.871103542174641 -24.52413526233009 z"/>
<path fill="#000000" stroke="#000000" d="M-3.3208660251050213 -24.22163962751007 L-3.3208660251050213 -24.22163962751007 L-3.591231629491428 -24.38153340021931 L-3.591231629491428 -24.38153340021931 z"/>
<path fill="#000000" stroke="#000000" d="M-3.0610737385376385 -24.045084971874733 L-3.0610737385376385 -24.045084971874733 L-3.3208660251050213 -24.22163962751007 L-3.3208660251050213 -24.22163962751007 z"/>
<path fill="#000000" stroke="#000000" d="M-2.3551568628929465 -23.422735529643436 L-2.3551568628929465 -23.422735529643436 L-2.5772644703565595 -23.64484313710705 L-2.5772644703565595 -23.64484313710705 z"/>
<path fill="#000000" stroke="#000000" d="M-2.8128800512565557 -23.85256621387894 L-2.8128800512565557 -23.85256621387894 L-3.0610737385376385 -24.045084971874733 L-3.0610737385376385 -24.045084971874733 z"/>
<path fill="#000000" stroke="#000000" d="M-2.577264470356561 -23.644843137107053 L-2.577264470356561 -23.644843137107053 L-2.8128800512565553 -23.85256621387894 L-2.8128800512565553 -23.85256621387894 z"/>
<path fill="#000000" stroke="#000000" d="M-1.6184665997806869 -22.408768370508568 L-1.6184665997806869 -22.408768370508568 L-1.7783603724899282 -22.679133974894974 L-1.7783603724899282 -22.679133974894974 z"/>
<path fill="#000000" stroke="#000000" d="M-1.778360372489929 -22.679133974894977 L-1.778360372489929 -22.679133974894977 L-1.9549150281252667 -22.938926261462356 L-1.9549150281252667 -22.938926261462356 z"/>
<path fill="#000000" stroke="#000000" d="M-1.9549150281252667 -22.93892626146236 L-1.9549150281252667 -22.93892626146236 L-2.147433786121057 -23.18711994874344 L-2.147433786121057 -23.18711994874344 z"/>
<path fill="#000000" stroke="#000000" d="M-1.351117570558748 -21.840622763423383 L-1.351117570558748 -21.840622763423383 L-1.4758647376699074 -22.128896457825356 L-1.4758647376699074 -22.128896457825356 z"/>
<path fill="#000000" stroke="#000000" d="M-1.4758647376699077 -22.128896457825356 L-1.4758647376699077 -22.128896457825356 L-1.618466599780687 -22.408768370508568 L-1.618466599780687 -22.408768370508568 z"/>
<path fill="#000000" stroke="#000000" d="M-1.1570841943568506 -21.243449435824267 L-1.1570841943568506 -21.243449435824267 L-1.2447174185242373 -21.54508497187473 L-1.2447174185242373 -21.54508497187473 z"/>
<path fill="#000000" stroke="#000000" d="M-1.2447174185242371 -21.54508497187473 L-1.2447174185242371 -21.54508497187473 L-1.3511175705587488 -21.840622763423383 L-1.3511175705587488 -21.840622763423383 z"/>
<path fill="#000000" stroke="#000000" d="M-1.0394264934276174 -20.626666167821515 L-1.0394264934276174 -20.626666167821515 L-1.0885637463565625 -20.936906572928613 L-1.0885637463565625 -20.936906572928613 z"/>
<path fill="#000000" stroke="#000000" d="M-1.0885637463565625 -20.936906572928613 L-1.0885637463565625 -20.936906572928613 L-1.1570841943568506 -21.243449435824267 L-1.1570841943568506 -21.243449435824267 z"/>
<path fill="#000000" stroke="#000000" d="M-2.147433786121059 -23.187119948743444 L-2.147433786121059 -23.187119948743444 L-2.355156862892946 -23.422735529643436 L-2.355156862892946 -23.422735529643436 z"/>
<path fill="#000000" stroke="#000000" d="M-1.0098663578586489 -20.31395259764656 L-1.0098663578586489 -20.31395259764656 L-1.0394264934276172 -20.62666616782151 L-1.0394264934276172 -20.62666616782151 z"/>
<path fill="#000000" stroke="#000000" d="M-1.0000000000000069 -19.999999999999993 L-1.0000000000000069 -19.999999999999993 L-1.0098663578586489 -20.31395259764656 L-1.0098663578586489 -20.31395259764656 z"/>
<path fill="#000000" stroke="#000000" d="M-1.0394264934276187 -19.37333383217847 L-1.0394264934276187 -19.37333383217847 L-1.009866357858649 -19.686047402353427 L-1.009866357858649 -19.686047402353427 z"/>
<path fill="#000000" stroke="#000000" d="M-1.009866357858649 -19.686047402353424 L-1.009866357858649 -19.686047402353424 L-1.000000000000007 -19.999999999999993 L-1.000000000000007 -19.999999999999993 z"/>
<path fill="#000000" stroke="#000000" d="M-1.157084194356853 -18.75655056417572 L-1.157084194356853 -18.75655056417572 L-1.0885637463565638 -19.06309342707137 L-1.0885637463565638 -19.06309342707137 z"/>
<path fill="#000000" stroke="#000000" d="M-1.0885637463565638 -19.06309342707137 L-1.0885637463565638 -19.06309342707137 L-1.0394264934276187 -19.37333383217847 L-1.0394264934276187 -19.37333383217847 z"/>
<path fill="#000000" stroke="#000000" d="M-1.7783603724899333 -17.320866025105012 L-1.7783603724899333 -17.320866025105012 L-1.6184665997806913 -17.591231629491418 L-1.6184665997806913 -17.591231629491418 z"/>
<path fill="#000000" stroke="#000000" d="M-1.2447174185242398 -18.454915028125257 L-1.2447174185242398 -18.454915028125257 L-1.157084194356853 -18.75655056417572 L-1.157084194356853 -18.75655056417572 z"/>
<path fill="#000000" stroke="#000000" d="M-1.351117570558751 -18.159377236576603 L-1.351117570558751 -18.159377236576603 L-1.2447174185242404 -18.454915028125253 L-1.2447174185242404 -18.454915028125253 z"/>
<path fill="#000000" stroke="#000000" d="M-1.4758647376699112 -17.87110354217463 L-1.4758647376699112 -17.87110354217463 L-1.3511175705587508 -18.159377236576603 L-1.3511175705587508 -18.159377236576603 z"/>
<path fill="#000000" stroke="#000000" d="M-1.6184665997806909 -17.591231629491418 L-1.6184665997806909 -17.591231629491418 L-1.4758647376699112 -17.87110354217463 L-1.4758647376699112 -17.87110354217463 z"/>
<path fill="#000000" stroke="#000000" d="M-1.9549150281252707 -17.06107373853763 L-1.9549150281252707 -17.06107373853763 L-1.7783603724899337 -17.320866025105012 L-1.7783603724899337 -17.320866025105012 z"/>
<path fill="#000000" stroke="#000000" d="M-2.147433786121062 -16.812880051256545 L-2.147433786121062 -16.812880051256545 L-1.9549150281252714 -17.06107373853763 L-1.9549150281252714 -17.06107373853763 z"/>
<path fill="#000000" stroke="#000000" d="M-2.577264470356565 -16.355156862892937 L-2.577264470356565 -16.355156862892937 L-2.35515686289295 -16.577264470356553 L-2.35515686289295 -16.577264470356553 z"/>
<path fill="#000000" stroke="#000000" d="M-2.3551568628929513 -16.57726447035655 L-2.3551568628929513 -16.57726447035655 L-2.1474337861210633 -16.812880051256545 L-2.1474337861210633 -16.812880051256545 z"/>
<path fill="#000000" stroke="#000000" d="M-2.8128800512565597 -16.14743378612105 L-2.8128800512565597 -16.14743378612105 L-2.5772644703565644 -16.355156862892937 L-2.5772644703565644 -16.355156862892937 z"/>
<path fill="#000000" stroke="#000000" d="M-4.15937723657662 -15.35111757055874 L-4.15937723657662 -15.35111757055874 L-3.8711035421746463 -15.475864737669898 L-3.8711035421746463 -15.475864737669898 z"/>
<path fill="#000000" stroke="#000000" d="M-3.8711035421746463 -15.475864737669898 L-3.8711035421746463 -15.475864737669898 L-3.591231629491433 -15.618466599780678 L-3.591231629491433 -15.618466599780678 z"/>
<path fill="#000000" stroke="#000000" d="M-3.3208660251050257 -15.77836037248992 L-3.3208660251050257 -15.77836037248992 L-3.061073738537642 -15.95491502812526 L-3.061073738537642 -15.95491502812526 z"/>
<path fill="#000000" stroke="#000000" d="M-3.5912316294914324 -15.618466599780678 L-3.5912316294914324 -15.618466599780678 L-3.3208660251050257 -15.77836037248992 L-3.3208660251050257 -15.77836037248992 z"/>
<path fill="#000000" stroke="#000000" d="M-3.0610737385376425 -15.95491502812526 L-3.0610737385376425 -15.95491502812526 L-2.8128800512565597 -16.14743378612105 L-2.8128800512565597 -16.14743378612105 z"/>
<path fill="#000000" stroke="#000000" d="M-4.756550564175736 -15.157084194356841 L-4.756550564175736 -15.157084194356841 L-4.454915028125272 -15.244717418524228 L-4.454915028125272 -15.244717418524228 z"/>
<path fill="#000000" stroke="#000000" d="M-4.4549150281252725 -15.244717418524228 L-4.4549150281252725 -15.244717418524228 L-4.15937723657662 -15.35111757055874 L-4.15937723657662 -15.35111757055874 z"/>
<path fill="#000000" stroke="#000000" d="M-5.373333832178489 -15.039426493427609 L-5.373333832178489 -15.039426493427609 L-5.063093427071387 -15.088563746356554 L-5.063093427071387 -15.088563746356554 z"/>
<path fill="#000000" stroke="#000000" d="M-5.063093427071387 -15.088563746356554 L-5.063093427071387 -15.088563746356554 L-4.756550564175736 -15.157084194356841 L-4.756550564175736 -15.157084194356841 z"/>
<path fill="#000000" stroke="#000000" d="M-5.686047402353444 -15.00986635785864 L-5.686047402353444 -15.00986635785864 L-5.373333832178489 -15.039426493427609 L-5.373333832178489 -15.039426493427609 z"/>
<path fill="#000000" stroke="#000000" d="M-6.313952597646578 -15.00986635785864 L-6.313952597646578 -15.00986635785864 L-6.0000000000000115 -14.999999999999996 L-6.0000000000000115 -14.999999999999996 z"/>
<path fill="#000000" stroke="#000000" d="M-6.0000000000000115 -14.999999999999998 L-6.0000000000000115 -14.999999999999998 L-5.686047402353444 -15.00986635785864 L-5.686047402353444 -15.00986635785864 z"/>
<path fill="#000000" stroke="#000000" d="M-6.626666167821532 -15.039426493427609 L-6.626666167821532 -15.039426493427609 L-6.313952597646579 -15.00986635785864 L-6.313952597646579 -15.00986635785864 z"/>
<path fill="#000000" stroke="#000000" d="M-6.936906572928635 -15.088563746356554 L-6.936906572928635 -15.088563746356554 L-6.626666167821532 -15.039426493427609 L-6.626666167821532 -15.039426493427609 z"/>
<path fill="#000000" stroke="#000000" d="M-7.243449435824285 -15.157084194356843 L-7.243449435824285 -15.157084194356843 L-6.936906572928635 -15.088563746356554 L-6.936906572928635 -15.088563746356554 z"/>
<path fill="#000000" stroke="#000000" d="M-7.840622763423402 -15.351117570558742 L-7.840622763423402 -15.351117570558742 L-7.545084971874749 -15.24471741852423 L-7.545084971874749 -15.24471741852423 z"/>
<path fill="#000000" stroke="#000000" d="M-7.54508497187475 -15.24471741852423 L-7.54508497187475 -15.24471741852423 L-7.243449435824286 -15.157084194356843 L-7.243449435824286 -15.157084194356843 z"/>
<path fill="#000000" stroke="#000000" d="M-8.128896457825375 -15.475864737669902 L-8.128896457825375 -15.475864737669902 L-7.8406227634234025 -15.351117570558742 L-7.8406227634234025 -15.351117570558742 z"/>
<path fill="#000000" stroke="#000000" d="M-8.938926261462377 -15.954915028125265 L-8.938926261462377 -15.954915028125265 L-8.679133974894995 -15.778360372489926 L-8.679133974894995 -15.778360372489926 z"/>
<path fill="#000000" stroke="#000000" d="M-8.408768370508588 -15.618466599780682 L-8.408768370508588 -15.618466599780682 L-8.128896457825375 -15.475864737669902 L-8.128896457825375 -15.475864737669902 z"/>
<path fill="#000000" stroke="#000000" d="M-8.679133974894995 -15.778360372489926 L-8.679133974894995 -15.778360372489926 L-8.40876837050859 -15.618466599780682 L-8.40876837050859 -15.618466599780682 z"/>
<path fill="#000000" stroke="#000000" d="M-9.422735529643454 -16.355156862892944 L-9.422735529643454 -16.355156862892944 L-9.187119948743462 -16.147433786121056 L-9.187119948743462 -16.147433786121056 z"/>
<path fill="#000000" stroke="#000000" d="M-9.187119948743462 -16.147433786121056 L-9.187119948743462 -16.147433786121056 L-8.938926261462377 -15.954915028125265 L-8.938926261462377 -15.954915028125265 z"/>
<path fill="#000000" stroke="#000000" d="M-9.852566213878957 -16.812880051256553 L-9.852566213878957 -16.812880051256553 L-9.644843137107067 -16.577264470356557 L-9.644843137107067 -16.577264470356557 z"/>
<path fill="#000000" stroke="#000000" d="M-10.221639627510084 -17.32086602510502 L-10.221639627510084 -17.32086602510502 L-10.045084971874749 -17.061073738537637 L-10.045084971874749 -17.061073738537637 z"/>
<path fill="#000000" stroke="#000000" d="M-10.045084971874747 -17.061073738537637 L-10.045084971874747 -17.061073738537637 L-9.852566213878957 -16.812880051256553 L-9.852566213878957 -16.812880051256553 z"/>
<path fill="#000000" stroke="#000000" d="M-10.648882429441267 -18.159377236576617 L-10.648882429441267 -18.159377236576617 L-10.524135262330107 -17.87110354217464 L-10.524135262330107 -17.87110354217464 z"/>
<path fill="#000000" stroke="#000000" d="M-10.381533400219327 -17.591231629491425 L-10.381533400219327 -17.591231629491425 L-10.221639627510086 -17.32086602510502 L-10.221639627510086 -17.32086602510502 z"/>
<path fill="#000000" stroke="#000000" d="M-10.524135262330107 -17.87110354217464 L-10.524135262330107 -17.87110354217464 L-10.381533400219329 -17.59123162949143 L-10.381533400219329 -17.59123162949143 z"/>
<path fill="#000000" stroke="#000000" d="M-10.755282581475777 -18.454915028125267 L-10.755282581475777 -18.454915028125267 L-10.648882429441267 -18.159377236576614 L-10.648882429441267 -18.159377236576614 z"/>
<path fill="#000000" stroke="#000000" d="M-10.911436253643451 -19.063093427071383 L-10.911436253643451 -19.063093427071383 L-10.842915805643164 -18.756550564175733 L-10.842915805643164 -18.756550564175733 z"/>
<path fill="#000000" stroke="#000000" d="M-10.842915805643164 -18.756550564175733 L-10.842915805643164 -18.756550564175733 L-10.755282581475777 -18.454915028125267 L-10.755282581475777 -18.454915028125267 z"/>
<path fill="#000000" stroke="#000000" d="M-9.644843137107067 -16.577264470356557 L-9.644843137107067 -16.577264470356557 L-9.422735529643454 -16.355156862892944 L-9.422735529643454 -16.355156862892944 z"/>
<path fill="#000000" stroke="#000000" d="M-10.990133642141364 -19.68604740235344 L-10.990133642141364 -19.68604740235344 L-10.960573506572397 -19.37333383217849 L-10.960573506572397 -19.37333383217849 z"/>
<path fill="#000000" stroke="#000000" d="M-10.960573506572397 -19.373333832178485 L-10.960573506572397 -19.373333832178485 L-10.911436253643451 -19.063093427071383 L-10.911436253643451 -19.063093427071383 z"/>
<path fill="#000000" stroke="#000000" d="M-10.960573506572395 -20.62666616782153 L-10.960573506572395 -20.62666616782153 L-10.990133642141364 -20.313952597646573 L-10.990133642141364 -20.313952597646573 z"/>
<path fill="#000000" stroke="#000000" d="M-10.755282581475772 -21.545084971874743 L-10.755282581475772 -21.545084971874743 L-10.84291580564316 -21.243449435824278 L-10.84291580564316 -21.243449435824278 z"/>
<path fill="#000000" stroke="#000000" d="M-10.84291580564316 -21.243449435824278 L-10.84291580564316 -21.243449435824278 L-10.911436253643448 -20.936906572928628 L-10.911436253643448 -20.936906572928628 z"/>
<path fill="#000000" stroke="#000000" d="M-10.64888242944126 -21.840622763423394 L-10.64888242944126 -21.840622763423394 L-10.755282581475772 -21.545084971874743 L-10.755282581475772 -21.545084971874743 z"/>
<path fill="#000000" stroke="#000000" d="M-10.911436253643448 -20.936906572928628 L-10.911436253643448 -20.936906572928628 L-10.960573506572395 -20.626666167821526 L-10.960573506572395 -20.626666167821526 z"/>
<path fill="#000000" stroke="#000000" d="M-10.38153340021932 -22.40876837050858 L-10.38153340021932 -22.40876837050858 L-10.5241352623301 -22.12889645782537 L-10.5241352623301 -22.12889645782537 z"/>
<path fill="#000000" stroke="#000000" d="M-10.5241352623301 -22.12889645782537 L-10.5241352623301 -22.12889645782537 L-10.64888242944126 -21.840622763423397 L-10.64888242944126 -21.840622763423397 z"/>
<path fill="#000000" stroke="#000000" d="M-10.045084971874738 -22.93892626146237 L-10.045084971874738 -22.93892626146237 L-10.221639627510076 -22.679133974894988 L-10.221639627510076 -22.679133974894988 z"/>
<path fill="#000000" stroke="#000000" d="M-10.221639627510076 -22.679133974894988 L-10.221639627510076 -22.679133974894988 L-10.381533400219318 -22.408768370508582 L-10.381533400219318 -22.408768370508582 z"/>
<path fill="#000000" stroke="#000000" d="M-11.000000000000005 -20.000000000000007 L-11.000000000000005 -20.000000000000007 L-10.990133642141364 -19.686047402353438 L-10.990133642141364 -19.686047402353438 z"/>
<path fill="#000000" stroke="#000000" d="M-10.990133642141364 -20.313952597646573 L-10.990133642141364 -20.313952597646573 L-11.000000000000007 -20.000000000000004 L-11.000000000000007 -20.000000000000004 z"/>
<path fill="#000000" stroke="#000000" d="M-9.644843137107056 -23.422735529643447 L-9.644843137107056 -23.422735529643447 L-9.852566213878946 -23.187119948743455 L-9.852566213878946 -23.187119948743455 z"/>
<path fill="#000000" stroke="#000000" d="M-9.852566213878946 -23.187119948743455 L-9.852566213878946 -23.187119948743455 L-10.045084971874736 -22.93892626146237 L-10.045084971874736 -22.93892626146237 z"/>
<path fill="#000000" stroke="#000000" d="M-9.187119948743442 -23.85256621387895 L-9.187119948743442 -23.85256621387895 L-9.422735529643438 -23.644843137107063 L-9.422735529643438 -23.644843137107063 z"/>
<path fill="#000000" stroke="#000000" d="M-9.422735529643438 -23.644843137107067 L-9.422735529643438 -23.644843137107067 L-9.644843137107054 -23.42273552964345 L-9.644843137107054 -23.42273552964345 z"/>
<path fill="#000000" stroke="#000000" d="M-8.40876837050857 -24.381533400219322 L-8.40876837050857 -24.381533400219322 L-8.679133974894976 -24.22163962751008 L-8.679133974894976 -24.22163962751008 z"/>
<path fill="#000000" stroke="#000000" d="M-8.938926261462361 -24.04508497187474 L-8.938926261462361 -24.04508497187474 L-9.187119948743444 -23.85256621387895 L-9.187119948743444 -23.85256621387895 z"/>
<path fill="#000000" stroke="#000000" d="M-8.679133974894976 -24.22163962751008 L-8.679133974894976 -24.22163962751008 L-8.938926261462361 -24.04508497187474 L-8.938926261462361 -24.04508497187474 z"/>
<path fill="#000000" stroke="#000000" d="M-8.128896457825354 -24.524135262330102 L-8.128896457825354 -24.524135262330102 L-8.40876837050857 -24.381533400219322 L-8.40876837050857 -24.381533400219322 z"/>
<path fill="#000000" stroke="#000000" d="M-7.840622763423383 -24.648882429441258 L-7.840622763423383 -24.648882429441258 L-8.128896457825356 -24.524135262330102 L-8.128896457825356 -24.524135262330102 z"/>
<path fill="#000000" stroke="#000000" d="M-7.243449435824266 -24.842915805643155 L-7.243449435824266 -24.842915805643155 L-7.545084971874727 -24.75528258147577 L-7.545084971874727 -24.75528258147577 z"/>
<path fill="#000000" stroke="#000000" d="M-7.5450849718747275 -24.75528258147577 L-7.5450849718747275 -24.75528258147577 L-7.840622763423382 -24.648882429441258 L-7.840622763423382 -24.648882429441258 z"/>
<path fill="#000000" stroke="#000000" d="M-6.6266661678215115 -24.960573506572388 L-6.6266661678215115 -24.960573506572388 L-6.936906572928612 -24.911436253643444 L-6.936906572928612 -24.911436253643444 z"/>
<path fill="#000000" stroke="#000000" d="M-6.936906572928613 -24.911436253643444 L-6.936906572928613 -24.911436253643444 L-7.243449435824265 -24.842915805643155 L-7.243449435824265 -24.842915805643155 z"/>
<path fill="#000000" stroke="#000000" d="M-6.313952597646559 -24.990133642141355 L-6.313952597646559 -24.990133642141355 L-6.6266661678215115 -24.960573506572388 L-6.6266661678215115 -24.960573506572388 z"/>
<path fill="#000000" stroke="#000000" d="M-6.000000000000006 -24.999999999999996 L-6.000000000000006 -24.999999999999996 L-6.3139525976465585 -24.990133642141355 L-6.3139525976465585 -24.990133642141355 z"/>
<path fill="#000000" stroke="#000000" d="M-5.373333832178484 -24.960573506572384 L-5.686047402353439 -24.990133642141355 L-6.000000000000006 -24.999999999999996 L-6.313952597646559 -24.990133642141355 L-6.626666167821512 -24.960573506572388 L-6.936906572928613 -24.91143625364344 L-7.2434494358242665 -24.842915805643155 L-7.545084971874728 -24.755282581475768 L-7.840622763423383 -24.648882429441258 L-8.128896457825356 -24.524135262330102 L-8.408768370508572 -24.38153340021932 L-8.679133974894977 -24.221639627510076 L-8.938926261462361 -24.04508497187474 L-9.187119948743444 -23.85256621387895 L-9.42273552964344 -23.64484313710706 L-9.644843137107054 -23.422735529643447 L-9.852566213878944 -23.187119948743455 L-10.045084971874736 -22.93892626146237 L-10.221639627510076 -22.679133974894988 L-10.381533400219318 -22.408768370508582 L-10.5241352623301 -22.12889645782537 L-10.64888242944126 -21.840622763423394 L-10.755282581475772 -21.545084971874743 L-10.84291580564316 -21.243449435824278 L-10.911436253643448 -20.936906572928628 L-10.960573506572395 -20.626666167821526 L-10.990133642141364 -20.313952597646573 L-11.000000000000007 -20.000000000000004 L-10.990133642141364 -19.68604740235344 L-10.960573506572397 -19.373333832178485 L-10.911436253643451 -19.063093427071383 L-10.842915805643164 -18.756550564175733 L-10.755282581475777 -18.454915028125267 L-10.648882429441267 -18.159377236576617 L-10.524135262330109 -17.87110354217464 L-10.381533400219329 -17.59123162949143 L-10.221639627510086 -17.32086602510502 L-10.045084971874749 -17.061073738537637 L-9.852566213878958 -16.812880051256553 L-9.644843137107069 -16.577264470356557 L-9.422735529643456 -16.355156862892944 L-9.187119948743462 -16.147433786121052 L-8.93892626146238 -15.954915028125265 L-8.679133974894997 -15.778360372489924 L-8.40876837050859 -15.618466599780682 L-8.128896457825377 -15.475864737669902 L-7.8406227634234025 -15.351117570558742 L-7.54508497187475 -15.24471741852423 L-7.243449435824286 -15.157084194356843 L-6.936906572928636 -15.088563746356554 L-6.626666167821533 -15.039426493427609 L-6.313952597646579 -15.00986635785864 L-6.0000000000000115 -14.999999999999995 L-5.686047402353444 -15.009866357858638 L-5.37333383217849 -15.039426493427605 L-5.063093427071387 -15.08856374635655 L-4.756550564175736 -15.15708419435684 L-4.4549150281252725 -15.244717418524228 L-4.159377236576621 -15.351117570558737 L-3.8711035421746467 -15.475864737669896 L-3.5912316294914333 -15.618466599780676 L-3.320866025105026 -15.778360372489919 L-3.061073738537643 -15.954915028125257 L-2.81288005125656 -16.14743378612105 L-2.5772644703565653 -16.355156862892933 L-2.3551568628929505 -16.57726447035655 L-2.147433786121062 -16.812880051256545 L-1.9549150281252707 -17.061073738537626 L-1.7783603724899333 -17.320866025105012 L-1.6184665997806906 -17.591231629491418 L-1.4758647376699106 -17.87110354217463 L-1.3511175705587508 -18.159377236576603 L-1.2447174185242398 -18.454915028125253 L-1.1570841943568526 -18.75655056417572 L-1.0885637463565638 -19.06309342707137 L-1.0394264934276185 -19.37333383217847 L-1.009866357858649 -19.686047402353424 L-1.000000000000007 -19.99999999999999 L-1.009866357858649 -20.31395259764656 L-1.0394264934276176 -20.62666616782151 L-1.088563746356563 -20.936906572928613 L-1.1570841943568508 -21.243449435824267 L-1.244717418524238 -21.54508497187473 L-1.351117570558749 -21.840622763423383 L-1.475864737669908 -22.128896457825356 L-1.618466599780688 -22.408768370508568 L-1.7783603724899297 -22.679133974894977 L-1.954915028125268 -22.93892626146236 L-2.1474337861210593 -23.18711994874344 L-2.3551568628929473 -23.422735529643436 L-2.5772644703565613 -23.64484313710705 L-2.812880051256556 -23.85256621387894 L-3.0610737385376394 -24.04508497187473 L-3.3208660251050217 -24.22163962751007 L-3.5912316294914284 -24.38153340021931 L-3.871103542174642 -24.52413526233009 L-4.159377236576615 -24.64888242944125 L-4.454915028125268 -24.755282581475765 L-4.756550564175732 -24.84291580564315 L-5.063093427071382 -24.911436253643437 z"/>
<path fill="#000000" stroke="#000000" d="M-6.000000000000006 -24.999999999999996 L-5.686047402353439 -24.990133642141355 L-5.373333832178484 -24.960573506572384 L-5.063093427071382 -24.911436253643437 L-4.756550564175732 -24.84291580564315 L-4.454915028125268 -24.755282581475765 L-4.159377236576615 -24.64888242944125 L-3.871103542174642 -24.52413526233009 L-3.5912316294914284 -24.38153340021931 L-3.3208660251050217 -24.22163962751007 L-3.0610737385376394 -24.04508497187473 L-2.812880051256556 -23.85256621387894 L-2.5772644703565613 -23.64484313710705 L-2.3551568628929473 -23.422735529643436 L-2.1474337861210593 -23.18711994874344 L-1.954915028125268 -22.93892626146236 L-1.7783603724899297 -22.679133974894977 L-1.618466599780688 -22.408768370508568 L-1.475864737669908 -22.128896457825356 L-1.351117570558749 -21.840622763423383 L-1.244717418524238 -21.54508497187473 L-1.1570841943568508 -21.243449435824267 L-1.088563746356563 -20.936906572928613 L-1.0394264934276176 -20.62666616782151 L-1.009866357858649 -20.31395259764656 L-1.000000000000007 -19.99999999999999 L-1.009866357858649 -19.686047402353424 L-1.0394264934276185 -19.37333383217847 L-1.0885637463565638 -19.06309342707137 L-1.1570841943568526 -18.75655056417572 L-1.2447174185242398 -18.454915028125253 L-1.3511175705587508 -18.159377236576603 L-1.4758647376699106 -17.87110354217463 L-1.6184665997806906 -17.591231629491418 L-1.7783603724899333 -17.320866025105012 L-1.9549150281252707 -17.061073738537626 L-2.147433786121062 -16.812880051256545 L-2.3551568628929505 -16.57726447035655 L-2.5772644703565653 -16.355156862892933 L-2.81288005125656 -16.14743378612105 L-3.061073738537643 -15.954915028125257 L-3.320866025105026 -15.778360372489919 L-3.5912316294914333 -15.618466599780676 L-3.8711035421746467 -15.475864737669896 L-4.159377236576621 -15.351117570558737 L-4.4549150281252725 -15.244717418524228 L-4.756550564175736 -15.15708419435684 L-5.063093427071387 -15.08856374635655 L-5.37333383217849 -15.039426493427605 L-5.686047402353444 -15.009866357858638 L-6.0000000000000115 -14.999999999999995 L-6.313952597646579 -15.00986635785864 L-6.626666167821533 -15.039426493427609 L-6.936906572928636 -15.088563746356554 L-7.243449435824286 -15.157084194356843 L-7.54508497187475 -15.24471741852423 L-7.8406227634234025 -15.351117570558742 L-8.128896457825377 -15.475864737669902 L-8.40876837050859 -15.618466599780682 L-8.679133974894997 -15.778360372489924 L-8.93892626146238 -15.954915028125265 L-9.187119948743462 -16.147433786121052 L-9.422735529643456 -16.355156862892944 L-9.644843137107069 -16.577264470356557 L-9.852566213878958 -16.812880051256553 L-10.045084971874749 -17.061073738537637 L-10.221639627510086 -17.32086602510502 L-10.381533400219329 -17.59123162949143 L-10.524135262330109 -17.87110354217464 L-10.648882429441267 -18.159377236576617 L-10.755282581475777 -18.454915028125267 L-10.842915805643164 -18.756550564175733 L-10.911436253643451 -19.063093427071383 L-10.960573506572397 -19.373333832178485 L-10.990133642141364 -19.68604740235344 L-11.000000000000007 -20.000000000000004 L-10.990133642141364 -20.313952597646573 L-10.960573506572395 -20.626666167821526 L-10.911436253643448 -20.936906572928628 L-10.84291580564316 -21.243449435824278 L-10.755282581475772 -21.545084971874743 L-10.64888242944126 -21.840622763423394 L-10.5241352623301 -22.12889645782537 L-10.381533400219318 -22.408768370508582 L-10.221639627510076 -22.679133974894988 L-10.045084971874736 -22.93892626146237 L-9.852566213878944 -23.187119948743455 L-9.644843137107054 -23.422735529643447 L-9.42273552964344 -23.64484313710706 L-9.187119948743444 -23.85256621387895 L-8.938926261462361 -24.04508497187474 L-8.679133974894977 -24.221639627510076 L-8.408768370508572 -24.38153340021932 L-8.128896457825356 -24.524135262330102 L-7.840622763423383 -24.648882429441258 L-7.545084971874728 -24.755282581475768 L-7.2434494358242665 -24.842915805643155 L-6.936906572928613 -24.91143625364344 L-6.626666167821512 -24.960573506572388 L-6.313952597646559 -24.990133642141355 z"/>
<path fill="#000000" stroke="#000000" d="M1.0000000000000036 -4.999999999999991 L1.0000000000000036 -4.999999999999991 L1.0000000000000036 5.000000000000009 L1.0000000000000036 5.000000000000009 z"/>
<path fill="#000000" stroke="#000000" d="M1.0000000000000036 5.000000000000009 L1.0000000000000036 5.000000000000009 L11.000000000000004 5.000000000000009 L11.000000000000004 5.000000000000009 z"/>
<path fill="#000000" stroke="#000000" d="M11.000000000000004 -4.999999999999991 L11.000000000000004 -4.999999999999991 L1.0000000000000036 -4.999999999999991 L1.0000000000000036 -4.999999999999991 z"/>
<path fill="#000000" stroke="#000000" d="M11.000000000000004 5.000000000000009 L11.000000000000004 5.000000000000009 L11.000000000000004 -4.999999999999991 L11.000000000000004 -4.999999999999991 z"/>
<path fill="#000000" stroke="#000000" d="M1.0000000000000036 -4.99999999999999 L1.0000000000000036 5.000000000000008 L11.000000000000004 5.000000000000008 L11.000000000000004 -4.99999999999999 z"/>
<path fill="#000000" stroke="#000000" d="M11.000000000000004 5.000000000000008 L1.0000000000000036 5.000000000000008 L1.0000000000000036 -4.99999999999999 L11.000000000000004 -4.99999999999999 z"/>
</svg>