<?xml version="1.0" encoding="UTF-8"?>
<!-- Generated by jsxcad -->
<!DOCTYPE svg PUBLIC "-//W3C//DTD SVG 1.1 Tiny//EN" "http://www.w3.org/Graphics/SVG/1.1/DTD/svg11-tiny.dtd">
<svg baseProfile="tiny" height="30.00000000000001mm" width="10.000000000000007mm" viewBox="-5.0000000000000036 -5.0000000000000036 10.000000000000007 30.00000000000001" version="1.1" stroke="black" stroke-width=".1" fill="none" xmlns="http://www.w3.org/2000/svg">
<path fill="#000000" stroke="#000000" d="M-5 5 L-5 5 L5 5 L5 5 z"/>
<path fill="#000000" stroke="#000000" d="M-5 -5 L-5 -5 L-5 5 L-5 5 z"/>
<path fill="#000000" stroke="#000000" d="M5 -5 L5 -5 L-5 -5 L-5 -5 z"/>
<path fill="#000000" stroke="#000000" d="M5 5 L5 5 L5 -5 L5 -5 z"/>
<path fill="#000000" stroke="#000000" d="M-5 4.999999999999999 L5 4.999999999999999 L5 -4.999999999999999 L-5 -4.999999999999999 z"/>
<path fill="#000000" stroke="#000000" d="M-5 4.999999999999999 L-5 -4.999999999999999 L5 -4.999999999999999 L5 4.999999999999999 z"/>
<path fill="#000000" stroke="#000000" d="M0.3139525976465676 -24.990133642141355 L0.3139525976465676 -24.990133642141355 L3.0616169978683826e-16 -25 L3.0616169978683826e-16 -25 z"/>
<path fill="#000000" stroke="#000000" d="M0.6266661678215201 -24.960573506572388 L0.6266661678215201 -24.960573506572388 L0.3139525976465676 -24.990133642141355 L0.3139525976465676 -24.990133642141355 z"/>
<path fill="#000000" stroke="#000000" d="M0.9369065729286224 -24.91143625364344 L0.9369065729286224 -24.91143625364344 L0.6266661678215201 -24.960573506572388 L0.6266661678215201 -24.960573506572388 z"/>
<path fill="#000000" stroke="#000000" d="M1.2434494358242725 -24.842915805643155 L1.2434494358242725 -24.842915805643155 L0.9369065729286224 -24.91143625364344 L0.9369065729286224 -24.91143625364344 z"/>
<path fill="#000000" stroke="#000000" d="M1.5450849718747348 -24.755282581475768 L1.5450849718747348 -24.755282581475768 L1.2434494358242725 -24.842915805643155 L1.2434494358242725 -24.842915805643155 z"/>
<path fill="#000000" stroke="#000000" d="M3.187119948743446 -23.852566213878948 L3.187119948743446 -23.852566213878948 L2.938926261462363 -24.045084971874736 L2.938926261462363 -24.045084971874736 z"/>
<path fill="#000000" stroke="#000000" d="M2.938926261462363 -24.045084971874736 L2.938926261462363 -24.045084971874736 L2.6791339748949805 -24.221639627510076 L2.6791339748949805 -24.221639627510076 z"/>
<path fill="#000000" stroke="#000000" d="M2.4087683705085734 -24.38153340021932 L2.4087683705085734 -24.38153340021932 L2.12889645782536 -24.5241352623301 L2.12889645782536 -24.5241352623301 z"/>
<path fill="#000000" stroke="#000000" d="M2.6791339748949805 -24.221639627510076 L2.6791339748949805 -24.221639627510076 L2.4087683705085734 -24.38153340021932 L2.4087683705085734 -24.38153340021932 z"/>
<path fill="#000000" stroke="#000000" d="M2.12889645782536 -24.5241352623301 L2.12889645782536 -24.5241352623301 L1.8406227634233872 -24.648882429441258 L1.8406227634233872 -24.648882429441258 z"/>
<path fill="#000000" stroke="#000000" d="M1.8406227634233872 -24.648882429441258 L1.8406227634233872 -24.648882429441258 L1.545084971874735 -24.755282581475768 L1.545084971874735 -24.755282581475768 z"/>
<path fill="#000000" stroke="#000000" d="M3.4227355296434414 -23.644843137107056 L3.4227355296434414 -23.644843137107056 L3.187119948743446 -23.852566213878948 L3.187119948743446 -23.852566213878948 z"/>
<path fill="#000000" stroke="#000000" d="M3.6448431371070575 -23.42273552964344 L3.6448431371070575 -23.42273552964344 L3.422735529643445 -23.644843137107053 L3.422735529643445 -23.644843137107053 z"/>
<path fill="#000000" stroke="#000000" d="M3.8525662138789483 -23.187119948743444 L3.8525662138789483 -23.187119948743444 L3.6448431371070558 -23.422735529643443 L3.6448431371070558 -23.422735529643443 z"/>
<path fill="#000000" stroke="#000000" d="M4.045084971874738 -22.938926261462363 L4.045084971874738 -22.938926261462363 L3.8525662138789474 -23.187119948743444 L3.8525662138789474 -23.187119948743444 z"/>
<path fill="#000000" stroke="#000000" d="M4.2216396275100765 -22.679133974894977 L4.2216396275100765 -22.679133974894977 L4.045084971874736 -22.938926261462363 L4.045084971874736 -22.938926261462363 z"/>
<path fill="#000000" stroke="#000000" d="M4.648882429441256 -21.840622763423386 L4.648882429441256 -21.840622763423386 L4.5241352623300966 -22.128896457825363 L4.5241352623300966 -22.128896457825363 z"/>
<path fill="#000000" stroke="#000000" d="M4.755282581475767 -21.545084971874736 L4.755282581475767 -21.545084971874736 L4.648882429441256 -21.840622763423386 L4.648882429441256 -21.840622763423386 z"/>
<path fill="#000000" stroke="#000000" d="M4.5241352623300966 -22.128896457825363 L4.5241352623300966 -22.128896457825363 L4.381533400219317 -22.408768370508575 L4.381533400219317 -22.408768370508575 z"/>
<path fill="#000000" stroke="#000000" d="M4.381533400219317 -22.408768370508575 L4.381533400219317 -22.408768370508575 L4.221639627510076 -22.67913397489498 L4.221639627510076 -22.67913397489498 z"/>
<path fill="#000000" stroke="#000000" d="M4.842915805643155 -21.243449435824274 L4.842915805643155 -21.243449435824274 L4.755282581475767 -21.545084971874736 L4.755282581475767 -21.545084971874736 z"/>
<path fill="#000000" stroke="#000000" d="M4.911436253643443 -20.93690657292862 L4.911436253643443 -20.93690657292862 L4.842915805643155 -21.243449435824274 L4.842915805643155 -21.243449435824274 z"/>
<path fill="#000000" stroke="#000000" d="M4.960573506572389 -20.626666167821522 L4.960573506572389 -20.626666167821522 L4.911436253643443 -20.93690657292862 L4.911436253643443 -20.93690657292862 z"/>
<path fill="#000000" stroke="#000000" d="M4.990133642141358 -20.313952597646566 L4.990133642141358 -20.313952597646566 L4.960573506572389 -20.62666616782152 L4.960573506572389 -20.62666616782152 z"/>
<path fill="#000000" stroke="#000000" d="M5 -20 L5 -20 L4.990133642141358 -20.313952597646566 L4.990133642141358 -20.313952597646566 z"/>
<path fill="#000000" stroke="#000000" d="M4.990133642141357 -19.686047402353434 L4.990133642141357 -19.686047402353434 L4.999999999999999 -20 L4.999999999999999 -20 z"/>
<path fill="#000000" stroke="#000000" d="M4.960573506572389 -19.373333832178478 L4.960573506572389 -19.373333832178478 L4.990133642141357 -19.68604740235343 L4.990133642141357 -19.68604740235343 z"/>
<path fill="#000000" stroke="#000000" d="M4.911436253643442 -19.063093427071376 L4.911436253643442 -19.063093427071376 L4.960573506572389 -19.373333832178478 L4.960573506572389 -19.373333832178478 z"/>
<path fill="#000000" stroke="#000000" d="M4.842915805643155 -18.756550564175726 L4.842915805643155 -18.756550564175726 L4.911436253643442 -19.063093427071376 L4.911436253643442 -19.063093427071376 z"/>
<path fill="#000000" stroke="#000000" d="M4.755282581475767 -18.45491502812526 L4.755282581475767 -18.45491502812526 L4.842915805643155 -18.756550564175726 L4.842915805643155 -18.756550564175726 z"/>
<path fill="#000000" stroke="#000000" d="M4.648882429441257 -18.15937723657661 L4.648882429441257 -18.15937723657661 L4.755282581475767 -18.45491502812526 L4.755282581475767 -18.45491502812526 z"/>
<path fill="#000000" stroke="#000000" d="M4.524135262330097 -17.871103542174634 L4.524135262330097 -17.871103542174634 L4.648882429441257 -18.15937723657661 L4.648882429441257 -18.15937723657661 z"/>
<path fill="#000000" stroke="#000000" d="M4.3815334002193165 -17.59123162949142 L4.3815334002193165 -17.59123162949142 L4.524135262330097 -17.871103542174637 L4.524135262330097 -17.871103542174637 z"/>
<path fill="#000000" stroke="#000000" d="M3.8525662138789465 -16.81288005125655 L3.8525662138789465 -16.81288005125655 L4.045084971874737 -17.061073738537633 L4.045084971874737 -17.061073738537633 z"/>
<path fill="#000000" stroke="#000000" d="M4.221639627510076 -17.320866025105015 L4.221639627510076 -17.320866025105015 L4.3815334002193165 -17.59123162949142 L4.3815334002193165 -17.59123162949142 z"/>
<path fill="#000000" stroke="#000000" d="M4.045084971874737 -17.061073738537633 L4.045084971874737 -17.061073738537633 L4.221639627510075 -17.320866025105015 L4.221639627510075 -17.320866025105015 z"/>
<path fill="#000000" stroke="#000000" d="M3.644843137107057 -16.577264470356553 L3.644843137107057 -16.577264470356553 L3.8525662138789465 -16.81288005125655 L3.8525662138789465 -16.81288005125655 z"/>
<path fill="#000000" stroke="#000000" d="M3.4227355296434414 -16.35515686289294 L3.4227355296434414 -16.35515686289294 L3.6448431371070575 -16.577264470356557 L3.6448431371070575 -16.577264470356557 z"/>
<path fill="#000000" stroke="#000000" d="M3.1871199487434483 -16.147433786121052 L3.1871199487434483 -16.147433786121052 L3.422735529643443 -16.35515686289294 L3.422735529643443 -16.35515686289294 z"/>
<path fill="#000000" stroke="#000000" d="M2.9389262614623664 -15.954915028125262 L2.9389262614623664 -15.954915028125262 L3.1871199487434483 -16.147433786121052 L3.1871199487434483 -16.147433786121052 z"/>
<path fill="#000000" stroke="#000000" d="M2.679133974894983 -15.778360372489924 L2.679133974894983 -15.778360372489924 L2.938926261462366 -15.954915028125262 L2.938926261462366 -15.954915028125262 z"/>
<path fill="#000000" stroke="#000000" d="M1.8406227634233903 -15.351117570558742 L1.8406227634233903 -15.351117570558742 L2.1288964578253635 -15.475864737669902 L2.1288964578253635 -15.475864737669902 z"/>
<path fill="#000000" stroke="#000000" d="M2.4087683705085765 -15.61846659978068 L2.4087683705085765 -15.61846659978068 L2.679133974894983 -15.778360372489924 L2.679133974894983 -15.778360372489924 z"/>
<path fill="#000000" stroke="#000000" d="M2.1288964578253635 -15.475864737669902 L2.1288964578253635 -15.475864737669902 L2.4087683705085765 -15.61846659978068 L2.4087683705085765 -15.61846659978068 z"/>
<path fill="#000000" stroke="#000000" d="M1.2434494358242756 -15.157084194356843 L1.2434494358242756 -15.157084194356843 L1.5450849718747381 -15.244717418524232 L1.5450849718747381 -15.244717418524232 z"/>
<path fill="#000000" stroke="#000000" d="M0.9369065729286256 -15.088563746356556 L0.9369065729286256 -15.088563746356556 L1.2434494358242756 -15.157084194356843 L1.2434494358242756 -15.157084194356843 z"/>
<path fill="#000000" stroke="#000000" d="M0.6266661678215245 -15.03942649342761 L0.6266661678215245 -15.03942649342761 L0.9369065729286257 -15.088563746356556 L0.9369065729286257 -15.088563746356556 z"/>
<path fill="#000000" stroke="#000000" d="M0.3139525976465698 -15.009866357858641 L0.3139525976465698 -15.009866357858641 L0.6266661678215245 -15.03942649342761 L0.6266661678215245 -15.03942649342761 z"/>
<path fill="#000000" stroke="#000000" d="M3.6368307736623075e-15 -14.999999999999998 L3.6368307736623075e-15 -14.999999999999998 L0.3139525976465698 -15.009866357858641 L0.3139525976465698 -15.009866357858641 z"/>
<path fill="#000000" stroke="#000000" d="M-0.3139525976465625 -15.009866357858641 L-0.3139525976465625 -15.009866357858641 L3.6368307736623075e-15 -15 L3.6368307736623075e-15 -15 z"/>
<path fill="#000000" stroke="#000000" d="M-0.6266661678215162 -15.039426493427609 L-0.6266661678215162 -15.039426493427609 L-0.3139525976465625 -15.009866357858641 L-0.3139525976465625 -15.009866357858641 z"/>
<path fill="#000000" stroke="#000000" d="M-1.5450849718747302 -15.244717418524228 L-1.5450849718747302 -15.244717418524228 L-1.2434494358242687 -15.157084194356841 L-1.2434494358242687 -15.157084194356841 z"/>
<path fill="#000000" stroke="#000000" d="M-0.9369065729286173 -15.088563746356554 L-0.9369065729286173 -15.088563746356554 L-0.6266661678215162 -15.039426493427609 L-0.6266661678215162 -15.039426493427609 z"/>
<path fill="#000000" stroke="#000000" d="M-1.2434494358242687 -15.157084194356841 L-1.2434494358242687 -15.157084194356841 L-0.9369065729286173 -15.088563746356554 L-0.9369065729286173 -15.088563746356554 z"/>
<path fill="#000000" stroke="#000000" d="M1.5450849718747381 -15.244717418524232 L1.5450849718747381 -15.244717418524232 L1.84062276342339 -15.351117570558742 L1.84062276342339 -15.351117570558742 z"/>
<path fill="#000000" stroke="#000000" d="M-1.8406227634233836 -15.351117570558738 L-1.8406227634233836 -15.351117570558738 L-1.54508497187473 -15.244717418524228 L-1.54508497187473 -15.244717418524228 z"/>
<path fill="#000000" stroke="#000000" d="M-2.128896457825355 -15.475864737669898 L-2.128896457825355 -15.475864737669898 L-1.8406227634233834 -15.351117570558738 L-1.8406227634233834 -15.351117570558738 z"/>
<path fill="#000000" stroke="#000000" d="M-2.408768370508569 -15.618466599780676 L-2.408768370508569 -15.618466599780676 L-2.128896457825355 -15.475864737669898 L-2.128896457825355 -15.475864737669898 z"/>
<path fill="#000000" stroke="#000000" d="M-2.679133974894976 -15.778360372489919 L-2.679133974894976 -15.778360372489919 L-2.408768370508569 -15.618466599780676 L-2.408768370508569 -15.618466599780676 z"/>
<path fill="#000000" stroke="#000000" d="M-3.187119948743441 -16.147433786121045 L-3.187119948743441 -16.147433786121045 L-2.9389262614623575 -15.954915028125257 L-2.9389262614623575 -15.954915028125257 z"/>
<path fill="#000000" stroke="#000000" d="M-3.4227355296434365 -16.355156862892933 L-3.4227355296434365 -16.355156862892933 L-3.187119948743441 -16.147433786121045 L-3.187119948743441 -16.147433786121045 z"/>
<path fill="#000000" stroke="#000000" d="M-2.9389262614623575 -15.954915028125257 L-2.9389262614623575 -15.954915028125257 L-2.679133974894976 -15.778360372489919 L-2.679133974894976 -15.778360372489919 z"/>
<path fill="#000000" stroke="#000000" d="M-3.6448431371070518 -16.57726447035655 L-3.6448431371070518 -16.57726447035655 L-3.4227355296434365 -16.355156862892933 L-3.4227355296434365 -16.355156862892933 z"/>
<path fill="#000000" stroke="#000000" d="M-3.852566213878939 -16.812880051256542 L-3.852566213878939 -16.812880051256542 L-3.6448431371070518 -16.57726447035655 L-3.6448431371070518 -16.57726447035655 z"/>
<path fill="#000000" stroke="#000000" d="M-4.045084971874731 -17.061073738537623 L-4.045084971874731 -17.061073738537623 L-3.852566213878938 -16.812880051256542 L-3.852566213878938 -16.812880051256542 z"/>
<path fill="#000000" stroke="#000000" d="M-4.2216396275100685 -17.320866025105005 L-4.2216396275100685 -17.320866025105005 L-4.045084971874731 -17.061073738537626 L-4.045084971874731 -17.061073738537626 z"/>
<path fill="#000000" stroke="#000000" d="M-4.381533400219312 -17.59123162949141 L-4.381533400219312 -17.59123162949141 L-4.221639627510068 -17.320866025105005 L-4.221639627510068 -17.320866025105005 z"/>
<path fill="#000000" stroke="#000000" d="M-4.524135262330091 -17.871103542174623 L-4.524135262330091 -17.871103542174623 L-4.381533400219311 -17.59123162949141 L-4.381533400219311 -17.59123162949141 z"/>
<path fill="#000000" stroke="#000000" d="M-4.648882429441251 -18.159377236576596 L-4.648882429441251 -18.159377236576596 L-4.524135262330091 -17.871103542174623 L-4.524135262330091 -17.871103542174623 z"/>
<path fill="#000000" stroke="#000000" d="M-4.755282581475764 -18.45491502812525 L-4.755282581475764 -18.45491502812525 L-4.648882429441252 -18.159377236576596 L-4.648882429441252 -18.159377236576596 z"/>
<path fill="#000000" stroke="#000000" d="M-4.842915805643151 -18.756550564175708 L-4.842915805643151 -18.756550564175708 L-4.755282581475764 -18.45491502812525 L-4.755282581475764 -18.45491502812525 z"/>
<path fill="#000000" stroke="#000000" d="M-4.990133642141356 -19.686047402353413 L-4.990133642141356 -19.686047402353413 L-4.960573506572387 -19.373333832178464 L-4.960573506572387 -19.373333832178464 z"/>
<path fill="#000000" stroke="#000000" d="M-4.999999999999999 -19.99999999999998 L-4.999999999999999 -19.99999999999998 L-4.990133642141356 -19.686047402353413 L-4.990133642141356 -19.686047402353413 z"/>
<path fill="#000000" stroke="#000000" d="M-4.91143625364344 -19.06309342707136 L-4.91143625364344 -19.06309342707136 L-4.842915805643151 -18.756550564175708 L-4.842915805643151 -18.756550564175708 z"/>
<path fill="#000000" stroke="#000000" d="M-4.990133642141359 -20.313952597646548 L-4.990133642141359 -20.313952597646548 L-5 -19.999999999999982 L-5 -19.999999999999982 z"/>
<path fill="#000000" stroke="#000000" d="M-4.960573506572391 -20.626666167821504 L-4.960573506572391 -20.626666167821504 L-4.990133642141359 -20.313952597646548 L-4.990133642141359 -20.313952597646548 z"/>
<path fill="#000000" stroke="#000000" d="M-4.911436253643446 -20.936906572928606 L-4.911436253643446 -20.936906572928606 L-4.960573506572391 -20.626666167821504 L-4.960573506572391 -20.626666167821504 z"/>
<path fill="#000000" stroke="#000000" d="M-4.960573506572387 -19.373333832178464 L-4.960573506572387 -19.373333832178464 L-4.91143625364344 -19.06309342707136 L-4.91143625364344 -19.06309342707136 z"/>
<path fill="#000000" stroke="#000000" d="M-4.842915805643161 -21.243449435824253 L-4.842915805643161 -21.243449435824253 L-4.911436253643446 -20.936906572928606 L-4.911436253643446 -20.936906572928606 z"/>
<path fill="#000000" stroke="#000000" d="M-4.7552825814757735 -21.545084971874715 L-4.7552825814757735 -21.545084971874715 L-4.842915805643161 -21.243449435824253 L-4.842915805643161 -21.243449435824253 z"/>
<path fill="#000000" stroke="#000000" d="M-4.648882429441263 -21.84062276342337 L-4.648882429441263 -21.84062276342337 L-4.7552825814757735 -21.54508497187472 L-4.7552825814757735 -21.54508497187472 z"/>
<path fill="#000000" stroke="#000000" d="M-4.524135262330106 -22.128896457825345 L-4.524135262330106 -22.128896457825345 L-4.648882429441263 -21.84062276342337 L-4.648882429441263 -21.84062276342337 z"/>
<path fill="#000000" stroke="#000000" d="M-4.38153340021933 -22.408768370508554 L-4.38153340021933 -22.408768370508554 L-4.524135262330105 -22.128896457825345 L-4.524135262330105 -22.128896457825345 z"/>
<path fill="#000000" stroke="#000000" d="M-4.221639627510087 -22.67913397489496 L-4.221639627510087 -22.67913397489496 L-4.381533400219329 -22.408768370508554 L-4.381533400219329 -22.408768370508554 z"/>
<path fill="#000000" stroke="#000000" d="M-4.04508497187475 -22.938926261462345 L-4.04508497187475 -22.938926261462345 L-4.221639627510086 -22.679133974894963 L-4.221639627510086 -22.679133974894963 z"/>
<path fill="#000000" stroke="#000000" d="M-3.852566213878959 -23.18711994874343 L-3.852566213878959 -23.18711994874343 L-4.045084971874752 -22.938926261462342 L-4.045084971874752 -22.938926261462342 z"/>
<path fill="#000000" stroke="#000000" d="M-3.6448431371070735 -23.422735529643425 L-3.6448431371070735 -23.422735529643425 L-3.8525662138789603 -23.18711994874343 L-3.8525662138789603 -23.18711994874343 z"/>
<path fill="#000000" stroke="#000000" d="M-2.9389262614623832 -24.045084971874722 L-2.9389262614623832 -24.045084971874722 L-3.1871199487434643 -23.85256621387893 L-3.1871199487434643 -23.85256621387893 z"/>
<path fill="#000000" stroke="#000000" d="M-3.4227355296434614 -23.64484313710704 L-3.4227355296434614 -23.64484313710704 L-3.644843137107075 -23.422735529643422 L-3.644843137107075 -23.422735529643422 z"/>
<path fill="#000000" stroke="#000000" d="M-3.1871199487434643 -23.85256621387893 L-3.1871199487434643 -23.85256621387893 L-3.4227355296434605 -23.64484313710704 L-3.4227355296434605 -23.64484313710704 z"/>
<path fill="#000000" stroke="#000000" d="M-2.1288964578253844 -24.524135262330088 L-2.1288964578253844 -24.524135262330088 L-2.408768370508599 -24.381533400219304 L-2.408768370508599 -24.381533400219304 z"/>
<path fill="#000000" stroke="#000000" d="M-1.8406227634234134 -24.648882429441247 L-1.8406227634234134 -24.648882429441247 L-2.1288964578253844 -24.524135262330088 L-2.1288964578253844 -24.524135262330088 z"/>
<path fill="#000000" stroke="#000000" d="M-1.545084971874759 -24.75528258147576 L-1.545084971874759 -24.75528258147576 L-1.8406227634234136 -24.648882429441247 L-1.8406227634234136 -24.648882429441247 z"/>
<path fill="#000000" stroke="#000000" d="M-1.2434494358242978 -24.84291580564315 L-1.2434494358242978 -24.84291580564315 L-1.5450849718747588 -24.75528258147576 L-1.5450849718747588 -24.75528258147576 z"/>
<path fill="#000000" stroke="#000000" d="M-0.9369065729286492 -24.911436253643437 L-0.9369065729286492 -24.911436253643437 L-1.2434494358242978 -24.84291580564315 L-1.2434494358242978 -24.84291580564315 z"/>
<path fill="#000000" stroke="#000000" d="M-0.6266661678215449 -24.960573506572384 L-0.6266661678215449 -24.960573506572384 L-0.9369065729286493 -24.911436253643437 L-0.9369065729286493 -24.911436253643437 z"/>
<path fill="#000000" stroke="#000000" d="M-2.408768370508599 -24.381533400219304 L-2.408768370508599 -24.381533400219304 L-2.679133974895 -24.22163962751006 L-2.679133974895 -24.22163962751006 z"/>
<path fill="#000000" stroke="#000000" d="M-2.679133974895 -24.22163962751006 L-2.679133974895 -24.22163962751006 L-2.9389262614623837 -24.045084971874722 L-2.9389262614623837 -24.045084971874722 z"/>
<path fill="#000000" stroke="#000000" d="M-0.31395259764659256 -24.990133642141355 L-0.31395259764659256 -24.990133642141355 L-0.6266661678215449 -24.960573506572384 L-0.6266661678215449 -24.960573506572384 z"/>
<path fill="#000000" stroke="#000000" d="M3.0616169978683826e-16 -24.999999999999996 L3.0616169978683826e-16 -24.999999999999996 L-0.31395259764659256 -24.990133642141355 L-0.31395259764659256 -24.990133642141355 z"/>
<path fill="#000000" stroke="#000000" d="M0.31395259764656763 -24.990133642141355 L3.061616997868383e-16 -24.999999999999996 L-0.3139525976465926 -24.990133642141352 L-0.626666167821545 -24.96057350657238 L-0.9369065729286494 -24.911436253643437 L-1.243449435824298 -24.842915805643145 L-1.5450849718747592 -24.755282581475758 L-1.8406227634234138 -24.648882429441244 L-2.128896457825385 -24.524135262330084 L-2.4087683705085996 -24.3815334002193 L-2.6791339748950005 -24.22163962751006 L-2.938926261462384 -24.04508497187472 L-3.1871199487434647 -23.85256621387893 L-3.422735529643461 -23.64484313710704 L-3.6448431371070713 -23.422735529643425 L-3.852566213878959 -23.18711994874343 L-4.04508497187475 -22.938926261462345 L-4.221639627510086 -22.67913397489496 L-4.381533400219329 -22.408768370508554 L-4.524135262330105 -22.128896457825345 L-4.648882429441263 -21.840622763423372 L-4.7552825814757735 -21.545084971874715 L-4.842915805643161 -21.243449435824253 L-4.911436253643446 -20.936906572928603 L-4.960573506572391 -20.6266661678215 L-4.990133642141359 -20.313952597646548 L-5 -19.999999999999982 L-4.990133642141357 -19.686047402353413 L-4.960573506572388 -19.373333832178464 L-4.911436253643441 -19.06309342707136 L-4.842915805643152 -18.75655056417571 L-4.755282581475765 -18.45491502812525 L-4.648882429441253 -18.159377236576596 L-4.524135262330092 -17.871103542174623 L-4.381533400219313 -17.59123162949141 L-4.221639627510069 -17.320866025105005 L-4.045084971874732 -17.061073738537623 L-3.85256621387894 -16.812880051256542 L-3.644843137107052 -16.577264470356546 L-3.422735529643437 -16.355156862892933 L-3.1871199487434416 -16.147433786121045 L-2.938926261462358 -15.954915028125255 L-2.6791339748949765 -15.778360372489919 L-2.4087683705085694 -15.618466599780676 L-2.1288964578253555 -15.475864737669898 L-1.8406227634233838 -15.351117570558737 L-1.5450849718747304 -15.244717418524228 L-1.243449435824269 -15.157084194356841 L-0.9369065729286176 -15.08856374635655 L-0.6266661678215163 -15.039426493427607 L-0.3139525976465626 -15.00986635785864 L3.636830773662308e-15 -14.999999999999998 L0.31395259764656985 -15.00986635785864 L0.6266661678215246 -15.03942649342761 L0.9369065729286258 -15.088563746356554 L1.2434494358242758 -15.157084194356841 L1.5450849718747384 -15.24471741852423 L1.8406227634233905 -15.351117570558742 L2.128896457825364 -15.4758647376699 L2.408768370508577 -15.61846659978068 L2.6791339748949836 -15.778360372489923 L2.938926261462367 -15.954915028125262 L3.187119948743449 -16.147433786121052 L3.4227355296434436 -16.35515686289294 L3.6448431371070584 -16.577264470356557 L3.852566213878947 -16.81288005125655 L4.045084971874738 -17.061073738537633 L4.2216396275100765 -17.320866025105012 L4.381533400219318 -17.59123162949142 L4.524135262330098 -17.871103542174634 L4.648882429441258 -18.15937723657661 L4.755282581475768 -18.454915028125264 L4.842915805643156 -18.756550564175726 L4.911436253643443 -19.063093427071376 L4.9605735065723895 -19.373333832178478 L4.990133642141358 -19.68604740235343 L5 -20 L4.990133642141358 -20.313952597646566 L4.960573506572389 -20.62666616782152 L4.911436253643443 -20.93690657292862 L4.842915805643155 -21.243449435824274 L4.755282581475767 -21.545084971874736 L4.648882429441256 -21.840622763423386 L4.5241352623300966 -22.128896457825363 L4.3815334002193165 -22.408768370508575 L4.221639627510074 -22.67913397489498 L4.045084971874736 -22.938926261462363 L3.8525662138789447 -23.187119948743447 L3.6448431371070553 -23.42273552964344 L3.422735529643442 -23.644843137107056 L3.1871199487434465 -23.852566213878944 L2.9389262614623632 -24.045084971874736 L2.679133974894981 -24.221639627510076 L2.408768370508574 -24.381533400219315 L2.1288964578253604 -24.524135262330095 L1.8406227634233874 -24.648882429441255 L1.5450849718747353 -24.755282581475765 L1.2434494358242727 -24.842915805643152 L0.9369065729286226 -24.91143625364344 L0.6266661678215202 -24.960573506572388 z"/>
<path fill="#000000" stroke="#000000" d="M3.061616997868383e-16 -24.999999999999996 L0.31395259764656763 -24.990133642141355 L0.6266661678215202 -24.960573506572388 L0.9369065729286226 -24.91143625364344 L1.2434494358242727 -24.842915805643152 L1.5450849718747353 -24.755282581475765 L1.8406227634233874 -24.648882429441255 L2.1288964578253604 -24.524135262330095 L2.408768370508574 -24.381533400219315 L2.679133974894981 -24.221639627510076 L2.9389262614623632 -24.045084971874736 L3.1871199487434465 -23.852566213878944 L3.422735529643442 -23.644843137107056 L3.6448431371070553 -23.42273552964344 L3.8525662138789447 -23.187119948743447 L4.045084971874736 -22.938926261462363 L4.221639627510074 -22.67913397489498 L4.3815334002193165 -22.408768370508575 L4.5241352623300966 -22.128896457825363 L4.648882429441256 -21.840622763423386 L4.755282581475767 -21.545084971874736 L4.842915805643155 -21.243449435824274 L4.911436253643443 -20.93690657292862 L4.960573506572389 -20.62666616782152 L4.990133642141358 -20.313952597646566 L5 -20 L4.990133642141358 -19.68604740235343 L4.9605735065723895 -19.373333832178478 L4.911436253643443 -19.063093427071376 L4.842915805643156 -18.756550564175726 L4.755282581475768 -18.454915028125264 L4.648882429441258 -18.15937723657661 L4.524135262330098 -17.871103542174634 L4.381533400219318 -17.59123162949142 L4.2216396275100765 -17.320866025105012 L4.045084971874738 -17.061073738537633 L3.852566213878947 -16.81288005125655 L3.6448431371070584 -16.577264470356557 L3.4227355296434436 -16.35515686289294 L3.187119948743449 -16.147433786121052 L2.938926261462367 -15.954915028125262 L2.6791339748949836 -15.778360372489923 L2.408768370508577 -15.61846659978068 L2.128896457825364 -15.4758647376699 L1.8406227634233905 -15.351117570558742 L1.5450849718747384 -15.24471741852423 L1.2434494358242758 -15.157084194356841 L0.9369065729286258 -15.088563746356554 L0.6266661678215246 -15.03942649342761 L0.31395259764656985 -15.00986635785864 L3.636830773662308e-15 -14.999999999999998 L-0.3139525976465626 -15.00986635785864 L-0.6266661678215163 -15.039426493427607 L-0.9369065729286176 -15.08856374635655 L-1.243449435824269 -15.157084194356841 L-1.5450849718747304 -15.244717418524228 L-1.8406227634233838 -15.351117570558737 L-2.1288964578253555 -15.475864737669898 L-2.4087683705085694 -15.618466599780676 L-2.6791339748949765 -15.778360372489919 L-2.938926261462358 -15.954915028125255 L-3.1871199487434416 -16.147433786121045 L-3.422735529643437 -16.355156862892933 L-3.644843137107052 -16.577264470356546 L-3.85256621387894 -16.812880051256542 L-4.045084971874732 -17.061073738537623 L-4.221639627510069 -17.320866025105005 L-4.381533400219313 -17.59123162949141 L-4.524135262330092 -17.871103542174623 L-4.648882429441253 -18.159377236576596 L-4.755282581475765 -18.45491502812525 L-4.842915805643152 -18.75655056417571 L-4.911436253643441 -19.06309342707136 L-4.960573506572388 -19.373333832178464 L-4.990133642141357 -19.686047402353413 L-5 -19.999999999999982 L-4.990133642141359 -20.313952597646548 L-4.960573506572391 -20.6266661678215 L-4.911436253643446 -20.936906572928603 L-4.842915805643161 -21.243449435824253 L-4.7552825814757735 -21.545084971874715 L-4.648882429441263 -21.840622763423372 L-4.524135262330105 -22.128896457825345 L-4.381533400219329 -22.408768370508554 L-4.221639627510086 -22.67913397489496 L-4.04508497187475 -22.938926261462345 L-3.852566213878959 -23.18711994874343 L-3.6448431371070713 -23.422735529643425 L-3.422735529643461 -23.64484313710704 L-3.1871199487434647 -23.85256621387893 L-2.938926261462384 -24.04508497187472 L-2.6791339748950005 -24.22163962751006 L-2.4087683705085996 -24.3815334002193 L-2.128896457825385 -24.524135262330084 L-1.8406227634234138 -24.648882429441244 L-1.5450849718747592 -24.755282581475758 L-1.243449435824298 -24.842915805643145 L-0.9369065729286494 -24.911436253643437 L-0.626666167821545 -24.96057350657238 L-0.3139525976465926 -24.990133642141352 z"/>
</svg>