<?xml version="1.0" encoding="UTF-8"?>
<!-- Generated by jsxcad -->
<!DOCTYPE svg PUBLIC "-//W3C//DTD SVG 1.1 Tiny//EN" "http://www.w3.org/Graphics/SVG/1.1/DTD/svg11-tiny.dtd">
<svg baseProfile="tiny" height="55.788013318534986mm" width="60.00000000000002mm" viewBox="-30.00000000000001 -27.894006659267493 60.00000000000002 55.788013318534986" version="1.1" stroke="black" stroke-width=".1" fill="none" xmlns="http://www.w3.org/2000/svg">
<path fill="#3c3c3c" stroke="#3c3c3c" d="M0 -12.5 L0 -12.5 L-2.302631578947368 -12.276785714285714 L-2.302631578947368 -12.276785714285714 z"/>
<path fill="#3c3c3c" stroke="#3c3c3c" d="M2.302631578947368 -12.276785714285714 L2.302631578947368 -12.276785714285714 L0 -12.5 L0 -12.5 z"/>
<path fill="#3c3c3c" stroke="#3c3c3c" d="M4.513888888888888 -11.666666666666664 L4.513888888888888 -11.666666666666664 L2.302631578947368 -12.276785714285714 L2.302631578947368 -12.276785714285714 z"/>
<path fill="#3c3c3c" stroke="#3c3c3c" d="M6.578947368421052 -10.624999999999998 L6.578947368421052 -10.624999999999998 L4.513888888888888 -11.666666666666664 L4.513888888888888 -11.666666666666664 z"/>
<path fill="#3c3c3c" stroke="#3c3c3c" d="M8.430232558139533 -9.239130434782608 L8.430232558139533 -9.239130434782608 L6.578947368421052 -10.624999999999998 L6.578947368421052 -10.624999999999998 z"/>
<path fill="#3c3c3c" stroke="#3c3c3c" d="M9.963768115942027 -7.543103448275861 L9.963768115942027 -7.543103448275861 L8.430232558139533 -9.239130434782608 L8.430232558139533 -9.239130434782608 z"/>
<path fill="#3c3c3c" stroke="#3c3c3c" d="M11.184210526315788 -5.580357142857142 L11.184210526315788 -5.580357142857142 L9.963768115942027 -7.543103448275861 L9.963768115942027 -7.543103448275861 z"/>
<path fill="#3c3c3c" stroke="#3c3c3c" d="M12.019230769230766 -3.4090909090909087 L12.019230769230766 -3.4090909090909087 L11.184210526315788 -5.580357142857142 L11.184210526315788 -5.580357142857142 z"/>
<path fill="#3c3c3c" stroke="#3c3c3c" d="M12.434210526315788 -1.1627906976744184 L12.434210526315788 -1.1627906976744184 L12.019230769230766 -3.4090909090909087 L12.019230769230766 -3.4090909090909087 z"/>
<path fill="#3c3c3c" stroke="#3c3c3c" d="M12.434210526315788 1.1627906976744184 L12.434210526315788 1.1627906976744184 L12.434210526315788 -1.1627906976744184 L12.434210526315788 -1.1627906976744184 z"/>
<path fill="#3c3c3c" stroke="#3c3c3c" d="M11.184210526315788 5.580357142857142 L11.184210526315788 5.580357142857142 L12.019230769230766 3.4090909090909087 L12.019230769230766 3.4090909090909087 z"/>
<path fill="#3c3c3c" stroke="#3c3c3c" d="M9.963768115942027 7.543103448275861 L9.963768115942027 7.543103448275861 L11.184210526315788 5.580357142857142 L11.184210526315788 5.580357142857142 z"/>
<path fill="#3c3c3c" stroke="#3c3c3c" d="M8.430232558139533 9.239130434782608 L8.430232558139533 9.239130434782608 L9.963768115942027 7.543103448275861 L9.963768115942027 7.543103448275861 z"/>
<path fill="#3c3c3c" stroke="#3c3c3c" d="M6.578947368421052 10.624999999999998 L6.578947368421052 10.624999999999998 L8.430232558139533 9.239130434782608 L8.430232558139533 9.239130434782608 z"/>
<path fill="#3c3c3c" stroke="#3c3c3c" d="M12.019230769230766 3.4090909090909087 L12.019230769230766 3.4090909090909087 L12.434210526315788 1.1627906976744184 L12.434210526315788 1.1627906976744184 z"/>
<path fill="#3c3c3c" stroke="#3c3c3c" d="M4.513888888888888 11.666666666666664 L4.513888888888888 11.666666666666664 L6.578947368421052 10.624999999999998 L6.578947368421052 10.624999999999998 z"/>
<path fill="#3c3c3c" stroke="#3c3c3c" d="M2.302631578947368 12.276785714285714 L2.302631578947368 12.276785714285714 L4.513888888888888 11.666666666666664 L4.513888888888888 11.666666666666664 z"/>
<path fill="#3c3c3c" stroke="#3c3c3c" d="M-12.434210526315788 -1.1627906976744184 L-12.434210526315788 -1.1627906976744184 L-12.434210526315788 1.1627906976744184 L-12.434210526315788 1.1627906976744184 z"/>
<path fill="#3c3c3c" stroke="#3c3c3c" d="M0 12.5 L0 12.5 L2.302631578947368 12.276785714285714 L2.302631578947368 12.276785714285714 z"/>
<path fill="#3c3c3c" stroke="#3c3c3c" d="M-2.302631578947368 12.276785714285714 L-2.302631578947368 12.276785714285714 L0 12.5 L0 12.5 z"/>
<path fill="#3c3c3c" stroke="#3c3c3c" d="M-4.513888888888888 11.666666666666664 L-4.513888888888888 11.666666666666664 L-2.302631578947368 12.276785714285714 L-2.302631578947368 12.276785714285714 z"/>
<path fill="#3c3c3c" stroke="#3c3c3c" d="M-6.578947368421052 10.624999999999998 L-6.578947368421052 10.624999999999998 L-4.513888888888888 11.666666666666664 L-4.513888888888888 11.666666666666664 z"/>
<path fill="#3c3c3c" stroke="#3c3c3c" d="M-8.430232558139533 9.239130434782608 L-8.430232558139533 9.239130434782608 L-6.578947368421052 10.624999999999998 L-6.578947368421052 10.624999999999998 z"/>
<path fill="#3c3c3c" stroke="#3c3c3c" d="M-9.963768115942027 7.543103448275861 L-9.963768115942027 7.543103448275861 L-8.430232558139533 9.239130434782608 L-8.430232558139533 9.239130434782608 z"/>
<path fill="#3c3c3c" stroke="#3c3c3c" d="M-12.434210526315788 1.1627906976744184 L-12.434210526315788 1.1627906976744184 L-12.019230769230766 3.4090909090909087 L-12.019230769230766 3.4090909090909087 z"/>
<path fill="#3c3c3c" stroke="#3c3c3c" d="M-12.019230769230766 3.4090909090909087 L-12.019230769230766 3.4090909090909087 L-11.184210526315788 5.580357142857142 L-11.184210526315788 5.580357142857142 z"/>
<path fill="#3c3c3c" stroke="#3c3c3c" d="M-11.184210526315788 5.580357142857142 L-11.184210526315788 5.580357142857142 L-9.963768115942027 7.543103448275861 L-9.963768115942027 7.543103448275861 z"/>
<path fill="#3c3c3c" stroke="#3c3c3c" d="M-12.019230769230766 -3.4090909090909087 L-12.019230769230766 -3.4090909090909087 L-12.434210526315788 -1.1627906976744184 L-12.434210526315788 -1.1627906976744184 z"/>
<path fill="#3c3c3c" stroke="#3c3c3c" d="M-11.184210526315788 -5.580357142857142 L-11.184210526315788 -5.580357142857142 L-12.019230769230766 -3.4090909090909087 L-12.019230769230766 -3.4090909090909087 z"/>
<path fill="#3c3c3c" stroke="#3c3c3c" d="M-9.963768115942027 -7.543103448275861 L-9.963768115942027 -7.543103448275861 L-11.184210526315788 -5.580357142857142 L-11.184210526315788 -5.580357142857142 z"/>
<path fill="#3c3c3c" stroke="#3c3c3c" d="M-8.430232558139533 -9.239130434782608 L-8.430232558139533 -9.239130434782608 L-9.963768115942027 -7.543103448275861 L-9.963768115942027 -7.543103448275861 z"/>
<path fill="#3c3c3c" stroke="#3c3c3c" d="M-6.578947368421052 -10.624999999999998 L-6.578947368421052 -10.624999999999998 L-8.430232558139533 -9.239130434782608 L-8.430232558139533 -9.239130434782608 z"/>
<path fill="#3c3c3c" stroke="#3c3c3c" d="M-2.302631578947368 -12.276785714285714 L-2.302631578947368 -12.276785714285714 L-4.513888888888888 -11.666666666666664 L-4.513888888888888 -11.666666666666664 z"/>
<path fill="#3c3c3c" stroke="#3c3c3c" d="M-4.513888888888888 -11.666666666666664 L-4.513888888888888 -11.666666666666664 L-6.578947368421052 -10.624999999999998 L-6.578947368421052 -10.624999999999998 z"/>
<path fill="#3c3c3c" stroke="#3c3c3c" d="M0 -12.5 L-2.302631578947368 -12.276785714285714 L-4.513888888888888 -11.666666666666664 L-6.578947368421052 -10.624999999999998 L-8.430232558139533 -9.239130434782608 L-9.963768115942027 -7.543103448275861 L-11.184210526315788 -5.580357142857142 L-12.019230769230766 -3.4090909090909087 L-12.434210526315788 -1.1627906976744184 L-12.434210526315788 1.1627906976744184 L-12.019230769230766 3.4090909090909087 L-11.184210526315788 5.580357142857142 L-9.963768115942027 7.543103448275861 L-8.430232558139533 9.239130434782608 L-6.578947368421052 10.624999999999998 L-4.513888888888888 11.666666666666664 L-2.302631578947368 12.276785714285714 L0 12.5 L2.302631578947368 12.276785714285714 L4.513888888888888 11.666666666666664 L6.578947368421052 10.624999999999998 L8.430232558139533 9.239130434782608 L9.963768115942027 7.543103448275861 L11.184210526315788 5.580357142857142 L12.019230769230766 3.4090909090909087 L12.434210526315788 1.1627906976744184 L12.434210526315788 -1.1627906976744184 L12.019230769230766 -3.4090909090909087 L11.184210526315788 -5.580357142857142 L9.963768115942027 -7.543103448275861 L8.430232558139533 -9.239130434782608 L6.578947368421052 -10.624999999999998 L4.513888888888888 -11.666666666666664 L2.302631578947368 -12.276785714285714 z"/>
<path fill="#3c3c3c" stroke="#3c3c3c" d="M0 -12.5 L2.302631578947368 -12.276785714285714 L4.513888888888888 -11.666666666666664 L6.578947368421052 -10.624999999999998 L8.430232558139533 -9.239130434782608 L9.963768115942027 -7.543103448275861 L11.184210526315788 -5.580357142857142 L12.019230769230766 -3.4090909090909087 L12.434210526315788 -1.1627906976744184 L12.434210526315788 1.1627906976744184 L12.019230769230766 3.4090909090909087 L11.184210526315788 5.580357142857142 L9.963768115942027 7.543103448275861 L8.430232558139533 9.239130434782608 L6.578947368421052 10.624999999999998 L4.513888888888888 11.666666666666664 L2.302631578947368 12.276785714285714 L0 12.5 L-2.302631578947368 12.276785714285714 L-4.513888888888888 11.666666666666664 L-6.578947368421052 10.624999999999998 L-8.430232558139533 9.239130434782608 L-9.963768115942027 7.543103448275861 L-11.184210526315788 5.580357142857142 L-12.019230769230766 3.4090909090909087 L-12.434210526315788 1.1627906976744184 L-12.434210526315788 -1.1627906976744184 L-12.019230769230766 -3.4090909090909087 L-11.184210526315788 -5.580357142857142 L-9.963768115942027 -7.543103448275861 L-8.430232558139533 -9.239130434782608 L-6.578947368421052 -10.624999999999998 L-4.513888888888888 -11.666666666666664 L-2.302631578947368 -12.276785714285714 z"/>
<path fill="#3c3c3c" stroke="#3c3c3c" d="M0 0.049999999999999996 L6.578947368421052 10.625 L0.043478260869565216 0.02564102564102564 z"/>
<path fill="#3c3c3c" stroke="#3c3c3c" d="M0.043478260869565216 0.02564102564102564 L6.578947368421052 10.625 L8.43103448275862 9.239999999999998 z"/>
<path fill="#3c3c3c" stroke="#3c3c3c" d="M0 0.049999999999999996 L2.3030303030303028 12.277777777777777 L4.514285714285714 11.666666666666666 z"/>
<path fill="#3c3c3c" stroke="#3c3c3c" d="M0 0.049999999999999996 L-2.3030303030303028 12.277777777777777 L0 12.5 z"/>
<path fill="#3c3c3c" stroke="#3c3c3c" d="M0.043478260869565216 0.02564102564102564 L9.962962962962962 7.542857142857143 L11.185185185185185 5.580645161290322 z"/>
<path fill="#3c3c3c" stroke="#3c3c3c" d="M4.514285714285714 11.666666666666666 L6.578947368421052 10.625 L0 0.049999999999999996 z"/>
<path fill="#3c3c3c" stroke="#3c3c3c" d="M-4.514285714285714 11.666666666666666 L-2.3030303030303028 12.277777777777777 L0 0.049999999999999996 z"/>
<path fill="#3c3c3c" stroke="#3c3c3c" d="M-0.043478260869565216 0.02564102564102564 L-9.962962962962962 7.542857142857143 L-8.43103448275862 9.239999999999998 z"/>
<path fill="#3c3c3c" stroke="#3c3c3c" d="M-0.043478260869565216 0.02564102564102564 L-12.43478260869565 1.162162162162162 L-12.02 3.4090909090909087 z"/>
<path fill="#3c3c3c" stroke="#3c3c3c" d="M-2.3030303030303028 -12.277777777777777 L0 -0.049999999999999996 L0 -12.5 z"/>
<path fill="#3c3c3c" stroke="#3c3c3c" d="M2.3030303030303028 -12.277777777777777 L0 -0.049999999999999996 L4.514285714285714 -11.666666666666666 z"/>
<path fill="#3c3c3c" stroke="#3c3c3c" d="M-4.514285714285714 -11.666666666666666 L0 -0.049999999999999996 L-2.3030303030303028 -12.277777777777777 z"/>
<path fill="#3c3c3c" stroke="#3c3c3c" d="M-0.043478260869565216 -0.02564102564102564 L-9.962962962962962 -7.542857142857143 L-11.185185185185185 -5.580645161290322 z"/>
<path fill="#3c3c3c" stroke="#3c3c3c" d="M8.43103448275862 9.239999999999998 L9.962962962962962 7.542857142857143 L0.043478260869565216 0.02564102564102564 z"/>
<path fill="#3c3c3c" stroke="#3c3c3c" d="M12.43478260869565 1.162162162162162 L12.43478260869565 -1.162162162162162 L0.043478260869565216 -0.02564102564102564 L0.043478260869565216 0.02564102564102564 z"/>
<path fill="#3c3c3c" stroke="#3c3c3c" d="M0 12.5 L2.3030303030303028 12.277777777777777 L0 0.049999999999999996 z"/>
<path fill="#3c3c3c" stroke="#3c3c3c" d="M-0.043478260869565216 0.02564102564102564 L-8.43103448275862 9.239999999999998 L-6.578947368421052 10.625 z"/>
<path fill="#3c3c3c" stroke="#3c3c3c" d="M-0.043478260869565216 0.02564102564102564 L-12.02 3.4090909090909087 L-11.185185185185185 5.580645161290322 z"/>
<path fill="#3c3c3c" stroke="#3c3c3c" d="M12.02 3.4090909090909087 L12.43478260869565 1.162162162162162 L0.043478260869565216 0.02564102564102564 z"/>
<path fill="#3c3c3c" stroke="#3c3c3c" d="M0.043478260869565216 -0.02564102564102564 L12.02 -3.4090909090909087 L11.185185185185185 -5.580645161290322 z"/>
<path fill="#3c3c3c" stroke="#3c3c3c" d="M-0.043478260869565216 -0.02564102564102564 L0 -0.049999999999999996 L-6.578947368421052 -10.625 z"/>
<path fill="#3c3c3c" stroke="#3c3c3c" d="M6.578947368421052 -10.625 L0 -0.049999999999999996 L0.043478260869565216 -0.02564102564102564 z"/>
<path fill="#3c3c3c" stroke="#3c3c3c" d="M-0.043478260869565216 -0.02564102564102564 L-12.02 -3.4090909090909087 L-12.43478260869565 -1.162162162162162 z"/>
<path fill="#3c3c3c" stroke="#3c3c3c" d="M-8.43103448275862 -9.239999999999998 L-9.962962962962962 -7.542857142857143 L-0.043478260869565216 -0.02564102564102564 z"/>
<path fill="#3c3c3c" stroke="#3c3c3c" d="M0.043478260869565216 -0.02564102564102564 L12.43478260869565 -1.162162162162162 L12.02 -3.4090909090909087 z"/>
<path fill="#3c3c3c" stroke="#3c3c3c" d="M-11.185185185185185 5.580645161290322 L-9.962962962962962 7.542857142857143 L-0.043478260869565216 0.02564102564102564 z"/>
<path fill="#3c3c3c" stroke="#3c3c3c" d="M0 -12.5 L0 -0.049999999999999996 L2.3030303030303028 -12.277777777777777 z"/>
<path fill="#3c3c3c" stroke="#3c3c3c" d="M-11.185185185185185 -5.580645161290322 L-12.02 -3.4090909090909087 L-0.043478260869565216 -0.02564102564102564 z"/>
<path fill="#3c3c3c" stroke="#3c3c3c" d="M-6.578947368421052 10.625 L-4.514285714285714 11.666666666666666 L0 0.049999999999999996 z"/>
<path fill="#3c3c3c" stroke="#3c3c3c" d="M-0.043478260869565216 0.02564102564102564 L0 0.049999999999999996 L0.043478260869565216 0.02564102564102564 L0.043478260869565216 -0.02564102564102564 L0 -0.049999999999999996 L-0.043478260869565216 -0.02564102564102564 z"/>
<path fill="#3c3c3c" stroke="#3c3c3c" d="M9.962962962962962 -7.542857142857143 L0.043478260869565216 -0.02564102564102564 L11.185185185185185 -5.580645161290322 z"/>
<path fill="#3c3c3c" stroke="#3c3c3c" d="M6.578947368421052 -10.625 L0.043478260869565216 -0.02564102564102564 L8.43103448275862 -9.239999999999998 z"/>
<path fill="#3c3c3c" stroke="#3c3c3c" d="M4.514285714285714 -11.666666666666666 L0 -0.049999999999999996 L6.578947368421052 -10.625 z"/>
<path fill="#3c3c3c" stroke="#3c3c3c" d="M-0.043478260869565216 0.02564102564102564 L-0.043478260869565216 -0.02564102564102564 L-12.43478260869565 -1.162162162162162 L-12.43478260869565 1.162162162162162 z"/>
<path fill="#3c3c3c" stroke="#3c3c3c" d="M8.43103448275862 -9.239999999999998 L0.043478260869565216 -0.02564102564102564 L9.962962962962962 -7.542857142857143 z"/>
<path fill="#3c3c3c" stroke="#3c3c3c" d="M-6.578947368421052 -10.625 L0 -0.049999999999999996 L-4.514285714285714 -11.666666666666666 z"/>
<path fill="#3c3c3c" stroke="#3c3c3c" d="M-8.43103448275862 -9.239999999999998 L-6.578947368421052 -10.625 L-4.514285714285714 -11.666666666666666 L-2.3030303030303028 -12.277777777777777 L0 -12.5 L2.3030303030303028 -12.277777777777777 L4.514285714285714 -11.666666666666666 L6.578947368421052 -10.625 L8.43103448275862 -9.239999999999998 L9.962962962962962 -7.542857142857143 L11.185185185185185 -5.580645161290322 L12.02 -3.4090909090909087 L12.43478260869565 -1.162162162162162 L12.43478260869565 1.162162162162162 L12.02 3.4090909090909087 L11.185185185185185 5.580645161290322 L9.962962962962962 7.542857142857143 L8.43103448275862 9.239999999999998 L6.578947368421052 10.625 L4.514285714285714 11.666666666666666 L2.3030303030303028 12.277777777777777 L0 12.5 L-2.3030303030303028 12.277777777777777 L-4.514285714285714 11.666666666666666 L-6.578947368421052 10.625 L-8.43103448275862 9.239999999999998 L-9.962962962962962 7.542857142857143 L-11.185185185185185 5.580645161290322 L-12.02 3.4090909090909087 L-12.43478260869565 1.162162162162162 L-12.43478260869565 -1.162162162162162 L-12.02 -3.4090909090909087 L-11.185185185185185 -5.580645161290322 L-9.962962962962962 -7.542857142857143 z"/>
<path fill="#3c3c3c" stroke="#3c3c3c" d="M-0.043478260869565216 0.02564102564102564 L-6.578947368421052 10.625 L0 0.049999999999999996 z"/>
<path fill="#3c3c3c" stroke="#3c3c3c" d="M-6.578947368421052 -10.625 L-8.43103448275862 -9.239999999999998 L-0.043478260869565216 -0.02564102564102564 z"/>
<path fill="#3c3c3c" stroke="#3c3c3c" d="M0.043478260869565216 0.02564102564102564 L11.185185185185185 5.580645161290322 L12.02 3.4090909090909087 z"/>
<path fill="#3c3c3c" stroke="#3c3c3c" d="M10 2.5 L10 -2.5 L10 -2.5 L10 2.5 z"/>
<path fill="#3c3c3c" stroke="#3c3c3c" d="M25 2.5 L25 -2.5 L10.642857142857142 -2.5 L10.642857142857142 2.5 z"/>
<path fill="#3c3c3c" stroke="#3c3c3c" d="M10.642857142857142 2.5 L10.642857142857142 -2.5 L10 -2.5 L10 2.5 z"/>
<path fill="#3c3c3c" stroke="#3c3c3c" d="M25 2.5 L25 -2.5 L25 -2.5 L25 2.5 z"/>
<path fill="#3c3c3c" stroke="#3c3c3c" d="M10 2.5 L10 -2.5 L25 -2.5 L25 2.5 z"/>
<path fill="#3c3c3c" stroke="#3c3c3c" d="M10 2.5 L10 2.5 L25 2.5 L25 2.5 L10.642857142857142 2.5 z"/>
<path fill="#3c3c3c" stroke="#3c3c3c" d="M10 -2.5 L10 -2.5 L10.642857142857142 -2.5 L25 -2.5 L25 -2.5 z"/>
<path fill="#3c3c3c" stroke="#3c3c3c" d="M-7.169811320754716 7.40566037735849 L-2.841287458379578 9.908435072142064 L-2.841287458379578 9.908435072142064 L-7.169811320754716 7.40566037735849 z"/>
<path fill="#3c3c3c" stroke="#3c3c3c" d="M-14.678135405105438 20.391231964483904 L-10.3496115427303 22.89400665926748 L-3.1630727762803232 10.464959568733153 L-7.491596638655461 7.962184873949579 z"/>
<path fill="#3c3c3c" stroke="#3c3c3c" d="M-7.491596638655461 7.962184873949579 L-3.1630727762803232 10.464959568733153 L-2.841287458379578 9.908435072142064 L-7.169811320754716 7.40566037735849 z"/>
<path fill="#3c3c3c" stroke="#3c3c3c" d="M-14.678135405105438 20.391231964483904 L-10.3496115427303 22.89400665926748 L-10.3496115427303 22.89400665926748 L-14.678135405105438 20.391231964483904 z"/>
<path fill="#3c3c3c" stroke="#3c3c3c" d="M-7.169811320754716 7.40566037735849 L-2.841287458379578 9.908435072142064 L-10.3496115427303 22.89400665926748 L-14.678135405105438 20.391231964483904 z"/>
<path fill="#3c3c3c" stroke="#3c3c3c" d="M-7.169811320754716 7.40566037735849 L-7.169811320754716 7.40566037735849 L-14.678135405105438 20.391231964483904 L-14.678135405105438 20.391231964483904 L-7.491596638655461 7.962184873949579 z"/>
<path fill="#3c3c3c" stroke="#3c3c3c" d="M-2.841287458379578 9.908435072142064 L-2.841287458379578 9.908435072142064 L-3.1630727762803232 10.464959568733153 L-10.3496115427303 22.89400665926748 L-10.3496115427303 22.89400665926748 z"/>
<path fill="#3c3c3c" stroke="#3c3c3c" d="M-2.841287458379578 -9.908435072142064 L-7.169811320754716 -7.40566037735849 L-7.169811320754716 -7.40566037735849 L-2.841287458379578 -9.908435072142064 z"/>
<path fill="#3c3c3c" stroke="#3c3c3c" d="M-10.3496115427303 -22.89400665926748 L-14.678135405105438 -20.391231964483904 L-7.491596638655461 -7.962184873949579 L-3.1630727762803232 -10.464959568733153 z"/>
<path fill="#3c3c3c" stroke="#3c3c3c" d="M-3.1630727762803232 -10.464959568733153 L-7.491596638655461 -7.962184873949579 L-7.169811320754716 -7.40566037735849 L-2.841287458379578 -9.908435072142064 z"/>
<path fill="#3c3c3c" stroke="#3c3c3c" d="M-10.3496115427303 -22.89400665926748 L-14.678135405105438 -20.391231964483904 L-14.678135405105438 -20.391231964483904 L-10.3496115427303 -22.89400665926748 z"/>
<path fill="#3c3c3c" stroke="#3c3c3c" d="M-2.841287458379578 -9.908435072142064 L-7.169811320754716 -7.40566037735849 L-14.678135405105438 -20.391231964483904 L-10.3496115427303 -22.89400665926748 z"/>
<path fill="#3c3c3c" stroke="#3c3c3c" d="M-2.841287458379578 -9.908435072142064 L-2.841287458379578 -9.908435072142064 L-10.3496115427303 -22.89400665926748 L-10.3496115427303 -22.89400665926748 L-3.1630727762803232 -10.464959568733153 z"/>
<path fill="#3c3c3c" stroke="#3c3c3c" d="M-7.169811320754716 -7.40566037735849 L-7.169811320754716 -7.40566037735849 L-7.491596638655461 -7.962184873949579 L-14.678135405105438 -20.391231964483904 L-14.678135405105438 -20.391231964483904 z"/>
<path fill="#3c3c3c" stroke="#3c3c3c" d="M10 2.5 L10 -2.5 L10 -2.5 L10 2.5 z"/>
<path fill="#3c3c3c" stroke="#3c3c3c" d="M25 2.5 L25 -2.5 L10.642857142857142 -2.5 L10.642857142857142 2.5 z"/>
<path fill="#3c3c3c" stroke="#3c3c3c" d="M10.642857142857142 2.5 L10.642857142857142 -2.5 L10 -2.5 L10 2.5 z"/>
<path fill="#3c3c3c" stroke="#3c3c3c" d="M25 2.5 L25 -2.5 L25 -2.5 L25 2.5 z"/>
<path fill="#3c3c3c" stroke="#3c3c3c" d="M10 2.5 L10 -2.5 L25 -2.5 L25 2.5 z"/>
<path fill="#3c3c3c" stroke="#3c3c3c" d="M10 2.5 L10 2.5 L25 2.5 L25 2.5 L10.642857142857142 2.5 z"/>
<path fill="#3c3c3c" stroke="#3c3c3c" d="M10 -2.5 L10 -2.5 L10.642857142857142 -2.5 L25 -2.5 L25 -2.5 z"/>
</svg>