<?xml version="1.0" encoding="UTF-8"?>
<!-- Generated by jsxcad -->
<!DOCTYPE svg PUBLIC "-//W3C//DTD SVG 1.1 Tiny//EN" "http://www.w3.org/Graphics/SVG/1.1/DTD/svg11-tiny.dtd">
<svg baseProfile="tiny" height="50.00000000000003mm" width="10.000000000000007mm" viewBox="-5.0000000000000036 -5.0000000000000036 10.000000000000007 50.00000000000003" version="1.1" stroke="black" stroke-width=".1" fill="none" xmlns="http://www.w3.org/2000/svg">
<path fill="#000000" stroke="#000000" d="M0.6266661678215223 -44.96057350657239 L0.6266661678215223 -44.96057350657239 L0.3139525976465676 -44.99013364214135 L0.3139525976465676 -44.99013364214135 z"/>
<path fill="#000000" stroke="#000000" d="M0.3139525976465676 -44.99013364214135 L0.3139525976465676 -44.99013364214135 L3.0616169978683826e-16 -45 L3.0616169978683826e-16 -45 z"/>
<path fill="#000000" stroke="#000000" d="M1.2434494358242747 -44.84291580564315 L1.2434494358242747 -44.84291580564315 L0.9369065729286246 -44.91143625364344 L0.9369065729286246 -44.91143625364344 z"/>
<path fill="#000000" stroke="#000000" d="M0.9369065729286244 -44.91143625364344 L0.9369065729286244 -44.91143625364344 L0.6266661678215223 -44.96057350657239 L0.6266661678215223 -44.96057350657239 z"/>
<path fill="#000000" stroke="#000000" d="M1.5450849718747381 -44.75528258147576 L1.5450849718747381 -44.75528258147576 L1.2434494358242747 -44.84291580564315 L1.2434494358242747 -44.84291580564315 z"/>
<path fill="#000000" stroke="#000000" d="M2.128896457825365 -44.52413526233009 L2.128896457825365 -44.52413526233009 L1.8406227634233914 -44.64888242944125 L1.8406227634233914 -44.64888242944125 z"/>
<path fill="#000000" stroke="#000000" d="M1.8406227634233914 -44.64888242944125 L1.8406227634233914 -44.64888242944125 L1.545084971874738 -44.75528258147576 L1.545084971874738 -44.75528258147576 z"/>
<path fill="#000000" stroke="#000000" d="M2.4087683705085783 -44.38153340021931 L2.4087683705085783 -44.38153340021931 L2.128896457825365 -44.52413526233009 L2.128896457825365 -44.52413526233009 z"/>
<path fill="#000000" stroke="#000000" d="M2.679133974894985 -44.22163962751007 L2.679133974894985 -44.22163962751007 L2.4087683705085783 -44.38153340021931 L2.4087683705085783 -44.38153340021931 z"/>
<path fill="#000000" stroke="#000000" d="M2.938926261462367 -44.04508497187473 L2.938926261462367 -44.04508497187473 L2.679133974894985 -44.22163962751007 L2.679133974894985 -44.22163962751007 z"/>
<path fill="#000000" stroke="#000000" d="M3.6448431371070664 -43.42273552964343 L3.6448431371070664 -43.42273552964343 L3.422735529643449 -43.644843137107046 L3.422735529643449 -43.644843137107046 z"/>
<path fill="#000000" stroke="#000000" d="M3.1871199487434505 -43.852566213878944 L3.1871199487434505 -43.852566213878944 L2.9389262614623672 -44.04508497187473 L2.9389262614623672 -44.04508497187473 z"/>
<path fill="#000000" stroke="#000000" d="M3.4227355296434454 -43.64484313710705 L3.4227355296434454 -43.64484313710705 L3.1871199487434505 -43.852566213878944 L3.1871199487434505 -43.852566213878944 z"/>
<path fill="#000000" stroke="#000000" d="M4.381533400219319 -42.40876837050857 L4.381533400219319 -42.40876837050857 L4.221639627510078 -42.679133974894974 L4.221639627510078 -42.679133974894974 z"/>
<path fill="#000000" stroke="#000000" d="M4.221639627510077 -42.679133974894974 L4.221639627510077 -42.679133974894974 L4.045084971874743 -42.938926261462356 L4.045084971874743 -42.938926261462356 z"/>
<path fill="#000000" stroke="#000000" d="M4.045084971874742 -42.938926261462356 L4.045084971874742 -42.938926261462356 L3.8525662138789483 -43.187119948743444 L3.8525662138789483 -43.187119948743444 z"/>
<path fill="#000000" stroke="#000000" d="M4.648882429441259 -41.84062276342338 L4.648882429441259 -41.84062276342338 L4.524135262330101 -42.128896457825356 L4.524135262330101 -42.128896457825356 z"/>
<path fill="#000000" stroke="#000000" d="M4.524135262330099 -42.128896457825356 L4.524135262330099 -42.128896457825356 L4.381533400219319 -42.40876837050857 L4.381533400219319 -42.40876837050857 z"/>
<path fill="#000000" stroke="#000000" d="M4.842915805643156 -41.24344943582427 L4.842915805643156 -41.24344943582427 L4.755282581475769 -41.54508497187473 L4.755282581475769 -41.54508497187473 z"/>
<path fill="#000000" stroke="#000000" d="M4.75528258147577 -41.54508497187473 L4.75528258147577 -41.54508497187473 L4.648882429441259 -41.84062276342338 L4.648882429441259 -41.84062276342338 z"/>
<path fill="#000000" stroke="#000000" d="M4.9605735065723895 -40.62666616782151 L4.9605735065723895 -40.62666616782151 L4.911436253643444 -40.93690657292861 L4.911436253643444 -40.93690657292861 z"/>
<path fill="#000000" stroke="#000000" d="M4.911436253643444 -40.93690657292861 L4.911436253643444 -40.93690657292861 L4.842915805643156 -41.24344943582427 L4.842915805643156 -41.24344943582427 z"/>
<path fill="#000000" stroke="#000000" d="M3.8525662138789536 -43.18711994874344 L3.8525662138789536 -43.18711994874344 L3.6448431371070624 -43.42273552964343 L3.6448431371070624 -43.42273552964343 z"/>
<path fill="#000000" stroke="#000000" d="M4.990133642141358 -40.313952597646555 L4.990133642141358 -40.313952597646555 L4.9605735065723895 -40.62666616782151 L4.9605735065723895 -40.62666616782151 z"/>
<path fill="#000000" stroke="#000000" d="M5 -39.99999999999999 L5 -39.99999999999999 L4.990133642141358 -40.313952597646555 L4.990133642141358 -40.313952597646555 z"/>
<path fill="#000000" stroke="#000000" d="M4.960573506572388 -39.373333832178474 L4.960573506572388 -39.373333832178474 L4.990133642141357 -39.686047402353424 L4.990133642141357 -39.686047402353424 z"/>
<path fill="#000000" stroke="#000000" d="M4.990133642141357 -39.686047402353424 L4.990133642141357 -39.686047402353424 L4.999999999999999 -39.99999999999999 L4.999999999999999 -39.99999999999999 z"/>
<path fill="#000000" stroke="#000000" d="M4.842915805643153 -38.75655056417572 L4.842915805643153 -38.75655056417572 L4.9114362536434415 -39.063093427071365 L4.9114362536434415 -39.063093427071365 z"/>
<path fill="#000000" stroke="#000000" d="M4.911436253643442 -39.063093427071365 L4.911436253643442 -39.063093427071365 L4.960573506572388 -39.37333383217847 L4.960573506572388 -39.37333383217847 z"/>
<path fill="#000000" stroke="#000000" d="M4.221639627510073 -37.32086602510501 L4.221639627510073 -37.32086602510501 L4.381533400219316 -37.59123162949142 L4.381533400219316 -37.59123162949142 z"/>
<path fill="#000000" stroke="#000000" d="M4.7552825814757655 -38.45491502812525 L4.7552825814757655 -38.45491502812525 L4.842915805643154 -38.75655056417572 L4.842915805643154 -38.75655056417572 z"/>
<path fill="#000000" stroke="#000000" d="M4.6488824294412545 -38.1593772365766 L4.6488824294412545 -38.1593772365766 L4.7552825814757655 -38.45491502812525 L4.7552825814757655 -38.45491502812525 z"/>
<path fill="#000000" stroke="#000000" d="M4.524135262330096 -37.87110354217463 L4.524135262330096 -37.87110354217463 L4.648882429441255 -38.1593772365766 L4.648882429441255 -38.1593772365766 z"/>
<path fill="#000000" stroke="#000000" d="M4.381533400219315 -37.59123162949142 L4.381533400219315 -37.59123162949142 L4.524135262330094 -37.87110354217463 L4.524135262330094 -37.87110354217463 z"/>
<path fill="#000000" stroke="#000000" d="M4.045084971874733 -37.06107373853762 L4.045084971874733 -37.06107373853762 L4.221639627510073 -37.32086602510501 L4.221639627510073 -37.32086602510501 z"/>
<path fill="#000000" stroke="#000000" d="M3.8525662138789425 -36.81288005125654 L3.8525662138789425 -36.81288005125654 L4.045084971874733 -37.06107373853762 L4.045084971874733 -37.06107373853762 z"/>
<path fill="#000000" stroke="#000000" d="M3.422735529643441 -36.35515686289294 L3.422735529643441 -36.35515686289294 L3.644843137107056 -36.57726447035655 L3.644843137107056 -36.57726447035655 z"/>
<path fill="#000000" stroke="#000000" d="M3.6448431371070553 -36.57726447035655 L3.6448431371070553 -36.57726447035655 L3.852566213878943 -36.81288005125654 L3.852566213878943 -36.81288005125654 z"/>
<path fill="#000000" stroke="#000000" d="M3.1871199487434465 -36.14743378612105 L3.1871199487434465 -36.14743378612105 L3.4227355296434414 -36.35515686289294 L3.4227355296434414 -36.35515686289294 z"/>
<path fill="#000000" stroke="#000000" d="M1.8406227634233858 -35.351117570558735 L1.8406227634233858 -35.351117570558735 L2.12889645782536 -35.475864737669895 L2.12889645782536 -35.475864737669895 z"/>
<path fill="#000000" stroke="#000000" d="M2.12889645782536 -35.475864737669895 L2.12889645782536 -35.475864737669895 L2.4087683705085734 -35.618466599780675 L2.4087683705085734 -35.618466599780675 z"/>
<path fill="#000000" stroke="#000000" d="M2.6791339748949805 -35.77836037248992 L2.6791339748949805 -35.77836037248992 L2.9389262614623637 -35.95491502812526 L2.9389262614623637 -35.95491502812526 z"/>
<path fill="#000000" stroke="#000000" d="M2.4087683705085734 -35.618466599780675 L2.4087683705085734 -35.618466599780675 L2.6791339748949805 -35.77836037248992 L2.6791339748949805 -35.77836037248992 z"/>
<path fill="#000000" stroke="#000000" d="M2.9389262614623632 -35.95491502812526 L2.9389262614623632 -35.95491502812526 L3.1871199487434465 -36.14743378612105 L3.1871199487434465 -36.14743378612105 z"/>
<path fill="#000000" stroke="#000000" d="M1.2434494358242703 -35.15708419435684 L1.2434494358242703 -35.15708419435684 L1.545084971874734 -35.244717418524225 L1.545084971874734 -35.244717418524225 z"/>
<path fill="#000000" stroke="#000000" d="M1.5450849718747337 -35.244717418524225 L1.5450849718747337 -35.244717418524225 L1.8406227634233858 -35.351117570558735 L1.8406227634233858 -35.351117570558735 z"/>
<path fill="#000000" stroke="#000000" d="M0.6266661678215167 -35.039426493427605 L0.6266661678215167 -35.039426493427605 L0.9369065729286191 -35.08856374635655 L0.9369065729286191 -35.08856374635655 z"/>
<path fill="#000000" stroke="#000000" d="M0.9369065729286191 -35.08856374635655 L0.9369065729286191 -35.08856374635655 L1.2434494358242703 -35.15708419435684 L1.2434494358242703 -35.15708419435684 z"/>
<path fill="#000000" stroke="#000000" d="M0.313952597646562 -35.00986635785864 L0.313952597646562 -35.00986635785864 L0.6266661678215167 -35.039426493427605 L0.6266661678215167 -35.039426493427605 z"/>
<path fill="#000000" stroke="#000000" d="M-0.3139525976465725 -35.00986635785864 L-0.3139525976465725 -35.00986635785864 L-5.244953423338944e-15 -34.99999999999999 L-5.244953423338944e-15 -34.99999999999999 z"/>
<path fill="#000000" stroke="#000000" d="M-5.244953423338944e-15 -35 L-5.244953423338944e-15 -35 L0.313952597646562 -35.00986635785864 L0.313952597646562 -35.00986635785864 z"/>
<path fill="#000000" stroke="#000000" d="M-0.6266661678215261 -35.039426493427605 L-0.6266661678215261 -35.039426493427605 L-0.3139525976465725 -35.00986635785864 L-0.3139525976465725 -35.00986635785864 z"/>
<path fill="#000000" stroke="#000000" d="M-0.9369065729286284 -35.088563746356556 L-0.9369065729286284 -35.088563746356556 L-0.6266661678215261 -35.039426493427605 L-0.6266661678215261 -35.039426493427605 z"/>
<path fill="#000000" stroke="#000000" d="M-1.2434494358242794 -35.15708419435684 L-1.2434494358242794 -35.15708419435684 L-0.9369065729286284 -35.088563746356556 L-0.9369065729286284 -35.088563746356556 z"/>
<path fill="#000000" stroke="#000000" d="M-1.8406227634233956 -35.35111757055874 L-1.8406227634233956 -35.35111757055874 L-1.5450849718747428 -35.24471741852423 L-1.5450849718747428 -35.24471741852423 z"/>
<path fill="#000000" stroke="#000000" d="M-1.5450849718747428 -35.24471741852423 L-1.5450849718747428 -35.24471741852423 L-1.2434494358242794 -35.15708419435684 L-1.2434494358242794 -35.15708419435684 z"/>
<path fill="#000000" stroke="#000000" d="M-2.1288964578253693 -35.4758647376699 L-2.1288964578253693 -35.4758647376699 L-1.8406227634233958 -35.35111757055874 L-1.8406227634233958 -35.35111757055874 z"/>
<path fill="#000000" stroke="#000000" d="M-2.9389262614623717 -35.954915028125264 L-2.9389262614623717 -35.954915028125264 L-2.679133974894989 -35.77836037248993 L-2.679133974894989 -35.77836037248993 z"/>
<path fill="#000000" stroke="#000000" d="M-2.4087683705085827 -35.61846659978068 L-2.4087683705085827 -35.61846659978068 L-2.1288964578253693 -35.4758647376699 L-2.1288964578253693 -35.4758647376699 z"/>
<path fill="#000000" stroke="#000000" d="M-2.6791339748949894 -35.77836037248993 L-2.6791339748949894 -35.77836037248993 L-2.4087683705085827 -35.61846659978068 L-2.4087683705085827 -35.61846659978068 z"/>
<path fill="#000000" stroke="#000000" d="M-3.422735529643448 -36.35515686289294 L-3.422735529643448 -36.35515686289294 L-3.187119948743455 -36.147433786121056 L-3.187119948743455 -36.147433786121056 z"/>
<path fill="#000000" stroke="#000000" d="M-3.187119948743455 -36.147433786121056 L-3.187119948743455 -36.147433786121056 L-2.9389262614623712 -35.954915028125264 L-2.9389262614623712 -35.954915028125264 z"/>
<path fill="#000000" stroke="#000000" d="M-3.8525662138789487 -36.81288005125655 L-3.8525662138789487 -36.81288005125655 L-3.6448431371070606 -36.57726447035655 L-3.6448431371070606 -36.57726447035655 z"/>
<path fill="#000000" stroke="#000000" d="M-4.221639627510078 -37.32086602510502 L-4.221639627510078 -37.32086602510502 L-4.045084971874742 -37.06107373853764 L-4.045084971874742 -37.06107373853764 z"/>
<path fill="#000000" stroke="#000000" d="M-4.04508497187474 -37.06107373853764 L-4.04508497187474 -37.06107373853764 L-3.852566213878949 -36.81288005125655 L-3.852566213878949 -36.81288005125655 z"/>
<path fill="#000000" stroke="#000000" d="M-4.64888242944126 -38.15937723657662 L-4.64888242944126 -38.15937723657662 L-4.524135262330101 -37.871103542174644 L-4.524135262330101 -37.871103542174644 z"/>
<path fill="#000000" stroke="#000000" d="M-4.38153340021932 -37.591231629491425 L-4.38153340021932 -37.591231629491425 L-4.221639627510077 -37.32086602510502 L-4.221639627510077 -37.32086602510502 z"/>
<path fill="#000000" stroke="#000000" d="M-4.524135262330099 -37.87110354217464 L-4.524135262330099 -37.87110354217464 L-4.381533400219321 -37.591231629491425 L-4.381533400219321 -37.591231629491425 z"/>
<path fill="#000000" stroke="#000000" d="M-4.755282581475769 -38.454915028125264 L-4.755282581475769 -38.454915028125264 L-4.648882429441259 -38.15937723657661 L-4.648882429441259 -38.15937723657661 z"/>
<path fill="#000000" stroke="#000000" d="M-4.911436253643443 -39.06309342707138 L-4.911436253643443 -39.06309342707138 L-4.842915805643156 -38.756550564175726 L-4.842915805643156 -38.756550564175726 z"/>
<path fill="#000000" stroke="#000000" d="M-4.842915805643157 -38.75655056417573 L-4.842915805643157 -38.75655056417573 L-4.755282581475769 -38.454915028125264 L-4.755282581475769 -38.454915028125264 z"/>
<path fill="#000000" stroke="#000000" d="M-3.6448431371070598 -36.57726447035655 L-3.6448431371070598 -36.57726447035655 L-3.4227355296434423 -36.35515686289294 L-3.4227355296434423 -36.35515686289294 z"/>
<path fill="#000000" stroke="#000000" d="M-4.990133642141357 -39.68604740235344 L-4.990133642141357 -39.68604740235344 L-4.9605735065723895 -39.37333383217848 L-4.9605735065723895 -39.37333383217848 z"/>
<path fill="#000000" stroke="#000000" d="M-4.9605735065723895 -39.37333383217849 L-4.9605735065723895 -39.37333383217849 L-4.911436253643444 -39.06309342707139 L-4.911436253643444 -39.06309342707139 z"/>
<path fill="#000000" stroke="#000000" d="M-4.960573506572388 -40.626666167821526 L-4.960573506572388 -40.626666167821526 L-4.990133642141357 -40.31395259764657 L-4.990133642141357 -40.31395259764657 z"/>
<path fill="#000000" stroke="#000000" d="M-4.755282581475765 -41.54508497187474 L-4.755282581475765 -41.54508497187474 L-4.842915805643154 -41.24344943582428 L-4.842915805643154 -41.24344943582428 z"/>
<path fill="#000000" stroke="#000000" d="M-4.842915805643154 -41.243449435824274 L-4.842915805643154 -41.243449435824274 L-4.9114362536434415 -40.93690657292863 L-4.9114362536434415 -40.93690657292863 z"/>
<path fill="#000000" stroke="#000000" d="M-4.648882429441253 -41.8406227634234 L-4.648882429441253 -41.8406227634234 L-4.7552825814757655 -41.545084971874736 L-4.7552825814757655 -41.545084971874736 z"/>
<path fill="#000000" stroke="#000000" d="M-4.9114362536434415 -40.93690657292863 L-4.9114362536434415 -40.93690657292863 L-4.960573506572388 -40.626666167821526 L-4.960573506572388 -40.626666167821526 z"/>
<path fill="#000000" stroke="#000000" d="M-4.381533400219313 -42.40876837050858 L-4.381533400219313 -42.40876837050858 L-4.524135262330093 -42.12889645782537 L-4.524135262330093 -42.12889645782537 z"/>
<path fill="#000000" stroke="#000000" d="M-4.524135262330094 -42.12889645782537 L-4.524135262330094 -42.12889645782537 L-4.648882429441253 -41.8406227634234 L-4.648882429441253 -41.8406227634234 z"/>
<path fill="#000000" stroke="#000000" d="M-4.0450849718747355 -42.93892626146236 L-4.0450849718747355 -42.93892626146236 L-4.22163962751007 -42.67913397489499 L-4.22163962751007 -42.67913397489499 z"/>
<path fill="#000000" stroke="#000000" d="M-4.221639627510069 -42.67913397489499 L-4.221639627510069 -42.67913397489499 L-4.381533400219313 -42.40876837050858 L-4.381533400219313 -42.40876837050858 z"/>
<path fill="#000000" stroke="#000000" d="M-4.999999999999999 -40 L-4.999999999999999 -40 L-4.990133642141357 -39.68604740235344 L-4.990133642141357 -39.68604740235344 z"/>
<path fill="#000000" stroke="#000000" d="M-4.990133642141357 -40.31395259764657 L-4.990133642141357 -40.31395259764657 L-5 -40.00000000000001 L-5 -40.00000000000001 z"/>
<path fill="#000000" stroke="#000000" d="M-3.6448431371070527 -43.42273552964345 L-3.6448431371070527 -43.42273552964345 L-3.852566213878938 -43.18711994874346 L-3.852566213878938 -43.18711994874346 z"/>
<path fill="#000000" stroke="#000000" d="M-3.852566213878941 -43.18711994874345 L-3.852566213878941 -43.18711994874345 L-4.045084971874735 -42.93892626146236 L-4.045084971874735 -42.93892626146236 z"/>
<path fill="#000000" stroke="#000000" d="M-3.187119948743437 -43.85256621387895 L-3.187119948743437 -43.85256621387895 L-3.4227355296434325 -43.64484313710707 L-3.4227355296434325 -43.64484313710707 z"/>
<path fill="#000000" stroke="#000000" d="M-3.4227355296434325 -43.64484313710707 L-3.4227355296434325 -43.64484313710707 L-3.6448431371070478 -43.42273552964345 L-3.6448431371070478 -43.42273552964345 z"/>
<path fill="#000000" stroke="#000000" d="M-2.408768370508564 -44.38153340021932 L-2.408768370508564 -44.38153340021932 L-2.67913397489497 -44.22163962751008 L-2.67913397489497 -44.22163962751008 z"/>
<path fill="#000000" stroke="#000000" d="M-2.9389262614623552 -44.04508497187474 L-2.9389262614623552 -44.04508497187474 L-3.187119948743437 -43.85256621387895 L-3.187119948743437 -43.85256621387895 z"/>
<path fill="#000000" stroke="#000000" d="M-2.67913397489497 -44.22163962751008 L-2.67913397489497 -44.22163962751008 L-2.9389262614623552 -44.04508497187474 L-2.9389262614623552 -44.04508497187474 z"/>
<path fill="#000000" stroke="#000000" d="M-2.1288964578253484 -44.5241352623301 L-2.1288964578253484 -44.5241352623301 L-2.408768370508564 -44.38153340021932 L-2.408768370508564 -44.38153340021932 z"/>
<path fill="#000000" stroke="#000000" d="M-1.8406227634233763 -44.64888242944126 L-1.8406227634233763 -44.64888242944126 L-2.1288964578253484 -44.5241352623301 L-2.1288964578253484 -44.5241352623301 z"/>
<path fill="#000000" stroke="#000000" d="M-1.2434494358242592 -44.84291580564316 L-1.2434494358242592 -44.84291580564316 L-1.545084971874721 -44.75528258147577 L-1.545084971874721 -44.75528258147577 z"/>
<path fill="#000000" stroke="#000000" d="M-1.5450849718747208 -44.75528258147577 L-1.5450849718747208 -44.75528258147577 L-1.8406227634233763 -44.64888242944126 L-1.8406227634233763 -44.64888242944126 z"/>
<path fill="#000000" stroke="#000000" d="M-0.6266661678215052 -44.96057350657239 L-0.6266661678215052 -44.96057350657239 L-0.9369065729286056 -44.911436253643444 L-0.9369065729286056 -44.911436253643444 z"/>
<path fill="#000000" stroke="#000000" d="M-0.9369065729286056 -44.911436253643444 L-0.9369065729286056 -44.911436253643444 L-1.2434494358242592 -44.84291580564316 L-1.2434494358242592 -44.84291580564316 z"/>
<path fill="#000000" stroke="#000000" d="M-0.31395259764655264 -44.99013364214136 L-0.31395259764655264 -44.99013364214136 L-0.6266661678215052 -44.96057350657239 L-0.6266661678215052 -44.96057350657239 z"/>
<path fill="#000000" stroke="#000000" d="M3.0616169978683826e-16 -44.99999999999999 L3.0616169978683826e-16 -44.99999999999999 L-0.31395259764655264 -44.99013364214136 L-0.31395259764655264 -44.99013364214136 z"/>
<path fill="#000000" stroke="#000000" d="M0.6266661678215224 -44.96057350657238 L0.31395259764656763 -44.99013364214135 L3.061616997868383e-16 -44.99999999999999 L-0.3139525976465527 -44.99013364214135 L-0.6266661678215053 -44.96057350657238 L-0.9369065729286057 -44.911436253643444 L-1.2434494358242594 -44.84291580564315 L-1.5450849718747213 -44.75528258147577 L-1.8406227634233765 -44.64888242944126 L-2.128896457825349 -44.5241352623301 L-2.4087683705085645 -44.38153340021932 L-2.6791339748949703 -44.22163962751008 L-2.9389262614623557 -44.045084971874736 L-3.1871199487434376 -43.85256621387895 L-3.422735529643433 -43.64484313710707 L-3.644843137107048 -43.42273552964345 L-3.852566213878938 -43.18711994874345 L-4.045084971874729 -42.93892626146237 L-4.2216396275100685 -42.67913397489499 L-4.381533400219312 -42.40876837050858 L-4.524135262330093 -42.12889645782536 L-4.648882429441253 -41.84062276342339 L-4.755282581475765 -41.54508497187474 L-4.842915805643154 -41.243449435824274 L-4.9114362536434415 -40.93690657292863 L-4.960573506572388 -40.626666167821526 L-4.990133642141357 -40.313952597646576 L-5 -40.00000000000001 L-4.990133642141358 -39.68604740235344 L-4.96057350657239 -39.37333383217848 L-4.911436253643445 -39.06309342707138 L-4.842915805643158 -38.756550564175726 L-4.755282581475771 -38.45491502812527 L-4.648882429441261 -38.15937723657661 L-4.524135262330102 -37.87110354217464 L-4.381533400219323 -37.591231629491425 L-4.22163962751008 -37.32086602510502 L-4.045084971874743 -37.06107373853764 L-3.8525662138789514 -36.81288005125655 L-3.644843137107063 -36.57726447035656 L-3.4227355296434485 -36.35515686289294 L-3.1871199487434554 -36.147433786121056 L-2.938926261462372 -35.954915028125264 L-2.67913397489499 -35.77836037248992 L-2.408768370508583 -35.618466599780675 L-2.1288964578253697 -35.4758647376699 L-1.840622763423396 -35.35111757055874 L-1.545084971874743 -35.24471741852423 L-1.2434494358242796 -35.15708419435684 L-0.9369065729286286 -35.08856374635655 L-0.6266661678215262 -35.039426493427605 L-0.3139525976465726 -35.00986635785864 L-5.244953423338945e-15 -34.99999999999999 L0.3139525976465621 -35.009866357858634 L0.6266661678215169 -35.039426493427605 L0.9369065729286192 -35.08856374635655 L1.2434494358242705 -35.157084194356834 L1.5450849718747341 -35.244717418524225 L1.8406227634233863 -35.351117570558735 L2.1288964578253604 -35.475864737669895 L2.408768370508574 -35.618466599780675 L2.679133974894981 -35.778360372489914 L2.938926261462364 -35.95491502812526 L3.187119948743447 -36.14743378612105 L3.422735529643442 -36.35515686289293 L3.6448431371070567 -36.57726447035655 L3.852566213878945 -36.81288005125654 L4.045084971874736 -37.06107373853762 L4.221639627510074 -37.320866025105005 L4.3815334002193165 -37.59123162949141 L4.5241352623300966 -37.87110354217462 L4.648882429441256 -38.1593772365766 L4.755282581475767 -38.45491502812526 L4.8429158056431545 -38.75655056417572 L4.911436253643443 -39.06309342707137 L4.960573506572389 -39.373333832178474 L4.990133642141358 -39.686047402353424 L5 -39.99999999999999 L4.990133642141358 -40.313952597646555 L4.9605735065723895 -40.62666616782151 L4.911436253643444 -40.93690657292861 L4.842915805643156 -41.24344943582427 L4.755282581475769 -41.54508497187473 L4.648882429441258 -41.84062276342338 L4.524135262330099 -42.128896457825356 L4.381533400219319 -42.40876837050857 L4.221639627510077 -42.679133974894974 L4.045084971874739 -42.938926261462356 L3.852566213878948 -43.187119948743444 L3.6448431371070598 -43.42273552964343 L3.422735529643446 -43.644843137107046 L3.187119948743451 -43.85256621387894 L2.9389262614623677 -44.04508497187473 L2.6791339748949854 -44.221639627510065 L2.4087683705085787 -44.38153340021931 L2.1288964578253653 -44.52413526233009 L1.8406227634233916 -44.64888242944125 L1.5450849718747384 -44.75528258147576 L1.243449435824275 -44.84291580564315 L0.9369065729286247 -44.91143625364344 z"/>
<path fill="#000000" stroke="#000000" d="M3.061616997868383e-16 -44.99999999999999 L0.31395259764656763 -44.99013364214135 L0.6266661678215224 -44.96057350657238 L0.9369065729286247 -44.91143625364344 L1.243449435824275 -44.84291580564315 L1.5450849718747384 -44.75528258147576 L1.8406227634233916 -44.64888242944125 L2.1288964578253653 -44.52413526233009 L2.4087683705085787 -44.38153340021931 L2.6791339748949854 -44.221639627510065 L2.9389262614623677 -44.04508497187473 L3.187119948743451 -43.85256621387894 L3.422735529643446 -43.644843137107046 L3.6448431371070598 -43.42273552964343 L3.852566213878948 -43.187119948743444 L4.045084971874739 -42.938926261462356 L4.221639627510077 -42.679133974894974 L4.381533400219319 -42.40876837050857 L4.524135262330099 -42.128896457825356 L4.648882429441258 -41.84062276342338 L4.755282581475769 -41.54508497187473 L4.842915805643156 -41.24344943582427 L4.911436253643444 -40.93690657292861 L4.9605735065723895 -40.62666616782151 L4.990133642141358 -40.313952597646555 L5 -39.99999999999999 L4.990133642141358 -39.686047402353424 L4.960573506572389 -39.373333832178474 L4.911436253643443 -39.06309342707137 L4.8429158056431545 -38.75655056417572 L4.755282581475767 -38.45491502812526 L4.648882429441256 -38.1593772365766 L4.5241352623300966 -37.87110354217462 L4.3815334002193165 -37.59123162949141 L4.221639627510074 -37.320866025105005 L4.045084971874736 -37.06107373853762 L3.852566213878945 -36.81288005125654 L3.6448431371070567 -36.57726447035655 L3.422735529643442 -36.35515686289293 L3.187119948743447 -36.14743378612105 L2.938926261462364 -35.95491502812526 L2.679133974894981 -35.778360372489914 L2.408768370508574 -35.618466599780675 L2.1288964578253604 -35.475864737669895 L1.8406227634233863 -35.351117570558735 L1.5450849718747341 -35.244717418524225 L1.2434494358242705 -35.157084194356834 L0.9369065729286192 -35.08856374635655 L0.6266661678215169 -35.039426493427605 L0.3139525976465621 -35.009866357858634 L-5.244953423338945e-15 -34.99999999999999 L-0.3139525976465726 -35.00986635785864 L-0.6266661678215262 -35.039426493427605 L-0.9369065729286286 -35.08856374635655 L-1.2434494358242796 -35.15708419435684 L-1.545084971874743 -35.24471741852423 L-1.840622763423396 -35.35111757055874 L-2.1288964578253697 -35.4758647376699 L-2.408768370508583 -35.618466599780675 L-2.67913397489499 -35.77836037248992 L-2.938926261462372 -35.954915028125264 L-3.1871199487434554 -36.147433786121056 L-3.4227355296434485 -36.35515686289294 L-3.644843137107063 -36.57726447035656 L-3.8525662138789514 -36.81288005125655 L-4.045084971874743 -37.06107373853764 L-4.22163962751008 -37.32086602510502 L-4.381533400219323 -37.591231629491425 L-4.524135262330102 -37.87110354217464 L-4.648882429441261 -38.15937723657661 L-4.755282581475771 -38.45491502812527 L-4.842915805643158 -38.756550564175726 L-4.911436253643445 -39.06309342707138 L-4.96057350657239 -39.37333383217848 L-4.990133642141358 -39.68604740235344 L-5 -40.00000000000001 L-4.990133642141357 -40.313952597646576 L-4.960573506572388 -40.626666167821526 L-4.9114362536434415 -40.93690657292863 L-4.842915805643154 -41.243449435824274 L-4.755282581475765 -41.54508497187474 L-4.648882429441253 -41.84062276342339 L-4.524135262330093 -42.12889645782536 L-4.381533400219312 -42.40876837050858 L-4.2216396275100685 -42.67913397489499 L-4.045084971874729 -42.93892626146237 L-3.852566213878938 -43.18711994874345 L-3.644843137107048 -43.42273552964345 L-3.422735529643433 -43.64484313710707 L-3.1871199487434376 -43.85256621387895 L-2.9389262614623557 -44.045084971874736 L-2.6791339748949703 -44.22163962751008 L-2.4087683705085645 -44.38153340021932 L-2.128896457825349 -44.5241352623301 L-1.8406227634233765 -44.64888242944126 L-1.5450849718747213 -44.75528258147577 L-1.2434494358242594 -44.84291580564315 L-0.9369065729286057 -44.911436253643444 L-0.6266661678215053 -44.96057350657238 L-0.3139525976465527 -44.99013364214135 z"/>
<path fill="#000000" stroke="#000000" d="M-5 -5 L-5 -5 L-5 5 L-5 5 z"/>
<path fill="#000000" stroke="#000000" d="M-5 5 L-5 5 L5 5 L5 5 z"/>
<path fill="#000000" stroke="#000000" d="M5 -5 L5 -5 L-5 -5 L-5 -5 z"/>
<path fill="#000000" stroke="#000000" d="M5 5 L5 5 L5 -5 L5 -5 z"/>
<path fill="#000000" stroke="#000000" d="M-5 -4.999999999999999 L-5 4.999999999999999 L5 4.999999999999999 L5 -4.999999999999999 z"/>
<path fill="#000000" stroke="#000000" d="M5 4.999999999999999 L-5 4.999999999999999 L-5 -4.999999999999999 L5 -4.999999999999999 z"/>
</svg>