<?xml version="1.0" encoding="UTF-8"?>
<!-- Generated by jsxcad -->
<!DOCTYPE svg PUBLIC "-//W3C//DTD SVG 1.1 Tiny//EN" "http://www.w3.org/Graphics/SVG/1.1/DTD/svg11-tiny.dtd">
<svg baseProfile="tiny" height="127.00593031744206mm" width="45.788013318534986mm" viewBox="-22.894006659267493 -75.98544200747058 45.788013318534986 127.00593031744206" version="1.1" stroke="black" stroke-width=".1" fill="none" xmlns="http://www.w3.org/2000/svg">
<path fill="#3c3c3c" stroke="#3c3c3c" d="M12.287163746048773 -17.285195608098338 L12.287163746048773 53.374702869059014 L12.5 55 L12.5 -15.65989847715735 z"/>
<path fill="#3c3c3c" stroke="#3c3c3c" d="M11.655902867554452 -18.85514519457417 L11.655902867554449 51.80475328258318 L12.287163746048774 53.374702869059014 L12.287163746048778 -17.285195608098334 z"/>
<path fill="#3c3c3c" stroke="#3c3c3c" d="M10.627714196620186 -20.316284486364427 L10.627714196620184 50.34361399079293 L11.65590286755445 51.80475328258318 L11.655902867554454 -18.855145194574174 z"/>
<path fill="#3c3c3c" stroke="#3c3c3c" d="M9.237611465258244 -21.618856137330575 L9.237611465258238 49.041042339826774 L10.627714196620184 50.34361399079293 L10.62771419662019 -20.31628448636442 z"/>
<path fill="#3c3c3c" stroke="#3c3c3c" d="M7.532932954740713 -22.71850263216151 L7.5329329547407236 47.94139584499584 L9.237611465258244 49.041042339826774 L9.237611465258249 -21.61885613733059 z"/>
<path fill="#3c3c3c" stroke="#3c3c3c" d="M5.5717294472067245 -23.57777682835635 L5.5717294472067245 47.082121648801014 L7.532932954740702 47.941395844995824 L7.532932954740702 -22.71850263216153 z"/>
<path fill="#3c3c3c" stroke="#3c3c3c" d="M3.420787375901032 -24.167417173749442 L3.420787375901032 46.49248130340792 L5.5717294472067245 47.08212164880103 L5.5717294472067245 -23.57777682835634 z"/>
<path fill="#3c3c3c" stroke="#3c3c3c" d="M1.1533544932912716 -24.467344173574116 L1.1533544932912716 46.192554303583236 L3.4207873759010323 46.49248130340791 L3.4207873759010323 -24.167417173749442 z"/>
<path fill="#3c3c3c" stroke="#3c3c3c" d="M-1.1533544932912778 -24.467344173574094 L-1.1533544932912778 46.192554303583215 L1.1533544932912718 46.192554303583215 L1.1533544932912718 -24.467344173574094 z"/>
<path fill="#3c3c3c" stroke="#3c3c3c" d="M-3.420787375901037 -24.167417173749453 L-3.420787375901037 46.49248130340788 L-1.1533544932912776 46.1925543035832 L-1.1533544932912776 -24.467344173574123 z"/>
<path fill="#3c3c3c" stroke="#3c3c3c" d="M-5.571729447206731 -23.577776828356328 L-5.571729447206731 47.082121648801035 L-3.420787375901037 46.49248130340793 L-3.420787375901037 -24.16741717374943 z"/>
<path fill="#3c3c3c" stroke="#3c3c3c" d="M-7.532932954740706 -22.718502632161503 L-7.532932954740706 47.94139584499585 L-5.571729447206731 47.082121648801035 L-5.571729447206731 -23.57777682835632 z"/>
<path fill="#3c3c3c" stroke="#3c3c3c" d="M-9.237611465258254 -21.618856137330575 L-9.237611465258247 49.041042339826774 L-7.532932954740732 47.941395844995846 L-7.5329329547407164 -22.718502632161496 z"/>
<path fill="#3c3c3c" stroke="#3c3c3c" d="M-10.627714196620184 -20.316284486364417 L-10.627714196620184 50.34361399079294 L-9.237611465258254 49.041042339826774 L-9.237611465258258 -21.618856137330578 z"/>
<path fill="#3c3c3c" stroke="#3c3c3c" d="M-11.655902867554458 -18.85514519457417 L-11.65590286755446 51.80475328258318 L-10.627714196620184 50.34361399079294 L-10.62771419662018 -20.316284486364417 z"/>
<path fill="#3c3c3c" stroke="#3c3c3c" d="M-12.287163746048774 -17.28519560809833 L-12.287163746048776 53.37470286905902 L-11.65590286755445 51.804753282583185 L-11.655902867554449 -18.855145194574167 z"/>
<path fill="#3c3c3c" stroke="#3c3c3c" d="M-12.5 -15.659898477157348 L-12.5 55.00000000000001 L-12.287163746048776 53.37470286905902 L-12.287163746048776 -17.285195608098327 z"/>
<path fill="#3c3c3c" stroke="#3c3c3c" d="M-12.287163746048767 -14.034601346216366 L-12.287163746048767 56.625297130940986 L-12.5 55 L-12.499999999999996 -15.659898477157347 z"/>
<path fill="#3c3c3c" stroke="#3c3c3c" d="M-11.65590286755444 -12.464651759740526 L-11.65590286755444 58.19524671741683 L-12.287163746048767 56.625297130940986 L-12.287163746048765 -14.034601346216366 z"/>
<path fill="#3c3c3c" stroke="#3c3c3c" d="M-10.627714196620163 -11.003512467950282 L-10.62771419662017 59.656386009207075 L-11.655902867554436 58.19524671741683 L-11.65590286755444 -12.464651759740521 z"/>
<path fill="#3c3c3c" stroke="#3c3c3c" d="M-9.23761146525822 -9.700940816984117 L-9.237611465258233 60.95895766017323 L-10.627714196620161 59.656386009207075 L-10.627714196620166 -11.003512467950273 z"/>
<path fill="#3c3c3c" stroke="#3c3c3c" d="M-7.532932954740698 -8.601294322153198 L-7.532932954740671 62.05860415500413 L-9.237611465258224 60.958957660173226 L-9.237611465258219 -9.70094081698413 z"/>
<path fill="#3c3c3c" stroke="#3c3c3c" d="M-5.571729447206723 -7.74202012595839 L-5.571729447206723 62.91787835119894 L-7.5329329547407005 62.05860415500412 L-7.5329329547407005 -8.601294322153205 z"/>
<path fill="#3c3c3c" stroke="#3c3c3c" d="M-3.420787375901027 -7.152379780565307 L-3.420787375901027 63.50751869659206 L-5.571729447206724 62.91787835119895 L-5.571729447206724 -7.742020125958411 z"/>
<path fill="#3c3c3c" stroke="#3c3c3c" d="M-1.1533544932912674 -6.852452780740622 L-1.1533544932912674 63.80744569641671 L-3.4207873759010274 63.50751869659204 L-3.4207873759010274 -7.152379780565292 z"/>
<path fill="#3c3c3c" stroke="#3c3c3c" d="M1.1533544932912758 -6.85245278074063 L1.1533544932912758 63.80744569641671 L-1.1533544932912676 63.80744569641671 L-1.1533544932912676 -6.85245278074063 z"/>
<path fill="#3c3c3c" stroke="#3c3c3c" d="M3.4207873759010403 -7.152379780565313 L3.4207873759010403 63.50751869659205 L1.1533544932912756 63.80744569641673 L1.1533544932912756 -6.852452780740639 z"/>
<path fill="#3c3c3c" stroke="#3c3c3c" d="M5.571729447206732 -7.742020125958407 L5.571729447206732 62.917878351198965 L3.4207873759010403 63.507518696592065 L3.4207873759010403 -7.152379780565306 z"/>
<path fill="#3c3c3c" stroke="#3c3c3c" d="M7.532932954740707 -8.601294322153207 L7.532932954740707 62.05860415500415 L5.571729447206732 62.917878351198965 L5.571729447206732 -7.74202012595839 z"/>
<path fill="#3c3c3c" stroke="#3c3c3c" d="M11.655902867554438 -12.464651759740535 L11.655902867554442 58.195246717416815 L10.627714196620175 59.65638600920706 L10.627714196620172 -11.003512467950289 z"/>
<path fill="#3c3c3c" stroke="#3c3c3c" d="M9.237611465258214 -9.700940816984122 L9.237611465258228 60.958957660173226 L7.532932954740676 62.05860415500413 L7.532932954740693 -8.601294322153189 z"/>
<path fill="#3c3c3c" stroke="#3c3c3c" d="M10.627714196620174 -11.003512467950282 L10.627714196620175 59.65638600920707 L9.237611465258228 60.958957660173226 L9.237611465258224 -9.70094081698412 z"/>
<path fill="#3c3c3c" stroke="#3c3c3c" d="M12.287163746048765 -14.034601346216373 L12.28716374604877 56.62529713094098 L11.65590286755445 58.195246717416815 L11.655902867554444 -12.464651759740537 z"/>
<path fill="#3c3c3c" stroke="#3c3c3c" d="M12.499999999999996 -15.659898477157352 L12.499999999999998 55 L12.287163746048773 56.625297130940986 L12.287163746048773 -14.034601346216371 z"/>
<path fill="#3c3c3c" stroke="#3c3c3c" d="M12.287163746048773 -17.285195608098338 L12.5 -15.659898477157352 L12.287163746048774 -14.034601346216371 L11.655902867554452 -12.464651759740535 L10.62771419662018 -11.003512467950287 L9.23761146525824 -9.700940816984124 L7.532932954740708 -8.601294322153205 L5.5717294472067325 -7.742020125958388 L3.4207873759010408 -7.152379780565287 L1.1533544932912758 -6.852452780740613 L-1.1533544932912676 -6.852452780740613 L-3.420787375901028 -7.1523797805652825 L-5.5717294472067245 -7.742020125958386 L-7.532932954740701 -8.601294322153201 L-9.237611465258235 -9.70094081698412 L-10.627714196620174 -11.00351246795028 L-11.655902867554445 -12.464651759740525 L-12.28716374604877 -14.034601346216364 L-12.5 -15.659898477157347 L-12.287163746048774 -17.28519560809833 L-11.655902867554449 -18.85514519457417 L-10.62771419662018 -20.316284486364413 L-9.237611465258242 -21.618856137330578 L-7.532932954740708 -22.718502632161496 L-5.571729447206732 -23.577776828356313 L-3.420787375901038 -24.167417173749417 L-1.1533544932912778 -24.467344173574087 L1.1533544932912718 -24.467344173574087 L3.4207873759010328 -24.167417173749417 L5.571729447206725 -23.577776828356313 L7.532932954740704 -22.7185026321615 L9.237611465258237 -21.618856137330578 L10.627714196620175 -20.31628448636442 L11.655902867554447 -18.855145194574174 z"/>
<path fill="#3c3c3c" stroke="#3c3c3c" d="M12.287163746048773 53.374702869059014 L11.655902867554447 51.80475328258317 L10.627714196620175 50.34361399079293 L9.237611465258237 49.04104233982677 L7.532932954740704 47.94139584499585 L5.571729447206725 47.082121648801035 L3.4207873759010328 46.492481303407935 L1.1533544932912718 46.19255430358326 L-1.1533544932912778 46.19255430358326 L-3.420787375901038 46.492481303407935 L-5.571729447206732 47.082121648801035 L-7.532932954740708 47.94139584499585 L-9.237611465258242 49.041042339826774 L-10.62771419662018 50.34361399079293 L-11.655902867554449 51.804753282583185 L-12.287163746048774 53.374702869059014 L-12.5 55 L-12.28716374604877 56.625297130940986 L-11.655902867554445 58.19524671741683 L-10.627714196620174 59.65638600920707 L-9.237611465258235 60.95895766017323 L-7.532932954740701 62.05860415500415 L-5.5717294472067245 62.917878351198965 L-3.420787375901028 63.507518696592065 L-1.1533544932912676 63.80744569641674 L1.1533544932912758 63.80744569641674 L3.4207873759010408 63.507518696592065 L5.5717294472067325 62.917878351198965 L7.532932954740708 62.05860415500415 L9.23761146525824 60.958957660173226 L10.62771419662018 59.65638600920707 L11.655902867554452 58.195246717416815 L12.287163746048774 56.62529713094098 L12.5 55 z"/>
<path fill="#3c3c3c" stroke="#3c3c3c" d="M-0.025000000000000015 -50.95920712150061 L0.024999999999999967 -50.95920712150061 L-1.1533544932912674 -6.852452780740612 z"/>
<path fill="#3c3c3c" stroke="#3c3c3c" d="M-0.05000000000000763 -50.98984771573602 L-11.655902867554452 -18.855145194574167 L-10.627714196620182 -20.316284486364417 z"/>
<path fill="#3c3c3c" stroke="#3c3c3c" d="M-0.024999999999977318 -50.95920712150061 L-9.237611465258208 -9.70094081698412 L-10.627714196620147 -11.003512467950278 z"/>
<path fill="#3c3c3c" stroke="#3c3c3c" d="M-0.025000000000000015 -50.95920712150061 L-1.1533544932912674 -6.852452780740612 L-3.420787375901027 -7.1523797805652825 z"/>
<path fill="#3c3c3c" stroke="#3c3c3c" d="M0.025000000000000147 -51.02048830997147 L5.571729447206731 -23.577776828356335 L7.5329329547407005 -22.71850263216151 z"/>
<path fill="#3c3c3c" stroke="#3c3c3c" d="M10.627714196620175 -11.003512467950287 L0.0249999999999959 -50.95920712150061 L0.0499999999999968 -50.989847715736026 z"/>
<path fill="#3c3c3c" stroke="#3c3c3c" d="M10.627714196620179 -20.31628448636442 L11.655902867554449 -18.855145194574174 L0.0500000000000065 -50.989847715736026 z"/>
<path fill="#3c3c3c" stroke="#3c3c3c" d="M0.050000000000001175 -50.989847715736026 L11.655902867554447 -18.855145194574174 L12.287163746048773 -17.285195608098334 z"/>
<path fill="#3c3c3c" stroke="#3c3c3c" d="M-0.05000000000000942 -50.98984771573602 L-10.627714196620184 -20.316284486364417 L-0.025000000000008345 -51.02048830997144 z"/>
<path fill="#3c3c3c" stroke="#3c3c3c" d="M-0.025000000000006874 -51.02048830997145 L-10.627714196620191 -20.316284486364413 L-9.237611465258249 -21.618856137330567 z"/>
<path fill="#3c3c3c" stroke="#3c3c3c" d="M-0.050000000000000336 -50.989847715736026 L-12.499999999999998 -15.659898477157348 L-12.28716374604877 -17.28519560809833 z"/>
<path fill="#3c3c3c" stroke="#3c3c3c" d="M-0.049999999999995326 -50.989847715736026 L-11.65590286755443 -12.464651759740526 L-12.287163746048764 -14.034601346216364 z"/>
<path fill="#3c3c3c" stroke="#3c3c3c" d="M-0.02499999999999999 -51.020488309971476 L-3.4207873759010377 -24.16741717374942 L-1.1533544932912776 -24.4673441735741 z"/>
<path fill="#3c3c3c" stroke="#3c3c3c" d="M-7.5329329547407 -8.6012943221532 L-9.237611465258233 -9.70094081698412 L-0.02500000000000028 -50.959207121500604 z"/>
<path fill="#3c3c3c" stroke="#3c3c3c" d="M-0.025000000000000015 -50.95920712150061 L-3.4207873759010274 -7.152379780565283 L-5.571729447206724 -7.742020125958386 z"/>
<path fill="#3c3c3c" stroke="#3c3c3c" d="M3.4207873759010403 -7.152379780565287 L0.024999999999999967 -50.95920712150061 L5.571729447206732 -7.742020125958387 z"/>
<path fill="#3c3c3c" stroke="#3c3c3c" d="M9.237611465258215 -9.700940816984124 L0.0249999999999743 -50.95920712150061 L10.627714196620156 -11.003512467950287 z"/>
<path fill="#3c3c3c" stroke="#3c3c3c" d="M-0.02500000000000002 -50.959207121500604 L-0.05 -50.98984771573602 L-0.024999999999999994 -51.02048830997144 L0.025 -51.02048830997144 L0.05 -50.98984771573602 L0.02499999999999997 -50.959207121500604 z"/>
<path fill="#3c3c3c" stroke="#3c3c3c" d="M10.627714196620179 -20.31628448636442 L0.050000000000004485 -50.989847715736026 L0.02500000000000342 -51.02048830997145 z"/>
<path fill="#3c3c3c" stroke="#3c3c3c" d="M0.025000000000006586 -51.02048830997144 L9.237611465258247 -21.618856137330578 L10.62771419662018 -20.31628448636442 z"/>
<path fill="#3c3c3c" stroke="#3c3c3c" d="M3.4207873759010323 -24.16741717374943 L5.5717294472067245 -23.577776828356335 L0.024999999999999998 -51.02048830997146 z"/>
<path fill="#3c3c3c" stroke="#3c3c3c" d="M-0.025000000000004272 -51.02048830997146 L-7.532932954740705 -22.718502632161517 L-5.571729447206727 -23.57777682835633 z"/>
<path fill="#3c3c3c" stroke="#3c3c3c" d="M-5.571729447206731 -23.57777682835632 L-3.4207873759010377 -24.167417173749442 L-0.02499999999999999 -51.02048830997146 z"/>
<path fill="#3c3c3c" stroke="#3c3c3c" d="M-12.287163746048767 -14.034601346216366 L-12.499999999999995 -15.659898477157348 L-0.049999999999995014 -50.989847715736026 z"/>
<path fill="#3c3c3c" stroke="#3c3c3c" d="M-5.571729447206724 -7.742020125958386 L-7.5329329547407005 -8.601294322153201 L-0.02499999999999978 -50.959207121500604 z"/>
<path fill="#3c3c3c" stroke="#3c3c3c" d="M7.532932954740706 -8.601294322153205 L0.024999999999998964 -50.959207121500604 L9.237611465258238 -9.700940816984124 z"/>
<path fill="#3c3c3c" stroke="#3c3c3c" d="M1.1533544932912756 -6.852452780740613 L0.024999999999999967 -50.959207121500604 L3.4207873759010403 -7.152379780565286 z"/>
<path fill="#3c3c3c" stroke="#3c3c3c" d="M-0.024999999999999994 -51.020488309971455 L-1.1533544932912778 -24.467344173574116 L1.1533544932912718 -24.467344173574116 z"/>
<path fill="#3c3c3c" stroke="#3c3c3c" d="M12.499999999999995 -15.659898477157352 L0.04999999999999866 -50.989847715736026 L12.287163746048767 -17.285195608098334 z"/>
<path fill="#3c3c3c" stroke="#3c3c3c" d="M-9.237611465258244 -21.61885613733059 L-7.532932954740704 -22.718502632161506 L-0.02499999999999889 -51.020488309971455 z"/>
<path fill="#3c3c3c" stroke="#3c3c3c" d="M1.1533544932912716 -24.467344173574112 L3.420787375901032 -24.167417173749435 L0.024999999999999998 -51.02048830997147 z"/>
<path fill="#3c3c3c" stroke="#3c3c3c" d="M-12.287163746048774 -17.285195608098327 L-11.655902867554449 -18.85514519457417 L-0.05000000000000193 -50.989847715736026 z"/>
<path fill="#3c3c3c" stroke="#3c3c3c" d="M-1.1533544932912676 -6.852452780740613 L0.02499999999999997 -50.95920712150061 L1.1533544932912758 -6.852452780740613 z"/>
<path fill="#3c3c3c" stroke="#3c3c3c" d="M10.627714196620175 -11.003512467950287 L0.04999999999999818 -50.989847715736026 L11.65590286755444 -12.464651759740537 z"/>
<path fill="#3c3c3c" stroke="#3c3c3c" d="M7.5329329547407 -22.718502632161506 L9.237611465258237 -21.618856137330592 L0.024999999999999394 -51.02048830997145 z"/>
<path fill="#3c3c3c" stroke="#3c3c3c" d="M-10.62771419662017 -11.003512467950278 L-11.655902867554435 -12.464651759740526 L-0.04999999999999753 -50.989847715736026 z"/>
<path fill="#3c3c3c" stroke="#3c3c3c" d="M12.287163746048765 -14.034601346216371 L0.04999999999999489 -50.989847715736026 L12.49999999999999 -15.65989847715735 z"/>
<path fill="#3c3c3c" stroke="#3c3c3c" d="M11.65590286755444 -12.464651759740537 L0.04999999999998776 -50.989847715736026 L12.28716374604877 -14.03460134621637 z"/>
<path fill="#3c3c3c" stroke="#3c3c3c" d="M-0.02499999999999999 -51.020488309971455 L1.1533544932912716 -24.4673441735741 L0.024999999999999998 -51.020488309971455 z"/>
<path fill="#3c3c3c" stroke="#3c3c3c" d="M5.571729447206732 -7.742020125958387 L0.025000000000000782 -50.95920712150061 L7.532932954740707 -8.601294322153205 z"/>
<path fill="#3c3c3c" stroke="#3c3c3c" d="M-0.024999999999989152 -50.95920712150061 L-10.627714196620172 -11.003512467950278 L-0.04999999999998915 -50.989847715736026 z"/>
<path fill="#3c3c3c" stroke="#3c3c3c" d="M12.287163746048774 -14.034601346216371 L12.5 -15.659898477157352 L12.287163746048773 -17.285195608098338 L11.655902867554447 -18.855145194574174 L10.627714196620175 -20.31628448636442 L9.237611465258237 -21.618856137330578 L7.532932954740704 -22.7185026321615 L5.571729447206725 -23.577776828356313 L3.4207873759010328 -24.167417173749417 L1.1533544932912718 -24.467344173574087 L-1.1533544932912778 -24.467344173574087 L-3.420787375901038 -24.167417173749417 L-5.571729447206732 -23.577776828356313 L-7.532932954740708 -22.7185026321615 L-9.237611465258242 -21.618856137330575 L-10.62771419662018 -20.316284486364413 L-11.655902867554449 -18.85514519457417 L-12.287163746048774 -17.28519560809833 L-12.5 -15.659898477157348 L-12.28716374604877 -14.034601346216364 L-11.655902867554445 -12.464651759740525 L-10.627714196620174 -11.003512467950278 L-9.237611465258235 -9.70094081698412 L-7.532932954740701 -8.601294322153201 L-5.5717294472067245 -7.742020125958387 L-3.420787375901028 -7.152379780565283 L-1.1533544932912676 -6.852452780740613 L1.1533544932912758 -6.852452780740613 L3.4207873759010408 -7.152379780565287 L5.5717294472067325 -7.742020125958388 L7.532932954740708 -8.601294322153205 L9.23761146525824 -9.700940816984124 L10.62771419662018 -11.003512467950287 L11.655902867554452 -12.464651759740535 z"/>
<path fill="#3c3c3c" stroke="#3c3c3c" d="M-2.5 26.019289340101516 L2.5 26.019289340101516 L2.5 58.5228426395939 L-2.5 58.5228426395939 z"/>
<path fill="#3c3c3c" stroke="#3c3c3c" d="M-2.5 26.019289340101526 L2.5 26.019289340101526 z"/>
<path fill="#3c3c3c" stroke="#3c3c3c" d="M-2.5 58.52284263959391 L2.5 58.52284263959391 L2.5 47.90862944162437 L-2.5 47.90862944162437 z"/>
<path fill="#3c3c3c" stroke="#3c3c3c" d="M-2.5 25.729756450393598 L2.5 25.729756450393598 L2.5 26.01928934010153 L-2.5 26.01928934010153 z"/>
<path fill="#3c3c3c" stroke="#3c3c3c" d="M-2.5 47.90862944162436 L2.5 47.90862944162436 L2.5 26.710659898477136 L-2.5 26.710659898477136 z"/>
<path fill="#3c3c3c" stroke="#3c3c3c" d="M-2.5 26.71065989847716 L2.5 26.71065989847716 L2.5 25.72975645039358 L-2.5 25.72975645039358 z"/>
<path fill="#3c3c3c" stroke="#3c3c3c" d="M-2.5 26.01928934010153 L-2.5 58.52284263959391 L-2.5 47.90862944162437 L-2.5 26.710659898477164 L-2.5 25.72975645039358 z"/>
<path fill="#3c3c3c" stroke="#3c3c3c" d="M2.5 26.01928934010153 L2.5 25.72975645039358 L2.5 26.710659898477164 L2.5 47.90862944162437 L2.5 58.52284263959391 z"/>
<path fill="#3c3c3c" stroke="#3c3c3c" d="M-7.4056603773584895 38.16889186859497 L-9.908435072142057 35.105966861411744 L-9.908435072142057 67.60952016090413 L-7.405660377358489 70.67244516808735 z"/>
<path fill="#3c3c3c" stroke="#3c3c3c" d="M-7.40566037735849 38.16889186859498 L-9.908435072142062 35.105966861411794 z"/>
<path fill="#3c3c3c" stroke="#3c3c3c" d="M-7.40566037735849 70.67244516808734 L-9.908435072142064 67.60952016090413 L-22.89400665926748 72.92251700028731 L-20.391231964483904 75.98544200747054 z"/>
<path fill="#3c3c3c" stroke="#3c3c3c" d="M-7.962124678751943 38.561879863479376 L-10.464899373535514 35.49895485629616 L-9.908435072142064 35.105966861411744 L-7.4056603773584895 38.16889186859496 z"/>
<path fill="#3c3c3c" stroke="#3c3c3c" d="M-20.391231964483886 75.98544200747054 L-22.894006659267465 72.92251700028733 L-22.894006659267472 51.72454745714012 L-20.391231964483893 54.787472464323336 z"/>
<path fill="#3c3c3c" stroke="#3c3c3c" d="M-20.391231964483904 54.78747246432334 L-22.894006659267475 51.72454745714012 L-10.464899373535514 35.49895485629616 L-7.962124678751942 38.56187986347938 z"/>
<path fill="#3c3c3c" stroke="#3c3c3c" d="M-7.4056603773584895 38.16889186859496 L-7.4056603773584895 70.67244516808732 L-20.391231964483904 75.98544200747052 L-20.391231964483904 54.78747246432332 L-7.962124678751942 38.561879863479376 z"/>
<path fill="#3c3c3c" stroke="#3c3c3c" d="M-9.908435072142064 35.105966861411744 L-10.464899373535516 35.49895485629616 L-22.894006659267475 51.724547457140105 L-22.894006659267475 72.9225170002873 L-9.908435072142064 67.6095201609041 z"/>
<path fill="#3c3c3c" stroke="#3c3c3c" d="M9.908435072142057 35.105966861411744 L7.4056603773584895 38.16889186859497 L7.405660377358489 70.67244516808735 L9.908435072142057 67.60952016090413 z"/>
<path fill="#3c3c3c" stroke="#3c3c3c" d="M9.908435072142062 35.105966861411794 L7.40566037735849 38.16889186859498 z"/>
<path fill="#3c3c3c" stroke="#3c3c3c" d="M9.908435072142064 67.60952016090413 L7.40566037735849 70.67244516808734 L20.391231964483904 75.98544200747054 L22.89400665926748 72.92251700028731 z"/>
<path fill="#3c3c3c" stroke="#3c3c3c" d="M10.464899373535514 35.49895485629616 L7.962124678751943 38.561879863479376 L7.4056603773584895 38.16889186859496 L9.908435072142064 35.105966861411744 z"/>
<path fill="#3c3c3c" stroke="#3c3c3c" d="M22.894006659267465 72.92251700028733 L20.391231964483886 75.98544200747054 L20.391231964483893 54.787472464323336 L22.894006659267472 51.72454745714012 z"/>
<path fill="#3c3c3c" stroke="#3c3c3c" d="M22.894006659267475 51.72454745714012 L20.391231964483904 54.78747246432334 L7.962124678751942 38.56187986347938 L10.464899373535514 35.49895485629616 z"/>
<path fill="#3c3c3c" stroke="#3c3c3c" d="M9.908435072142064 35.105966861411744 L9.908435072142064 67.6095201609041 L22.894006659267475 72.9225170002873 L22.894006659267475 51.724547457140105 L10.464899373535516 35.49895485629616 z"/>
<path fill="#3c3c3c" stroke="#3c3c3c" d="M7.4056603773584895 38.16889186859496 L7.962124678751942 38.561879863479376 L20.391231964483904 54.78747246432332 L20.391231964483904 75.98544200747052 L7.4056603773584895 70.67244516808732 z"/>
<path fill="#3c3c3c" stroke="#3c3c3c" d="M-2.5 26.019289340101516 L2.5 26.019289340101516 L2.5 58.5228426395939 L-2.5 58.5228426395939 z"/>
<path fill="#3c3c3c" stroke="#3c3c3c" d="M-2.5 26.019289340101526 L2.5 26.019289340101526 z"/>
<path fill="#3c3c3c" stroke="#3c3c3c" d="M-2.5 58.52284263959391 L2.5 58.52284263959391 L2.5 47.90862944162437 L-2.5 47.90862944162437 z"/>
<path fill="#3c3c3c" stroke="#3c3c3c" d="M-2.5 25.729756450393598 L2.5 25.729756450393598 L2.5 26.01928934010153 L-2.5 26.01928934010153 z"/>
<path fill="#3c3c3c" stroke="#3c3c3c" d="M-2.5 47.90862944162436 L2.5 47.90862944162436 L2.5 26.710659898477136 L-2.5 26.710659898477136 z"/>
<path fill="#3c3c3c" stroke="#3c3c3c" d="M-2.5 26.71065989847716 L2.5 26.71065989847716 L2.5 25.72975645039358 L-2.5 25.72975645039358 z"/>
<path fill="#3c3c3c" stroke="#3c3c3c" d="M-2.5 26.01928934010153 L-2.5 58.52284263959391 L-2.5 47.90862944162437 L-2.5 26.710659898477164 L-2.5 25.72975645039358 z"/>
<path fill="#3c3c3c" stroke="#3c3c3c" d="M2.5 26.01928934010153 L2.5 25.72975645039358 L2.5 26.710659898477164 L2.5 47.90862944162437 L2.5 58.52284263959391 z"/>
</svg>