<?xml version="1.0" encoding="UTF-8"?>
<!-- Generated by jsxcad -->
<!DOCTYPE svg PUBLIC "-//W3C//DTD SVG 1.1 Tiny//EN" "http://www.w3.org/Graphics/SVG/1.1/DTD/svg11-tiny.dtd">
<svg baseProfile="tiny" height="30.00000000000001mm" width="10.000000000000007mm" viewBox="-5.0000000000000036 -5.0000000000000036 10.000000000000007 30.00000000000001" version="1.1" stroke="black" stroke-width=".1" fill="none" xmlns="http://www.w3.org/2000/svg">
<path fill="#000000" stroke="#000000" d="M-5 5 L-5 5 L5 5 L5 5 z"/>
<path fill="#000000" stroke="#000000" d="M-5 -5 L-5 -5 L-5 5 L-5 5 z"/>
<path fill="#000000" stroke="#000000" d="M5 -5 L5 -5 L-5 -5 L-5 -5 z"/>
<path fill="#000000" stroke="#000000" d="M5 5 L5 5 L5 -5 L5 -5 z"/>
<path fill="#000000" stroke="#000000" d="M-5 4.999999999999999 L5 4.999999999999999 L5 -4.999999999999999 L-5 -4.999999999999999 z"/>
<path fill="#000000" stroke="#000000" d="M-5 4.999999999999999 L-5 -4.999999999999999 L5 -4.999999999999999 L5 4.999999999999999 z"/>
<path fill="#000000" stroke="#000000" d="M3.0616169978683826e-16 -24.999999999999996 L3.0616169978683826e-16 -24.999999999999996 L-4.330127018922192 -22.5 L-4.330127018922192 -22.5 z"/>
<path fill="#000000" stroke="#000000" d="M4.330127018922193 -22.499999999999996 L4.330127018922193 -22.499999999999996 L3.061616997868382e-16 -25 L3.061616997868382e-16 -25 z"/>
<path fill="#000000" stroke="#000000" d="M3.061616997868382e-16 -14.999999999999998 L3.061616997868382e-16 -14.999999999999998 L4.330127018922193 -17.5 L4.330127018922193 -17.5 z"/>
<path fill="#000000" stroke="#000000" d="M4.330127018922194 -17.5 L4.330127018922194 -17.5 L4.330127018922194 -22.499999999999996 L4.330127018922194 -22.499999999999996 z"/>
<path fill="#000000" stroke="#000000" d="M-4.330127018922193 -22.499999999999996 L-4.330127018922193 -22.499999999999996 L-4.330127018922194 -17.499999999999996 L-4.330127018922194 -17.499999999999996 z"/>
<path fill="#000000" stroke="#000000" d="M-4.330127018922193 -17.5 L-4.330127018922193 -17.5 L3.0616169978683826e-16 -15 L3.0616169978683826e-16 -15 z"/>
<path fill="#000000" stroke="#000000" d="M3.061616997868383e-16 -24.999999999999993 L-4.330127018922193 -22.499999999999996 L-4.330127018922194 -17.499999999999996 L3.061616997868383e-16 -14.999999999999998 L4.330127018922194 -17.499999999999996 L4.330127018922194 -22.499999999999996 z"/>
<path fill="#000000" stroke="#000000" d="M3.061616997868383e-16 -24.999999999999993 L4.330127018922194 -22.499999999999996 L4.330127018922194 -17.499999999999996 L3.061616997868383e-16 -14.999999999999998 L-4.330127018922194 -17.499999999999996 L-4.330127018922193 -22.499999999999996 z"/>
</svg>