<?xml version="1.0" encoding="UTF-8"?>
<!-- Generated by jsxcad -->
<!DOCTYPE svg PUBLIC "-//W3C//DTD SVG 1.1 Tiny//EN" "http://www.w3.org/Graphics/SVG/1.1/DTD/svg11-tiny.dtd">
<svg baseProfile="tiny" height="30.00000000000001mm" width="10.000000000000007mm" viewBox="-5.0000000000000036 -5.0000000000000036 10.000000000000007 30.00000000000001" version="1.1" stroke="black" stroke-width=".1" fill="none" xmlns="http://www.w3.org/2000/svg">
<path fill="#000000" stroke="#000000" d="M-5 -5 L-5 -5 L-5 5 L-5 5 z"/>
<path fill="#000000" stroke="#000000" d="M-5 5 L-5 5 L5 5 L5 5 z"/>
<path fill="#000000" stroke="#000000" d="M5 -5 L5 -5 L-5 -5 L-5 -5 z"/>
<path fill="#000000" stroke="#000000" d="M5 5 L5 5 L5 -5 L5 -5 z"/>
<path fill="#000000" stroke="#000000" d="M-5 -4.999999999999999 L-5 4.999999999999999 L5 4.999999999999999 L5 -4.999999999999999 z"/>
<path fill="#000000" stroke="#000000" d="M5 4.999999999999999 L-5 4.999999999999999 L-5 -4.999999999999999 L5 -4.999999999999999 z"/>
<path fill="#000000" stroke="#000000" d="M3.0616169978683826e-16 -24.999999999999996 L3.0616169978683826e-16 -24.999999999999996 L-2.0336832153790043 -24.567727288213 L-2.0336832153790043 -24.567727288213 z"/>
<path fill="#000000" stroke="#000000" d="M2.0336832153790008 -24.567727288213003 L2.0336832153790008 -24.567727288213003 L3.0616169978683826e-16 -25 L3.0616169978683826e-16 -25 z"/>
<path fill="#000000" stroke="#000000" d="M3.71572412738697 -23.34565303179429 L3.71572412738697 -23.34565303179429 L2.0336832153790008 -24.567727288213003 L2.0336832153790008 -24.567727288213003 z"/>
<path fill="#000000" stroke="#000000" d="M4.755282581475769 -21.545084971874733 L4.755282581475769 -21.545084971874733 L3.7157241273869714 -23.34565303179429 L3.7157241273869714 -23.34565303179429 z"/>
<path fill="#000000" stroke="#000000" d="M1.039558454088798 -15.109261996330972 L1.039558454088798 -15.109261996330972 L2.938926261462366 -15.954915028125262 L2.938926261462366 -15.954915028125262 z"/>
<path fill="#000000" stroke="#000000" d="M2.938926261462364 -15.95491502812526 L2.938926261462364 -15.95491502812526 L4.330127018922192 -17.499999999999996 L4.330127018922192 -17.499999999999996 z"/>
<path fill="#000000" stroke="#000000" d="M-2.938926261462363 -15.95491502812526 L-2.938926261462363 -15.95491502812526 L-1.0395584540887943 -15.10926199633097 L-1.0395584540887943 -15.10926199633097 z"/>
<path fill="#000000" stroke="#000000" d="M-1.0395584540887943 -15.109261996330972 L-1.0395584540887943 -15.109261996330972 L1.039558454088798 -15.109261996330972 L1.039558454088798 -15.109261996330972 z"/>
<path fill="#000000" stroke="#000000" d="M4.330127018922193 -17.499999999999996 L4.330127018922193 -17.499999999999996 L4.972609476841366 -19.47735768366173 L4.972609476841366 -19.47735768366173 z"/>
<path fill="#000000" stroke="#000000" d="M4.972609476841367 -19.47735768366173 L4.972609476841367 -19.47735768366173 L4.755282581475767 -21.545084971874733 L4.755282581475767 -21.545084971874733 z"/>
<path fill="#000000" stroke="#000000" d="M-2.0336832153790043 -24.567727288213 L-2.0336832153790043 -24.567727288213 L-3.715724127386972 -23.34565303179429 L-3.715724127386972 -23.34565303179429 z"/>
<path fill="#000000" stroke="#000000" d="M-3.715724127386973 -23.345653031794285 L-3.715724127386973 -23.345653031794285 L-4.755282581475771 -21.54508497187473 L-4.755282581475771 -21.54508497187473 z"/>
<path fill="#000000" stroke="#000000" d="M-4.755282581475769 -21.54508497187473 L-4.755282581475769 -21.54508497187473 L-4.972609476841367 -19.477357683661726 L-4.972609476841367 -19.477357683661726 z"/>
<path fill="#000000" stroke="#000000" d="M-4.33012701892219 -17.499999999999993 L-4.33012701892219 -17.499999999999993 L-2.938926261462361 -15.954915028125258 L-2.938926261462361 -15.954915028125258 z"/>
<path fill="#000000" stroke="#000000" d="M-4.972609476841366 -19.477357683661726 L-4.972609476841366 -19.477357683661726 L-4.33012701892219 -17.499999999999993 L-4.33012701892219 -17.499999999999993 z"/>
<path fill="#000000" stroke="#000000" d="M3.061616997868383e-16 -24.999999999999996 L-2.0336832153790048 -24.567727288213 L-3.7157241273869723 -23.345653031794285 L-4.755282581475769 -21.54508497187473 L-4.972609476841367 -19.477357683661726 L-4.330127018922191 -17.499999999999993 L-2.9389262614623632 -15.95491502812526 L-1.0395584540887945 -15.10926199633097 L1.0395584540887983 -15.10926199633097 L2.938926261462367 -15.954915028125262 L4.330127018922194 -17.5 L4.972609476841367 -19.47735768366173 L4.755282581475767 -21.545084971874733 L3.7157241273869706 -23.345653031794285 L2.033683215379001 -24.567727288213 z"/>
<path fill="#000000" stroke="#000000" d="M3.061616997868383e-16 -24.999999999999996 L2.033683215379001 -24.567727288213 L3.7157241273869706 -23.345653031794285 L4.755282581475767 -21.545084971874733 L4.972609476841367 -19.47735768366173 L4.330127018922194 -17.5 L2.938926261462367 -15.954915028125262 L1.0395584540887983 -15.10926199633097 L-1.0395584540887945 -15.10926199633097 L-2.9389262614623632 -15.95491502812526 L-4.330127018922191 -17.499999999999993 L-4.972609476841367 -19.477357683661726 L-4.755282581475769 -21.54508497187473 L-3.7157241273869723 -23.345653031794285 L-2.0336832153790048 -24.567727288213 z"/>
</svg>