<?xml version="1.0" encoding="UTF-8"?>
<!-- Generated by jsxcad -->
<!DOCTYPE svg PUBLIC "-//W3C//DTD SVG 1.1 Tiny//EN" "http://www.w3.org/Graphics/SVG/1.1/DTD/svg11-tiny.dtd">
<svg baseProfile="tiny" height="16.349999999999998mm" width="16.349999999999998mm" viewBox="-8.174999999999999 11.825 16.349999999999998 16.349999999999998" version="1.1" stroke="black" stroke-width=".1" fill="none" xmlns="http://www.w3.org/2000/svg">
<path fill="#e2c66c" stroke="#e2c66c" d="M0.6266661678215223 -24.960573506572388 L0.6266661678215223 -24.960573506572388 L0.3139525976465676 -24.990133642141355 L0.3139525976465676 -24.990133642141355 z"/>
<path fill="#e2c66c" stroke="#e2c66c" d="M0.3139525976465676 -24.990133642141355 L0.3139525976465676 -24.990133642141355 L3.0616169978683826e-16 -25 L3.0616169978683826e-16 -25 z"/>
<path fill="#e2c66c" stroke="#e2c66c" d="M1.2434494358242747 -24.842915805643155 L1.2434494358242747 -24.842915805643155 L0.9369065729286246 -24.91143625364344 L0.9369065729286246 -24.91143625364344 z"/>
<path fill="#e2c66c" stroke="#e2c66c" d="M0.9369065729286244 -24.91143625364344 L0.9369065729286244 -24.91143625364344 L0.6266661678215223 -24.960573506572388 L0.6266661678215223 -24.960573506572388 z"/>
<path fill="#e2c66c" stroke="#e2c66c" d="M1.5450849718747381 -24.755282581475765 L1.5450849718747381 -24.755282581475765 L1.2434494358242747 -24.842915805643155 L1.2434494358242747 -24.842915805643155 z"/>
<path fill="#e2c66c" stroke="#e2c66c" d="M2.128896457825365 -24.524135262330095 L2.128896457825365 -24.524135262330095 L1.8406227634233914 -24.648882429441255 L1.8406227634233914 -24.648882429441255 z"/>
<path fill="#e2c66c" stroke="#e2c66c" d="M1.8406227634233914 -24.648882429441255 L1.8406227634233914 -24.648882429441255 L1.545084971874738 -24.755282581475765 L1.545084971874738 -24.755282581475765 z"/>
<path fill="#e2c66c" stroke="#e2c66c" d="M2.4087683705085783 -24.381533400219315 L2.4087683705085783 -24.381533400219315 L2.128896457825365 -24.524135262330095 L2.128896457825365 -24.524135262330095 z"/>
<path fill="#e2c66c" stroke="#e2c66c" d="M2.679133974894985 -24.221639627510072 L2.679133974894985 -24.221639627510072 L2.4087683705085783 -24.381533400219315 L2.4087683705085783 -24.381533400219315 z"/>
<path fill="#e2c66c" stroke="#e2c66c" d="M2.938926261462367 -24.045084971874733 L2.938926261462367 -24.045084971874733 L2.679133974894985 -24.221639627510072 L2.679133974894985 -24.221639627510072 z"/>
<path fill="#e2c66c" stroke="#e2c66c" d="M3.644843137107062 -23.422735529643436 L3.644843137107062 -23.422735529643436 L3.422735529643449 -23.64484313710705 L3.422735529643449 -23.64484313710705 z"/>
<path fill="#e2c66c" stroke="#e2c66c" d="M3.1871199487434505 -23.852566213878944 L3.1871199487434505 -23.852566213878944 L2.9389262614623672 -24.045084971874733 L2.9389262614623672 -24.045084971874733 z"/>
<path fill="#e2c66c" stroke="#e2c66c" d="M3.4227355296434454 -23.644843137107053 L3.4227355296434454 -23.644843137107053 L3.1871199487434505 -23.852566213878944 L3.1871199487434505 -23.852566213878944 z"/>
<path fill="#e2c66c" stroke="#e2c66c" d="M4.381533400219321 -22.408768370508568 L4.381533400219321 -22.408768370508568 L4.221639627510079 -22.679133974894974 L4.221639627510079 -22.679133974894974 z"/>
<path fill="#e2c66c" stroke="#e2c66c" d="M4.221639627510079 -22.679133974894977 L4.221639627510079 -22.679133974894977 L4.045084971874741 -22.938926261462356 L4.045084971874741 -22.938926261462356 z"/>
<path fill="#e2c66c" stroke="#e2c66c" d="M4.045084971874741 -22.93892626146236 L4.045084971874741 -22.93892626146236 L3.852566213878951 -23.18711994874344 L3.852566213878951 -23.18711994874344 z"/>
<path fill="#e2c66c" stroke="#e2c66c" d="M4.648882429441258 -21.840622763423383 L4.648882429441258 -21.840622763423383 L4.524135262330099 -22.12889645782536 L4.524135262330099 -22.12889645782536 z"/>
<path fill="#e2c66c" stroke="#e2c66c" d="M4.5241352623301 -22.128896457825356 L4.5241352623301 -22.128896457825356 L4.38153340021932 -22.408768370508568 L4.38153340021932 -22.408768370508568 z"/>
<path fill="#e2c66c" stroke="#e2c66c" d="M4.842915805643156 -21.243449435824267 L4.842915805643156 -21.243449435824267 L4.755282581475769 -21.545084971874733 L4.755282581475769 -21.545084971874733 z"/>
<path fill="#e2c66c" stroke="#e2c66c" d="M4.755282581475769 -21.545084971874733 L4.755282581475769 -21.545084971874733 L4.648882429441258 -21.840622763423383 L4.648882429441258 -21.840622763423383 z"/>
<path fill="#e2c66c" stroke="#e2c66c" d="M4.9605735065723895 -20.626666167821515 L4.9605735065723895 -20.626666167821515 L4.911436253643444 -20.936906572928617 L4.911436253643444 -20.936906572928617 z"/>
<path fill="#e2c66c" stroke="#e2c66c" d="M4.911436253643444 -20.936906572928617 L4.911436253643444 -20.936906572928617 L4.842915805643156 -21.243449435824267 L4.842915805643156 -21.243449435824267 z"/>
<path fill="#e2c66c" stroke="#e2c66c" d="M3.8525662138789496 -23.187119948743444 L3.8525662138789496 -23.187119948743444 L3.644843137107062 -23.422735529643436 L3.644843137107062 -23.422735529643436 z"/>
<path fill="#e2c66c" stroke="#e2c66c" d="M4.990133642141358 -20.313952597646562 L4.990133642141358 -20.313952597646562 L4.9605735065723895 -20.626666167821515 L4.9605735065723895 -20.626666167821515 z"/>
<path fill="#e2c66c" stroke="#e2c66c" d="M5 -19.999999999999993 L5 -19.999999999999993 L4.990133642141358 -20.313952597646562 L4.990133642141358 -20.313952597646562 z"/>
<path fill="#e2c66c" stroke="#e2c66c" d="M4.960573506572388 -19.373333832178474 L4.960573506572388 -19.373333832178474 L4.990133642141357 -19.686047402353427 L4.990133642141357 -19.686047402353427 z"/>
<path fill="#e2c66c" stroke="#e2c66c" d="M4.990133642141357 -19.686047402353427 L4.990133642141357 -19.686047402353427 L4.999999999999999 -19.999999999999993 L4.999999999999999 -19.999999999999993 z"/>
<path fill="#e2c66c" stroke="#e2c66c" d="M4.842915805643154 -18.756550564175722 L4.842915805643154 -18.756550564175722 L4.911436253643442 -19.06309342707137 L4.911436253643442 -19.06309342707137 z"/>
<path fill="#e2c66c" stroke="#e2c66c" d="M4.911436253643442 -19.06309342707137 L4.911436253643442 -19.06309342707137 L4.960573506572388 -19.373333832178474 L4.960573506572388 -19.373333832178474 z"/>
<path fill="#e2c66c" stroke="#e2c66c" d="M4.221639627510072 -17.320866025105012 L4.221639627510072 -17.320866025105012 L4.381533400219316 -17.591231629491418 L4.381533400219316 -17.591231629491418 z"/>
<path fill="#e2c66c" stroke="#e2c66c" d="M4.755282581475766 -18.454915028125257 L4.755282581475766 -18.454915028125257 L4.842915805643154 -18.756550564175722 L4.842915805643154 -18.756550564175722 z"/>
<path fill="#e2c66c" stroke="#e2c66c" d="M4.648882429441255 -18.159377236576606 L4.648882429441255 -18.159377236576606 L4.755282581475766 -18.454915028125257 L4.755282581475766 -18.454915028125257 z"/>
<path fill="#e2c66c" stroke="#e2c66c" d="M4.524135262330096 -17.87110354217463 L4.524135262330096 -17.87110354217463 L4.648882429441255 -18.159377236576603 L4.648882429441255 -18.159377236576603 z"/>
<path fill="#e2c66c" stroke="#e2c66c" d="M4.381533400219315 -17.591231629491418 L4.381533400219315 -17.591231629491418 L4.524135262330096 -17.87110354217463 L4.524135262330096 -17.87110354217463 z"/>
<path fill="#e2c66c" stroke="#e2c66c" d="M4.045084971874735 -17.06107373853763 L4.045084971874735 -17.06107373853763 L4.221639627510073 -17.320866025105012 L4.221639627510073 -17.320866025105012 z"/>
<path fill="#e2c66c" stroke="#e2c66c" d="M3.8525662138789434 -16.812880051256545 L3.8525662138789434 -16.812880051256545 L4.0450849718747355 -17.06107373853763 L4.0450849718747355 -17.06107373853763 z"/>
<path fill="#e2c66c" stroke="#e2c66c" d="M3.422735529643441 -16.35515686289294 L3.422735529643441 -16.35515686289294 L3.644843137107056 -16.577264470356553 L3.644843137107056 -16.577264470356553 z"/>
<path fill="#e2c66c" stroke="#e2c66c" d="M3.6448431371070558 -16.577264470356553 L3.6448431371070558 -16.577264470356553 L3.8525662138789434 -16.812880051256545 L3.8525662138789434 -16.812880051256545 z"/>
<path fill="#e2c66c" stroke="#e2c66c" d="M3.1871199487434465 -16.147433786121052 L3.1871199487434465 -16.147433786121052 L3.4227355296434414 -16.35515686289294 L3.4227355296434414 -16.35515686289294 z"/>
<path fill="#e2c66c" stroke="#e2c66c" d="M1.8406227634233858 -15.35111757055874 L1.8406227634233858 -15.35111757055874 L2.12889645782536 -15.4758647376699 L2.12889645782536 -15.4758647376699 z"/>
<path fill="#e2c66c" stroke="#e2c66c" d="M2.12889645782536 -15.4758647376699 L2.12889645782536 -15.4758647376699 L2.4087683705085734 -15.618466599780678 L2.4087683705085734 -15.618466599780678 z"/>
<path fill="#e2c66c" stroke="#e2c66c" d="M2.6791339748949805 -15.77836037248992 L2.6791339748949805 -15.77836037248992 L2.9389262614623637 -15.95491502812526 L2.9389262614623637 -15.95491502812526 z"/>
<path fill="#e2c66c" stroke="#e2c66c" d="M2.4087683705085734 -15.618466599780678 L2.4087683705085734 -15.618466599780678 L2.6791339748949805 -15.77836037248992 L2.6791339748949805 -15.77836037248992 z"/>
<path fill="#e2c66c" stroke="#e2c66c" d="M2.9389262614623632 -15.95491502812526 L2.9389262614623632 -15.95491502812526 L3.1871199487434465 -16.147433786121052 L3.1871199487434465 -16.147433786121052 z"/>
<path fill="#e2c66c" stroke="#e2c66c" d="M1.2434494358242703 -15.157084194356843 L1.2434494358242703 -15.157084194356843 L1.545084971874734 -15.24471741852423 L1.545084971874734 -15.24471741852423 z"/>
<path fill="#e2c66c" stroke="#e2c66c" d="M1.5450849718747337 -15.24471741852423 L1.5450849718747337 -15.24471741852423 L1.8406227634233858 -15.35111757055874 L1.8406227634233858 -15.35111757055874 z"/>
<path fill="#e2c66c" stroke="#e2c66c" d="M0.6266661678215167 -15.039426493427609 L0.6266661678215167 -15.039426493427609 L0.9369065729286191 -15.088563746356554 L0.9369065729286191 -15.088563746356554 z"/>
<path fill="#e2c66c" stroke="#e2c66c" d="M0.9369065729286191 -15.088563746356554 L0.9369065729286191 -15.088563746356554 L1.2434494358242703 -15.157084194356843 L1.2434494358242703 -15.157084194356843 z"/>
<path fill="#e2c66c" stroke="#e2c66c" d="M0.313952597646562 -15.009866357858641 L0.313952597646562 -15.009866357858641 L0.6266661678215167 -15.039426493427609 L0.6266661678215167 -15.039426493427609 z"/>
<path fill="#e2c66c" stroke="#e2c66c" d="M-0.3139525976465725 -15.009866357858641 L-0.3139525976465725 -15.009866357858641 L-5.244953423338944e-15 -14.999999999999998 L-5.244953423338944e-15 -14.999999999999998 z"/>
<path fill="#e2c66c" stroke="#e2c66c" d="M-5.244953423338944e-15 -15 L-5.244953423338944e-15 -15 L0.313952597646562 -15.009866357858641 L0.313952597646562 -15.009866357858641 z"/>
<path fill="#e2c66c" stroke="#e2c66c" d="M-0.6266661678215261 -15.03942649342761 L-0.6266661678215261 -15.03942649342761 L-0.3139525976465725 -15.009866357858641 L-0.3139525976465725 -15.009866357858641 z"/>
<path fill="#e2c66c" stroke="#e2c66c" d="M-0.9369065729286284 -15.088563746356556 L-0.9369065729286284 -15.088563746356556 L-0.6266661678215261 -15.03942649342761 L-0.6266661678215261 -15.03942649342761 z"/>
<path fill="#e2c66c" stroke="#e2c66c" d="M-1.2434494358242794 -15.157084194356845 L-1.2434494358242794 -15.157084194356845 L-0.9369065729286284 -15.088563746356556 L-0.9369065729286284 -15.088563746356556 z"/>
<path fill="#e2c66c" stroke="#e2c66c" d="M-1.8406227634233956 -15.351117570558744 L-1.8406227634233956 -15.351117570558744 L-1.5450849718747428 -15.244717418524232 L-1.5450849718747428 -15.244717418524232 z"/>
<path fill="#e2c66c" stroke="#e2c66c" d="M-1.5450849718747428 -15.244717418524232 L-1.5450849718747428 -15.244717418524232 L-1.2434494358242794 -15.157084194356845 L-1.2434494358242794 -15.157084194356845 z"/>
<path fill="#e2c66c" stroke="#e2c66c" d="M-2.1288964578253693 -15.475864737669903 L-2.1288964578253693 -15.475864737669903 L-1.8406227634233958 -15.351117570558744 L-1.8406227634233958 -15.351117570558744 z"/>
<path fill="#e2c66c" stroke="#e2c66c" d="M-2.9389262614623717 -15.954915028125267 L-2.9389262614623717 -15.954915028125267 L-2.679133974894989 -15.778360372489928 L-2.679133974894989 -15.778360372489928 z"/>
<path fill="#e2c66c" stroke="#e2c66c" d="M-2.4087683705085827 -15.618466599780684 L-2.4087683705085827 -15.618466599780684 L-2.1288964578253693 -15.475864737669903 L-2.1288964578253693 -15.475864737669903 z"/>
<path fill="#e2c66c" stroke="#e2c66c" d="M-2.6791339748949894 -15.778360372489928 L-2.6791339748949894 -15.778360372489928 L-2.4087683705085827 -15.618466599780684 L-2.4087683705085827 -15.618466599780684 z"/>
<path fill="#e2c66c" stroke="#e2c66c" d="M-3.422735529643448 -16.355156862892944 L-3.422735529643448 -16.355156862892944 L-3.187119948743455 -16.147433786121056 L-3.187119948743455 -16.147433786121056 z"/>
<path fill="#e2c66c" stroke="#e2c66c" d="M-3.187119948743455 -16.147433786121056 L-3.187119948743455 -16.147433786121056 L-2.9389262614623712 -15.954915028125267 L-2.9389262614623712 -15.954915028125267 z"/>
<path fill="#e2c66c" stroke="#e2c66c" d="M-3.852566213878951 -16.812880051256556 L-3.852566213878951 -16.812880051256556 L-3.644843137107061 -16.57726447035656 L-3.644843137107061 -16.57726447035656 z"/>
<path fill="#e2c66c" stroke="#e2c66c" d="M-4.221639627510079 -17.320866025105023 L-4.221639627510079 -17.320866025105023 L-4.045084971874742 -17.06107373853764 L-4.045084971874742 -17.06107373853764 z"/>
<path fill="#e2c66c" stroke="#e2c66c" d="M-4.045084971874742 -17.06107373853764 L-4.045084971874742 -17.06107373853764 L-3.8525662138789496 -16.812880051256553 L-3.8525662138789496 -16.812880051256553 z"/>
<path fill="#e2c66c" stroke="#e2c66c" d="M-4.648882429441259 -18.159377236576617 L-4.648882429441259 -18.159377236576617 L-4.524135262330101 -17.87110354217464 L-4.524135262330101 -17.87110354217464 z"/>
<path fill="#e2c66c" stroke="#e2c66c" d="M-4.381533400219322 -17.59123162949143 L-4.381533400219322 -17.59123162949143 L-4.221639627510079 -17.320866025105023 L-4.221639627510079 -17.320866025105023 z"/>
<path fill="#e2c66c" stroke="#e2c66c" d="M-4.524135262330101 -17.87110354217464 L-4.524135262330101 -17.87110354217464 L-4.381533400219322 -17.59123162949143 L-4.381533400219322 -17.59123162949143 z"/>
<path fill="#e2c66c" stroke="#e2c66c" d="M-4.75528258147577 -18.45491502812527 L-4.75528258147577 -18.45491502812527 L-4.64888242944126 -18.159377236576617 L-4.64888242944126 -18.159377236576617 z"/>
<path fill="#e2c66c" stroke="#e2c66c" d="M-4.911436253643444 -19.063093427071383 L-4.911436253643444 -19.063093427071383 L-4.842915805643157 -18.756550564175733 L-4.842915805643157 -18.756550564175733 z"/>
<path fill="#e2c66c" stroke="#e2c66c" d="M-4.842915805643157 -18.756550564175733 L-4.842915805643157 -18.756550564175733 L-4.75528258147577 -18.45491502812527 L-4.75528258147577 -18.45491502812527 z"/>
<path fill="#e2c66c" stroke="#e2c66c" d="M-3.6448431371070615 -16.57726447035656 L-3.6448431371070615 -16.57726447035656 L-3.422735529643448 -16.355156862892944 L-3.422735529643448 -16.355156862892944 z"/>
<path fill="#e2c66c" stroke="#e2c66c" d="M-4.990133642141357 -19.686047402353445 L-4.990133642141357 -19.686047402353445 L-4.9605735065723895 -19.37333383217849 L-4.9605735065723895 -19.37333383217849 z"/>
<path fill="#e2c66c" stroke="#e2c66c" d="M-4.9605735065723895 -19.37333383217849 L-4.9605735065723895 -19.37333383217849 L-4.911436253643444 -19.063093427071383 L-4.911436253643444 -19.063093427071383 z"/>
<path fill="#e2c66c" stroke="#e2c66c" d="M-4.960573506572388 -20.62666616782153 L-4.960573506572388 -20.62666616782153 L-4.990133642141357 -20.313952597646573 L-4.990133642141357 -20.313952597646573 z"/>
<path fill="#e2c66c" stroke="#e2c66c" d="M-4.755282581475765 -21.545084971874743 L-4.755282581475765 -21.545084971874743 L-4.842915805643154 -21.24344943582428 L-4.842915805643154 -21.24344943582428 z"/>
<path fill="#e2c66c" stroke="#e2c66c" d="M-4.842915805643154 -21.24344943582428 L-4.842915805643154 -21.24344943582428 L-4.9114362536434415 -20.936906572928628 L-4.9114362536434415 -20.936906572928628 z"/>
<path fill="#e2c66c" stroke="#e2c66c" d="M-4.648882429441253 -21.840622763423397 L-4.648882429441253 -21.840622763423397 L-4.755282581475765 -21.545084971874743 L-4.755282581475765 -21.545084971874743 z"/>
<path fill="#e2c66c" stroke="#e2c66c" d="M-4.9114362536434415 -20.936906572928628 L-4.9114362536434415 -20.936906572928628 L-4.960573506572388 -20.62666616782153 L-4.960573506572388 -20.62666616782153 z"/>
<path fill="#e2c66c" stroke="#e2c66c" d="M-4.381533400219312 -22.408768370508582 L-4.381533400219312 -22.408768370508582 L-4.524135262330093 -22.12889645782537 L-4.524135262330093 -22.12889645782537 z"/>
<path fill="#e2c66c" stroke="#e2c66c" d="M-4.524135262330093 -22.128896457825373 L-4.524135262330093 -22.128896457825373 L-4.648882429441253 -21.840622763423397 L-4.648882429441253 -21.840622763423397 z"/>
<path fill="#e2c66c" stroke="#e2c66c" d="M-4.045084971874732 -22.93892626146237 L-4.045084971874732 -22.93892626146237 L-4.22163962751007 -22.679133974894988 L-4.22163962751007 -22.679133974894988 z"/>
<path fill="#e2c66c" stroke="#e2c66c" d="M-4.22163962751007 -22.679133974894988 L-4.22163962751007 -22.679133974894988 L-4.381533400219313 -22.408768370508582 L-4.381533400219313 -22.408768370508582 z"/>
<path fill="#e2c66c" stroke="#e2c66c" d="M-4.999999999999999 -20.000000000000007 L-4.999999999999999 -20.000000000000007 L-4.990133642141357 -19.68604740235344 L-4.990133642141357 -19.68604740235344 z"/>
<path fill="#e2c66c" stroke="#e2c66c" d="M-4.990133642141357 -20.313952597646573 L-4.990133642141357 -20.313952597646573 L-5 -20.000000000000007 L-5 -20.000000000000007 z"/>
<path fill="#e2c66c" stroke="#e2c66c" d="M-3.644843137107048 -23.42273552964345 L-3.644843137107048 -23.42273552964345 L-3.852566213878941 -23.187119948743455 L-3.852566213878941 -23.187119948743455 z"/>
<path fill="#e2c66c" stroke="#e2c66c" d="M-3.8525662138789407 -23.187119948743455 L-3.8525662138789407 -23.187119948743455 L-4.045084971874731 -22.93892626146237 L-4.045084971874731 -22.93892626146237 z"/>
<path fill="#e2c66c" stroke="#e2c66c" d="M-3.187119948743437 -23.852566213878955 L-3.187119948743437 -23.852566213878955 L-3.4227355296434325 -23.644843137107067 L-3.4227355296434325 -23.644843137107067 z"/>
<path fill="#e2c66c" stroke="#e2c66c" d="M-3.4227355296434325 -23.644843137107067 L-3.4227355296434325 -23.644843137107067 L-3.6448431371070478 -23.42273552964345 L-3.6448431371070478 -23.42273552964345 z"/>
<path fill="#e2c66c" stroke="#e2c66c" d="M-2.408768370508564 -24.381533400219322 L-2.408768370508564 -24.381533400219322 L-2.67913397489497 -24.221639627510083 L-2.67913397489497 -24.221639627510083 z"/>
<path fill="#e2c66c" stroke="#e2c66c" d="M-2.9389262614623552 -24.045084971874743 L-2.9389262614623552 -24.045084971874743 L-3.187119948743437 -23.852566213878955 L-3.187119948743437 -23.852566213878955 z"/>
<path fill="#e2c66c" stroke="#e2c66c" d="M-2.67913397489497 -24.221639627510083 L-2.67913397489497 -24.221639627510083 L-2.9389262614623552 -24.045084971874743 L-2.9389262614623552 -24.045084971874743 z"/>
<path fill="#e2c66c" stroke="#e2c66c" d="M-2.1288964578253484 -24.524135262330102 L-2.1288964578253484 -24.524135262330102 L-2.408768370508564 -24.381533400219322 L-2.408768370508564 -24.381533400219322 z"/>
<path fill="#e2c66c" stroke="#e2c66c" d="M-1.8406227634233763 -24.64888242944126 L-1.8406227634233763 -24.64888242944126 L-2.1288964578253484 -24.524135262330102 L-2.1288964578253484 -24.524135262330102 z"/>
<path fill="#e2c66c" stroke="#e2c66c" d="M-1.2434494358242592 -24.84291580564316 L-1.2434494358242592 -24.84291580564316 L-1.545084971874721 -24.75528258147577 L-1.545084971874721 -24.75528258147577 z"/>
<path fill="#e2c66c" stroke="#e2c66c" d="M-1.5450849718747208 -24.75528258147577 L-1.5450849718747208 -24.75528258147577 L-1.8406227634233763 -24.64888242944126 L-1.8406227634233763 -24.64888242944126 z"/>
<path fill="#e2c66c" stroke="#e2c66c" d="M-0.6266661678215052 -24.96057350657239 L-0.6266661678215052 -24.96057350657239 L-0.9369065729286056 -24.911436253643444 L-0.9369065729286056 -24.911436253643444 z"/>
<path fill="#e2c66c" stroke="#e2c66c" d="M-0.9369065729286056 -24.911436253643444 L-0.9369065729286056 -24.911436253643444 L-1.2434494358242592 -24.84291580564316 L-1.2434494358242592 -24.84291580564316 z"/>
<path fill="#e2c66c" stroke="#e2c66c" d="M-0.31395259764655264 -24.99013364214136 L-0.31395259764655264 -24.99013364214136 L-0.6266661678215052 -24.96057350657239 L-0.6266661678215052 -24.96057350657239 z"/>
<path fill="#e2c66c" stroke="#e2c66c" d="M3.0616169978683826e-16 -24.999999999999996 L3.0616169978683826e-16 -24.999999999999996 L-0.31395259764655264 -24.99013364214136 L-0.31395259764655264 -24.99013364214136 z"/>
<path fill="#e2c66c" stroke="#e2c66c" d="M0.6266661678215224 -24.960573506572388 L0.31395259764656763 -24.990133642141355 L3.061616997868383e-16 -24.999999999999996 L-0.3139525976465527 -24.990133642141355 L-0.6266661678215053 -24.960573506572388 L-0.9369065729286057 -24.911436253643444 L-1.2434494358242594 -24.842915805643155 L-1.5450849718747213 -24.75528258147577 L-1.8406227634233765 -24.64888242944126 L-2.128896457825349 -24.524135262330102 L-2.4087683705085645 -24.381533400219322 L-2.6791339748949703 -24.22163962751008 L-2.9389262614623557 -24.04508497187474 L-3.1871199487434376 -23.85256621387895 L-3.422735529643433 -23.644843137107063 L-3.644843137107048 -23.42273552964345 L-3.852566213878938 -23.187119948743455 L-4.045084971874729 -22.938926261462374 L-4.2216396275100685 -22.67913397489499 L-4.381533400219312 -22.408768370508582 L-4.524135262330093 -22.12889645782537 L-4.648882429441253 -21.840622763423397 L-4.755282581475765 -21.545084971874743 L-4.842915805643154 -21.24344943582428 L-4.9114362536434415 -20.936906572928628 L-4.960573506572388 -20.62666616782153 L-4.990133642141357 -20.313952597646576 L-5 -20.000000000000007 L-4.990133642141358 -19.68604740235344 L-4.96057350657239 -19.37333383217849 L-4.911436253643445 -19.063093427071383 L-4.842915805643158 -18.756550564175733 L-4.755282581475771 -18.45491502812527 L-4.648882429441261 -18.159377236576617 L-4.524135262330102 -17.87110354217464 L-4.381533400219323 -17.59123162949143 L-4.22163962751008 -17.32086602510502 L-4.045084971874743 -17.061073738537637 L-3.8525662138789514 -16.812880051256556 L-3.644843137107063 -16.577264470356557 L-3.4227355296434485 -16.355156862892944 L-3.1871199487434554 -16.147433786121056 L-2.938926261462372 -15.954915028125265 L-2.67913397489499 -15.778360372489924 L-2.408768370508583 -15.618466599780684 L-2.1288964578253697 -15.475864737669902 L-1.840622763423396 -15.351117570558742 L-1.545084971874743 -15.24471741852423 L-1.2434494358242796 -15.157084194356843 L-0.9369065729286286 -15.088563746356556 L-0.6266661678215262 -15.039426493427609 L-0.3139525976465726 -15.00986635785864 L-5.244953423338945e-15 -14.999999999999998 L0.3139525976465621 -15.00986635785864 L0.6266661678215169 -15.039426493427609 L0.9369065729286192 -15.088563746356554 L1.2434494358242705 -15.157084194356843 L1.5450849718747341 -15.244717418524228 L1.8406227634233863 -15.35111757055874 L2.1288964578253604 -15.475864737669898 L2.408768370508574 -15.618466599780678 L2.679133974894981 -15.778360372489919 L2.938926261462364 -15.95491502812526 L3.187119948743447 -16.14743378612105 L3.422735529643442 -16.355156862892937 L3.6448431371070567 -16.577264470356553 L3.852566213878945 -16.812880051256545 L4.045084971874736 -17.06107373853763 L4.221639627510074 -17.320866025105012 L4.3815334002193165 -17.591231629491418 L4.5241352623300966 -17.871103542174634 L4.648882429441256 -18.159377236576603 L4.755282581475767 -18.454915028125257 L4.8429158056431545 -18.756550564175722 L4.911436253643443 -19.06309342707137 L4.960573506572389 -19.37333383217847 L4.990133642141358 -19.686047402353427 L5 -19.999999999999993 L4.990133642141358 -20.313952597646562 L4.9605735065723895 -20.626666167821515 L4.911436253643444 -20.936906572928617 L4.842915805643156 -21.243449435824267 L4.755282581475769 -21.54508497187473 L4.648882429441258 -21.840622763423383 L4.524135262330099 -22.12889645782536 L4.381533400219319 -22.40876837050857 L4.221639627510077 -22.679133974894977 L4.045084971874739 -22.93892626146236 L3.852566213878948 -23.187119948743444 L3.6448431371070598 -23.42273552964344 L3.422735529643446 -23.644843137107053 L3.187119948743451 -23.85256621387894 L2.9389262614623677 -24.045084971874733 L2.6791339748949854 -24.221639627510072 L2.4087683705085787 -24.38153340021931 L2.1288964578253653 -24.52413526233009 L1.8406227634233916 -24.648882429441255 L1.5450849718747384 -24.755282581475765 L1.243449435824275 -24.842915805643152 L0.9369065729286247 -24.91143625364344 z"/>
<path fill="#e2c66c" stroke="#e2c66c" d="M3.061616997868383e-16 -24.999999999999996 L0.31395259764656763 -24.990133642141355 L0.6266661678215224 -24.960573506572388 L0.9369065729286247 -24.91143625364344 L1.243449435824275 -24.842915805643152 L1.5450849718747384 -24.755282581475765 L1.8406227634233916 -24.648882429441255 L2.1288964578253653 -24.52413526233009 L2.4087683705085787 -24.38153340021931 L2.6791339748949854 -24.221639627510072 L2.9389262614623677 -24.045084971874733 L3.187119948743451 -23.85256621387894 L3.422735529643446 -23.644843137107053 L3.6448431371070598 -23.42273552964344 L3.852566213878948 -23.187119948743444 L4.045084971874739 -22.93892626146236 L4.221639627510077 -22.679133974894977 L4.381533400219319 -22.40876837050857 L4.524135262330099 -22.12889645782536 L4.648882429441258 -21.840622763423383 L4.755282581475769 -21.54508497187473 L4.842915805643156 -21.243449435824267 L4.911436253643444 -20.936906572928617 L4.9605735065723895 -20.626666167821515 L4.990133642141358 -20.313952597646562 L5 -19.999999999999993 L4.990133642141358 -19.686047402353427 L4.960573506572389 -19.37333383217847 L4.911436253643443 -19.06309342707137 L4.8429158056431545 -18.756550564175722 L4.755282581475767 -18.454915028125257 L4.648882429441256 -18.159377236576603 L4.5241352623300966 -17.871103542174634 L4.3815334002193165 -17.591231629491418 L4.221639627510074 -17.320866025105012 L4.045084971874736 -17.06107373853763 L3.852566213878945 -16.812880051256545 L3.6448431371070567 -16.577264470356553 L3.422735529643442 -16.355156862892937 L3.187119948743447 -16.14743378612105 L2.938926261462364 -15.95491502812526 L2.679133974894981 -15.778360372489919 L2.408768370508574 -15.618466599780678 L2.1288964578253604 -15.475864737669898 L1.8406227634233863 -15.35111757055874 L1.5450849718747341 -15.244717418524228 L1.2434494358242705 -15.157084194356843 L0.9369065729286192 -15.088563746356554 L0.6266661678215169 -15.039426493427609 L0.3139525976465621 -15.00986635785864 L-5.244953423338945e-15 -14.999999999999998 L-0.3139525976465726 -15.00986635785864 L-0.6266661678215262 -15.039426493427609 L-0.9369065729286286 -15.088563746356556 L-1.2434494358242796 -15.157084194356843 L-1.545084971874743 -15.24471741852423 L-1.840622763423396 -15.351117570558742 L-2.1288964578253697 -15.475864737669902 L-2.408768370508583 -15.618466599780684 L-2.67913397489499 -15.778360372489924 L-2.938926261462372 -15.954915028125265 L-3.1871199487434554 -16.147433786121056 L-3.4227355296434485 -16.355156862892944 L-3.644843137107063 -16.577264470356557 L-3.8525662138789514 -16.812880051256556 L-4.045084971874743 -17.061073738537637 L-4.22163962751008 -17.32086602510502 L-4.381533400219323 -17.59123162949143 L-4.524135262330102 -17.87110354217464 L-4.648882429441261 -18.159377236576617 L-4.755282581475771 -18.45491502812527 L-4.842915805643158 -18.756550564175733 L-4.911436253643445 -19.063093427071383 L-4.96057350657239 -19.37333383217849 L-4.990133642141358 -19.68604740235344 L-5 -20.000000000000007 L-4.990133642141357 -20.313952597646576 L-4.960573506572388 -20.62666616782153 L-4.9114362536434415 -20.936906572928628 L-4.842915805643154 -21.24344943582428 L-4.755282581475765 -21.545084971874743 L-4.648882429441253 -21.840622763423397 L-4.524135262330093 -22.12889645782537 L-4.381533400219312 -22.408768370508582 L-4.2216396275100685 -22.67913397489499 L-4.045084971874729 -22.938926261462374 L-3.852566213878938 -23.187119948743455 L-3.644843137107048 -23.42273552964345 L-3.422735529643433 -23.644843137107063 L-3.1871199487434376 -23.85256621387895 L-2.9389262614623557 -24.04508497187474 L-2.6791339748949703 -24.22163962751008 L-2.4087683705085645 -24.381533400219322 L-2.128896457825349 -24.524135262330102 L-1.8406227634233765 -24.64888242944126 L-1.5450849718747213 -24.75528258147577 L-1.2434494358242594 -24.842915805643155 L-0.9369065729286057 -24.911436253643444 L-0.6266661678215053 -24.960573506572388 L-0.3139525976465527 -24.990133642141355 z"/>
<path fill="none" stroke="#e2c66c" d="M4.951055438580679 26.492482232939526 L4.702861751299595 26.685000990935322"/>
<path fill="none" stroke="#e2c66c" d="M-3.6237882682677243 27.314850915942657 L-4.172703860345801 27.021449419279904"/>
<path fill="none" stroke="#e2c66c" d="M4.172703860345806 27.0214494192799 L3.6237882682677274 27.314850915942653"/>
<path fill="none" stroke="#e2c66c" d="M-0.3139525976465527 28.165133642141356 L-0.6266661678215053 28.13557350657239"/>
<path fill="none" stroke="#e2c66c" d="M-3.0556426611825365 27.582199945164593 L-3.3439163555845086 27.457452778053437"/>
<path fill="none" stroke="#e2c66c" d="M3.0556426611825405 27.582199945164593 L2.7601048696338872 27.688600097199107"/>
<path fill="none" stroke="#e2c66c" d="M1.8628612082254696 27.95690907092341 L1.5563183453298195 28.025429518923698"/>
<path fill="none" stroke="#e2c66c" d="M-1.8628612082254665 27.956909070923412 L-2.164496744275928 27.86927584675603"/>
<path fill="none" stroke="#e2c66c" d="M-2.164496744275928 27.86927584675603 L-2.760104869633881 27.688600097199107"/>
<path fill="none" stroke="#e2c66c" d="M1.5563183453298195 28.025429518923698 L1.2460779402227171 28.07456677185264"/>
<path fill="none" stroke="#e2c66c" d="M-1.2460779402227125 28.074566771852645 L-1.5563183453298128 28.025429518923698"/>
<path fill="none" stroke="#e2c66c" d="M0.6266661678215224 28.135573506572385 L0.31395259764656763 28.165133642141356"/>
<path fill="none" stroke="#e2c66c" d="M1.2460779402227171 28.07456677185264 L0.6266661678215224 28.135573506572385"/>
<path fill="none" stroke="#e2c66c" d="M-0.6266661678215053 28.13557350657239 L-1.2460779402227125 28.074566771852645"/>
<path fill="none" stroke="#e2c66c" d="M0.31395259764656763 28.165133642141356 L3.061616997868383e-16 28.174999999999997"/>
<path fill="none" stroke="#e2c66c" d="M3.061616997868383e-16 28.174999999999997 L-0.3139525976465527 28.165133642141356"/>
<path fill="none" stroke="#e2c66c" d="M-1.5563183453298128 28.025429518923698 L-1.8628612082254665 27.956909070923412"/>
<path fill="none" stroke="#e2c66c" d="M2.164496744275933 27.869275846756025 L1.8628612082254696 27.95690907092341"/>
<path fill="none" stroke="#e2c66c" d="M2.7601048696338872 27.688600097199107 L2.164496744275933 27.869275846756025"/>
<path fill="none" stroke="#e2c66c" d="M-2.760104869633881 27.688600097199107 L-3.0556426611825365 27.582199945164593"/>
<path fill="none" stroke="#e2c66c" d="M3.343916355584514 27.457452778053433 L3.0556426611825405 27.582199945164593"/>
<path fill="none" stroke="#e2c66c" d="M-3.3439163555845086 27.457452778053437 L-3.6237882682677243 27.314850915942657"/>
<path fill="none" stroke="#e2c66c" d="M3.6237882682677274 27.314850915942653 L3.343916355584514 27.457452778053433"/>
<path fill="none" stroke="#e2c66c" d="M-4.172703860345801 27.021449419279904 L-4.443069464732207 26.86155564657066"/>
<path fill="none" stroke="#e2c66c" d="M4.443069464732213 26.861555646570658 L4.172703860345806 27.0214494192799"/>
<path fill="none" stroke="#e2c66c" d="M-4.443069464732207 26.86155564657066 L-4.702861751299592 26.685000990935322"/>
<path fill="none" stroke="#e2c66c" d="M4.702861751299595 26.685000990935322 L4.443069464732213 26.861555646570658"/>
<path fill="none" stroke="#e2c66c" d="M-4.702861751299592 26.685000990935322 L-4.951055438580674 26.492482232939533"/>
<path fill="none" stroke="#e2c66c" d="M-4.951055438580674 26.492482232939533 L-5.432183979010725 26.09763024414624"/>
<path fill="none" stroke="#e2c66c" d="M5.432183979010731 26.097630244146238 L4.951055438580679 26.492482232939526"/>
<path fill="none" stroke="#e2c66c" d="M-5.432183979010725 26.09763024414624 L-5.667799559910721 25.889907167374353"/>
<path fill="none" stroke="#e2c66c" d="M5.667799559910726 25.88990716737435 L5.432183979010731 26.097630244146238"/>
<path fill="none" stroke="#e2c66c" d="M-5.667799559910721 25.889907167374353 L-5.889907167374336 25.667799559910737"/>
<path fill="none" stroke="#e2c66c" d="M5.88990716737434 25.667799559910733 L5.667799559910726 25.88990716737435"/>
<path fill="none" stroke="#e2c66c" d="M-5.889907167374336 25.667799559910737 L-6.097630244146226 25.432183979010745"/>
<path fill="none" stroke="#e2c66c" d="M6.097630244146228 25.432183979010738 L5.88990716737434 25.667799559910733"/>
<path fill="none" stroke="#e2c66c" d="M-6.097630244146226 25.432183979010745 L-6.492482232939519 24.951055438580692"/>
<path fill="none" stroke="#e2c66c" d="M6.492482232939523 24.95105543858069 L6.097630244146228 25.432183979010738"/>
<path fill="none" stroke="#e2c66c" d="M-6.492482232939519 24.951055438580692 L-6.68500099093531 24.702861751299608"/>
<path fill="none" stroke="#e2c66c" d="M6.685000990935314 24.702861751299604 L6.492482232939523 24.95105543858069"/>
<path fill="none" stroke="#e2c66c" d="M-6.68500099093531 24.702861751299608 L-6.8615556465706495 24.443069464732226"/>
<path fill="none" stroke="#e2c66c" d="M6.861555646570652 24.443069464732222 L6.685000990935314 24.702861751299604"/>
<path fill="none" stroke="#e2c66c" d="M-6.8615556465706495 24.443069464732226 L-7.021449419279893 24.17270386034582"/>
<path fill="none" stroke="#e2c66c" d="M7.021449419279894 24.172703860345816 L6.861555646570652 24.443069464732222"/>
<path fill="none" stroke="#e2c66c" d="M-7.021449419279893 24.17270386034582 L-7.314850915942647 23.62378826826774"/>
<path fill="none" stroke="#e2c66c" d="M7.3148509159426505 23.623788268267738 L7.021449419279894 24.172703860345816"/>
<path fill="none" stroke="#e2c66c" d="M-7.314850915942647 23.62378826826774 L-7.457452778053428 23.34391635558453"/>
<path fill="none" stroke="#e2c66c" d="M7.4574527780534305 23.343916355584525 L7.3148509159426505 23.623788268267738"/>
<path fill="none" stroke="#e2c66c" d="M-7.457452778053428 23.34391635558453 L-7.582199945164588 23.055642661182556"/>
<path fill="none" stroke="#e2c66c" d="M7.582199945164589 23.055642661182553 L7.4574527780534305 23.343916355584525"/>
<path fill="none" stroke="#e2c66c" d="M-7.582199945164588 23.055642661182556 L-7.6886000971990995 22.760104869633906"/>
<path fill="none" stroke="#e2c66c" d="M7.6886000971991 22.7601048696339 L7.582199945164589 23.055642661182553"/>
<path fill="none" stroke="#e2c66c" d="M-7.6886000971990995 22.760104869633906 L-7.869275846756021 22.16449674427595"/>
<path fill="none" stroke="#e2c66c" d="M7.8692758467560235 22.164496744275947 L7.6886000971991 22.7601048696339"/>
<path fill="none" stroke="#e2c66c" d="M-7.869275846756021 22.16449674427595 L-7.95690907092341 21.86286120822549"/>
<path fill="none" stroke="#e2c66c" d="M7.956909070923411 21.862861208225485 L7.8692758467560235 22.164496744275947"/>
<path fill="none" stroke="#e2c66c" d="M-7.95690907092341 21.86286120822549 L-8.025429518923698 21.556318345329835"/>
<path fill="none" stroke="#e2c66c" d="M8.025429518923698 21.55631834532983 L7.956909070923411 21.862861208225485"/>
<path fill="none" stroke="#e2c66c" d="M-8.025429518923698 21.556318345329835 L-8.074566771852643 21.246077940222737"/>
<path fill="none" stroke="#e2c66c" d="M8.074566771852643 21.246077940222733 L8.025429518923698 21.55631834532983"/>
<path fill="none" stroke="#e2c66c" d="M-8.074566771852643 21.246077940222737 L-8.135573506572387 20.62666616782153"/>
<path fill="none" stroke="#e2c66c" d="M8.135573506572388 20.626666167821522 L8.074566771852643 21.246077940222733"/>
<path fill="none" stroke="#e2c66c" d="M-8.135573506572387 20.62666616782153 L-8.165133642141356 20.313952597646576"/>
<path fill="none" stroke="#e2c66c" d="M8.165133642141358 20.31395259764657 L8.135573506572388 20.626666167821522"/>
<path fill="none" stroke="#e2c66c" d="M-8.165133642141356 20.313952597646576 L-8.174999999999999 20.000000000000007"/>
<path fill="none" stroke="#e2c66c" d="M8.174999999999999 20.000000000000004 L8.165133642141358 20.31395259764657"/>
<path fill="none" stroke="#e2c66c" d="M-8.174999999999999 20.000000000000007 L-8.165133642141358 19.68604740235344"/>
<path fill="none" stroke="#e2c66c" d="M8.135573506572388 19.37333383217848 L8.165133642141358 19.686047402353438"/>
<path fill="none" stroke="#e2c66c" d="M-8.074566771852647 18.75392205977728 L-8.025429518923701 18.443681654670176"/>
<path fill="none" stroke="#e2c66c" d="M-7.956909070923414 18.137138791774525 L-7.869275846756027 17.835503255724063"/>
<path fill="none" stroke="#e2c66c" d="M-7.869275846756027 17.835503255724063 L-7.688600097199106 17.23989513036611"/>
<path fill="none" stroke="#e2c66c" d="M7.582199945164594 16.94435733881745 L7.688600097199105 17.2398951303661"/>
<path fill="none" stroke="#e2c66c" d="M-7.457452778053437 16.65608364441548 L-7.314850915942658 16.37621173173227"/>
<path fill="none" stroke="#e2c66c" d="M-7.021449419279904 15.827296139654194 L-6.861555646570661 15.556930535267785"/>
<path fill="none" stroke="#e2c66c" d="M-6.861555646570661 15.556930535267785 L-6.685000990935324 15.297138248700403"/>
<path fill="none" stroke="#e2c66c" d="M6.492482232939529 15.048944561419317 L6.68500099093532 15.297138248700398"/>
<path fill="none" stroke="#e2c66c" d="M-6.09763024414624 14.567816020989266 L-5.889907167374351 14.332200440089274"/>
<path fill="none" stroke="#e2c66c" d="M-5.667799559910737 14.110092832625655 L-5.432183979010744 13.90236975585377"/>
<path fill="none" stroke="#e2c66c" d="M-5.432183979010744 13.90236975585377 L-4.951055438580692 13.507517767060477"/>
<path fill="none" stroke="#e2c66c" d="M4.702861751299604 13.314999009064682 L4.9510554385806875 13.507517767060472"/>
<path fill="none" stroke="#e2c66c" d="M-4.443069464732226 13.138444353429346 L-4.17270386034582 12.978550580720102"/>
<path fill="none" stroke="#e2c66c" d="M-3.623788268267742 12.685149084057349 L-3.3439163555845286 12.542547221946567"/>
<path fill="none" stroke="#e2c66c" d="M-3.3439163555845286 12.542547221946567 L-3.0556426611825547 12.417800054835407"/>
<path fill="none" stroke="#e2c66c" d="M2.7601048696338975 12.311399902800893 L3.05564266118255 12.417800054835407"/>
<path fill="none" stroke="#e2c66c" d="M1.8628612082254807 12.043090929076588 L2.164496744275944 12.130724153243973"/>
<path fill="none" stroke="#e2c66c" d="M1.246077940222727 11.925433228147353 L1.5563183453298295 11.974570481076297"/>
<path fill="none" stroke="#e2c66c" d="M0.6266661678215192 11.86442649342761 L1.246077940222727 11.925433228147353"/>
<path fill="none" stroke="#e2c66c" d="M0.31395259764656447 11.834866357858639 L0.6266661678215192 11.86442649342761"/>
<path fill="none" stroke="#e2c66c" d="M-0.6266661678215237 11.86442649342761 L-0.31395259764657013 11.834866357858642"/>
<path fill="none" stroke="#e2c66c" d="M-1.2460779402227316 11.925433228147353 L-0.6266661678215237 11.86442649342761"/>
<path fill="none" stroke="#e2c66c" d="M-0.31395259764657013 11.834866357858642 L-2.813812299520332e-15 11.825"/>
<path fill="none" stroke="#e2c66c" d="M-2.813812299520332e-15 11.825 L0.31395259764656447 11.834866357858639"/>
<path fill="none" stroke="#e2c66c" d="M-1.556318345329834 11.9745704810763 L-1.2460779402227316 11.925433228147353"/>
<path fill="none" stroke="#e2c66c" d="M1.5563183453298295 11.974570481076297 L1.8628612082254807 12.043090929076588"/>
<path fill="none" stroke="#e2c66c" d="M-1.862861208225485 12.043090929076586 L-1.556318345329834 11.9745704810763"/>
<path fill="none" stroke="#e2c66c" d="M-2.164496744275948 12.130724153243975 L-1.862861208225485 12.043090929076586"/>
<path fill="none" stroke="#e2c66c" d="M2.164496744275944 12.130724153243973 L2.7601048696338975 12.311399902800893"/>
<path fill="none" stroke="#e2c66c" d="M-2.760104869633902 12.311399902800895 L-2.164496744275948 12.130724153243975"/>
<path fill="none" stroke="#e2c66c" d="M-3.0556426611825547 12.417800054835407 L-2.760104869633902 12.311399902800895"/>
<path fill="none" stroke="#e2c66c" d="M3.05564266118255 12.417800054835407 L3.3439163555845237 12.542547221946565"/>
<path fill="none" stroke="#e2c66c" d="M3.3439163555845237 12.542547221946565 L3.623788268267737 12.685149084057343"/>
<path fill="none" stroke="#e2c66c" d="M3.623788268267737 12.685149084057343 L4.172703860345814 12.9785505807201"/>
<path fill="none" stroke="#e2c66c" d="M-4.17270386034582 12.978550580720102 L-3.623788268267742 12.685149084057349"/>
<path fill="none" stroke="#e2c66c" d="M4.172703860345814 12.9785505807201 L4.443069464732221 13.138444353429342"/>
<path fill="none" stroke="#e2c66c" d="M4.443069464732221 13.138444353429342 L4.702861751299604 13.314999009064682"/>
<path fill="none" stroke="#e2c66c" d="M-4.702861751299609 13.314999009064683 L-4.443069464732226 13.138444353429346"/>
<path fill="none" stroke="#e2c66c" d="M-4.951055438580692 13.507517767060477 L-4.702861751299609 13.314999009064683"/>
<path fill="none" stroke="#e2c66c" d="M4.9510554385806875 13.507517767060472 L5.4321839790107385 13.902369755853766"/>
<path fill="none" stroke="#e2c66c" d="M5.4321839790107385 13.902369755853766 L5.667799559910733 14.110092832625654"/>
<path fill="none" stroke="#e2c66c" d="M5.667799559910733 14.110092832625654 L5.889907167374348 14.332200440089268"/>
<path fill="none" stroke="#e2c66c" d="M-5.889907167374351 14.332200440089274 L-5.667799559910737 14.110092832625655"/>
<path fill="none" stroke="#e2c66c" d="M5.889907167374348 14.332200440089268 L6.097630244146237 14.567816020989264"/>
<path fill="none" stroke="#e2c66c" d="M6.097630244146237 14.567816020989264 L6.492482232939529 15.048944561419317"/>
<path fill="none" stroke="#e2c66c" d="M-6.492482232939532 15.048944561419319 L-6.09763024414624 14.567816020989266"/>
<path fill="none" stroke="#e2c66c" d="M-6.685000990935324 15.297138248700403 L-6.492482232939532 15.048944561419319"/>
<path fill="none" stroke="#e2c66c" d="M6.68500099093532 15.297138248700398 L6.8615556465706575 15.556930535267782"/>
<path fill="none" stroke="#e2c66c" d="M6.8615556465706575 15.556930535267782 L7.0214494192799 15.827296139654187"/>
<path fill="none" stroke="#e2c66c" d="M7.0214494192799 15.827296139654187 L7.314850915942654 16.376211731732266"/>
<path fill="none" stroke="#e2c66c" d="M-7.314850915942658 16.37621173173227 L-7.021449419279904 15.827296139654194"/>
<path fill="none" stroke="#e2c66c" d="M7.314850915942654 16.376211731732266 L7.457452778053434 16.656083644415478"/>
<path fill="none" stroke="#e2c66c" d="M7.457452778053434 16.656083644415478 L7.582199945164594 16.94435733881745"/>
<path fill="none" stroke="#e2c66c" d="M-7.582199945164596 16.944357338817458 L-7.457452778053437 16.65608364441548"/>
<path fill="none" stroke="#e2c66c" d="M-7.688600097199106 17.23989513036611 L-7.582199945164596 16.944357338817458"/>
<path fill="none" stroke="#e2c66c" d="M7.688600097199105 17.2398951303661 L7.869275846756025 17.835503255724056"/>
<path fill="none" stroke="#e2c66c" d="M7.869275846756025 17.835503255724056 L7.9569090709234125 18.13713879177452"/>
<path fill="none" stroke="#e2c66c" d="M7.9569090709234125 18.13713879177452 L8.025429518923701 18.44368165467017"/>
<path fill="none" stroke="#e2c66c" d="M-8.025429518923701 18.443681654670176 L-7.956909070923414 18.137138791774525"/>
<path fill="none" stroke="#e2c66c" d="M8.025429518923701 18.44368165467017 L8.074566771852647 18.753922059777274"/>
<path fill="none" stroke="#e2c66c" d="M8.074566771852647 18.753922059777274 L8.135573506572388 19.37333383217848"/>
<path fill="none" stroke="#e2c66c" d="M-8.13557350657239 19.37333383217849 L-8.074566771852647 18.75392205977728"/>
<path fill="none" stroke="#e2c66c" d="M-8.165133642141358 19.68604740235344 L-8.13557350657239 19.37333383217849"/>
<path fill="none" stroke="#e2c66c" d="M8.165133642141358 19.686047402353438 L8.174999999999999 20.000000000000004"/>
<path fill="none" stroke="#e2c66c" d="M4.951055438580679 26.492482232939526 L4.702861751299595 26.685000990935322"/>
<path fill="none" stroke="#e2c66c" d="M-3.6237882682677243 27.314850915942657 L-4.172703860345801 27.021449419279904"/>
<path fill="none" stroke="#e2c66c" d="M4.172703860345806 27.0214494192799 L3.6237882682677274 27.314850915942653"/>
<path fill="none" stroke="#e2c66c" d="M-0.3139525976465527 28.165133642141356 L-0.6266661678215053 28.13557350657239"/>
<path fill="none" stroke="#e2c66c" d="M-3.0556426611825365 27.582199945164593 L-3.3439163555845086 27.457452778053437"/>
<path fill="none" stroke="#e2c66c" d="M3.0556426611825405 27.582199945164593 L2.7601048696338872 27.688600097199107"/>
<path fill="none" stroke="#e2c66c" d="M1.8628612082254696 27.95690907092341 L1.5563183453298195 28.025429518923698"/>
<path fill="none" stroke="#e2c66c" d="M-1.8628612082254665 27.956909070923412 L-2.164496744275928 27.86927584675603"/>
<path fill="none" stroke="#e2c66c" d="M-2.164496744275928 27.86927584675603 L-2.760104869633881 27.688600097199107"/>
<path fill="none" stroke="#e2c66c" d="M1.5563183453298195 28.025429518923698 L1.2460779402227171 28.07456677185264"/>
<path fill="none" stroke="#e2c66c" d="M-1.2460779402227125 28.074566771852645 L-1.5563183453298128 28.025429518923698"/>
<path fill="none" stroke="#e2c66c" d="M0.6266661678215224 28.135573506572385 L0.31395259764656763 28.165133642141356"/>
<path fill="none" stroke="#e2c66c" d="M1.2460779402227171 28.07456677185264 L0.6266661678215224 28.135573506572385"/>
<path fill="none" stroke="#e2c66c" d="M-0.6266661678215053 28.13557350657239 L-1.2460779402227125 28.074566771852645"/>
<path fill="none" stroke="#e2c66c" d="M0.31395259764656763 28.165133642141356 L3.061616997868383e-16 28.174999999999997"/>
<path fill="none" stroke="#e2c66c" d="M3.061616997868383e-16 28.174999999999997 L-0.3139525976465527 28.165133642141356"/>
<path fill="none" stroke="#e2c66c" d="M-1.5563183453298128 28.025429518923698 L-1.8628612082254665 27.956909070923412"/>
<path fill="none" stroke="#e2c66c" d="M2.164496744275933 27.869275846756025 L1.8628612082254696 27.95690907092341"/>
<path fill="none" stroke="#e2c66c" d="M2.7601048696338872 27.688600097199107 L2.164496744275933 27.869275846756025"/>
<path fill="none" stroke="#e2c66c" d="M-2.760104869633881 27.688600097199107 L-3.0556426611825365 27.582199945164593"/>
<path fill="none" stroke="#e2c66c" d="M3.343916355584514 27.457452778053433 L3.0556426611825405 27.582199945164593"/>
<path fill="none" stroke="#e2c66c" d="M-3.3439163555845086 27.457452778053437 L-3.6237882682677243 27.314850915942657"/>
<path fill="none" stroke="#e2c66c" d="M3.6237882682677274 27.314850915942653 L3.343916355584514 27.457452778053433"/>
<path fill="none" stroke="#e2c66c" d="M-4.172703860345801 27.021449419279904 L-4.443069464732207 26.86155564657066"/>
<path fill="none" stroke="#e2c66c" d="M4.443069464732213 26.861555646570658 L4.172703860345806 27.0214494192799"/>
<path fill="none" stroke="#e2c66c" d="M-4.443069464732207 26.86155564657066 L-4.702861751299592 26.685000990935322"/>
<path fill="none" stroke="#e2c66c" d="M4.702861751299595 26.685000990935322 L4.443069464732213 26.861555646570658"/>
<path fill="none" stroke="#e2c66c" d="M-4.702861751299592 26.685000990935322 L-4.951055438580674 26.492482232939533"/>
<path fill="none" stroke="#e2c66c" d="M-4.951055438580674 26.492482232939533 L-5.432183979010725 26.09763024414624"/>
<path fill="none" stroke="#e2c66c" d="M5.432183979010731 26.097630244146238 L4.951055438580679 26.492482232939526"/>
<path fill="none" stroke="#e2c66c" d="M-5.432183979010725 26.09763024414624 L-5.667799559910721 25.889907167374353"/>
<path fill="none" stroke="#e2c66c" d="M5.667799559910726 25.88990716737435 L5.432183979010731 26.097630244146238"/>
<path fill="none" stroke="#e2c66c" d="M-5.667799559910721 25.889907167374353 L-5.889907167374336 25.667799559910737"/>
<path fill="none" stroke="#e2c66c" d="M5.88990716737434 25.667799559910733 L5.667799559910726 25.88990716737435"/>
<path fill="none" stroke="#e2c66c" d="M-5.889907167374336 25.667799559910737 L-6.097630244146226 25.432183979010745"/>
<path fill="none" stroke="#e2c66c" d="M6.097630244146228 25.432183979010738 L5.88990716737434 25.667799559910733"/>
<path fill="none" stroke="#e2c66c" d="M-6.097630244146226 25.432183979010745 L-6.492482232939519 24.951055438580692"/>
<path fill="none" stroke="#e2c66c" d="M6.492482232939523 24.95105543858069 L6.097630244146228 25.432183979010738"/>
<path fill="none" stroke="#e2c66c" d="M-6.492482232939519 24.951055438580692 L-6.68500099093531 24.702861751299608"/>
<path fill="none" stroke="#e2c66c" d="M6.685000990935314 24.702861751299604 L6.492482232939523 24.95105543858069"/>
<path fill="none" stroke="#e2c66c" d="M-6.68500099093531 24.702861751299608 L-6.8615556465706495 24.443069464732226"/>
<path fill="none" stroke="#e2c66c" d="M6.861555646570652 24.443069464732222 L6.685000990935314 24.702861751299604"/>
<path fill="none" stroke="#e2c66c" d="M-6.8615556465706495 24.443069464732226 L-7.021449419279893 24.17270386034582"/>
<path fill="none" stroke="#e2c66c" d="M7.021449419279894 24.172703860345816 L6.861555646570652 24.443069464732222"/>
<path fill="none" stroke="#e2c66c" d="M-7.021449419279893 24.17270386034582 L-7.314850915942647 23.62378826826774"/>
<path fill="none" stroke="#e2c66c" d="M7.3148509159426505 23.623788268267738 L7.021449419279894 24.172703860345816"/>
<path fill="none" stroke="#e2c66c" d="M-7.314850915942647 23.62378826826774 L-7.457452778053428 23.34391635558453"/>
<path fill="none" stroke="#e2c66c" d="M7.4574527780534305 23.343916355584525 L7.3148509159426505 23.623788268267738"/>
<path fill="none" stroke="#e2c66c" d="M-7.457452778053428 23.34391635558453 L-7.582199945164588 23.055642661182556"/>
<path fill="none" stroke="#e2c66c" d="M7.582199945164589 23.055642661182553 L7.4574527780534305 23.343916355584525"/>
<path fill="none" stroke="#e2c66c" d="M-7.582199945164588 23.055642661182556 L-7.6886000971990995 22.760104869633906"/>
<path fill="none" stroke="#e2c66c" d="M7.6886000971991 22.7601048696339 L7.582199945164589 23.055642661182553"/>
<path fill="none" stroke="#e2c66c" d="M-7.6886000971990995 22.760104869633906 L-7.869275846756021 22.16449674427595"/>
<path fill="none" stroke="#e2c66c" d="M7.8692758467560235 22.164496744275947 L7.6886000971991 22.7601048696339"/>
<path fill="none" stroke="#e2c66c" d="M-7.869275846756021 22.16449674427595 L-7.95690907092341 21.86286120822549"/>
<path fill="none" stroke="#e2c66c" d="M7.956909070923411 21.862861208225485 L7.8692758467560235 22.164496744275947"/>
<path fill="none" stroke="#e2c66c" d="M-7.95690907092341 21.86286120822549 L-8.025429518923698 21.556318345329835"/>
<path fill="none" stroke="#e2c66c" d="M8.025429518923698 21.55631834532983 L7.956909070923411 21.862861208225485"/>
<path fill="none" stroke="#e2c66c" d="M-8.025429518923698 21.556318345329835 L-8.074566771852643 21.246077940222737"/>
<path fill="none" stroke="#e2c66c" d="M8.074566771852643 21.246077940222733 L8.025429518923698 21.55631834532983"/>
<path fill="none" stroke="#e2c66c" d="M-8.074566771852643 21.246077940222737 L-8.135573506572387 20.62666616782153"/>
<path fill="none" stroke="#e2c66c" d="M8.135573506572388 20.626666167821522 L8.074566771852643 21.246077940222733"/>
<path fill="none" stroke="#e2c66c" d="M-8.135573506572387 20.62666616782153 L-8.165133642141356 20.313952597646576"/>
<path fill="none" stroke="#e2c66c" d="M8.165133642141358 20.31395259764657 L8.135573506572388 20.626666167821522"/>
<path fill="none" stroke="#e2c66c" d="M-8.165133642141356 20.313952597646576 L-8.174999999999999 20.000000000000007"/>
<path fill="none" stroke="#e2c66c" d="M8.174999999999999 20.000000000000004 L8.165133642141358 20.31395259764657"/>
<path fill="none" stroke="#e2c66c" d="M-8.174999999999999 20.000000000000007 L-8.165133642141358 19.68604740235344"/>
<path fill="none" stroke="#e2c66c" d="M8.135573506572388 19.37333383217848 L8.165133642141358 19.686047402353438"/>
<path fill="none" stroke="#e2c66c" d="M-8.074566771852647 18.75392205977728 L-8.025429518923701 18.443681654670176"/>
<path fill="none" stroke="#e2c66c" d="M-7.956909070923414 18.137138791774525 L-7.869275846756027 17.835503255724063"/>
<path fill="none" stroke="#e2c66c" d="M-7.869275846756027 17.835503255724063 L-7.688600097199106 17.23989513036611"/>
<path fill="none" stroke="#e2c66c" d="M7.582199945164594 16.94435733881745 L7.688600097199105 17.2398951303661"/>
<path fill="none" stroke="#e2c66c" d="M-7.457452778053437 16.65608364441548 L-7.314850915942658 16.37621173173227"/>
<path fill="none" stroke="#e2c66c" d="M-7.021449419279904 15.827296139654194 L-6.861555646570661 15.556930535267785"/>
<path fill="none" stroke="#e2c66c" d="M-6.861555646570661 15.556930535267785 L-6.685000990935324 15.297138248700403"/>
<path fill="none" stroke="#e2c66c" d="M6.492482232939529 15.048944561419317 L6.68500099093532 15.297138248700398"/>
<path fill="none" stroke="#e2c66c" d="M-6.09763024414624 14.567816020989266 L-5.889907167374351 14.332200440089274"/>
<path fill="none" stroke="#e2c66c" d="M-5.667799559910737 14.110092832625655 L-5.432183979010744 13.90236975585377"/>
<path fill="none" stroke="#e2c66c" d="M-5.432183979010744 13.90236975585377 L-4.951055438580692 13.507517767060477"/>
<path fill="none" stroke="#e2c66c" d="M4.702861751299604 13.314999009064682 L4.9510554385806875 13.507517767060472"/>
<path fill="none" stroke="#e2c66c" d="M-4.443069464732226 13.138444353429346 L-4.17270386034582 12.978550580720102"/>
<path fill="none" stroke="#e2c66c" d="M-3.623788268267742 12.685149084057349 L-3.3439163555845286 12.542547221946567"/>
<path fill="none" stroke="#e2c66c" d="M-3.3439163555845286 12.542547221946567 L-3.0556426611825547 12.417800054835407"/>
<path fill="none" stroke="#e2c66c" d="M2.7601048696338975 12.311399902800893 L3.05564266118255 12.417800054835407"/>
<path fill="none" stroke="#e2c66c" d="M1.8628612082254807 12.043090929076588 L2.164496744275944 12.130724153243973"/>
<path fill="none" stroke="#e2c66c" d="M1.246077940222727 11.925433228147353 L1.5563183453298295 11.974570481076297"/>
<path fill="none" stroke="#e2c66c" d="M0.6266661678215192 11.86442649342761 L1.246077940222727 11.925433228147353"/>
<path fill="none" stroke="#e2c66c" d="M0.31395259764656447 11.834866357858639 L0.6266661678215192 11.86442649342761"/>
<path fill="none" stroke="#e2c66c" d="M-0.6266661678215237 11.86442649342761 L-0.31395259764657013 11.834866357858642"/>
<path fill="none" stroke="#e2c66c" d="M-1.2460779402227316 11.925433228147353 L-0.6266661678215237 11.86442649342761"/>
<path fill="none" stroke="#e2c66c" d="M-0.31395259764657013 11.834866357858642 L-2.813812299520332e-15 11.825"/>
<path fill="none" stroke="#e2c66c" d="M-2.813812299520332e-15 11.825 L0.31395259764656447 11.834866357858639"/>
<path fill="none" stroke="#e2c66c" d="M-1.556318345329834 11.9745704810763 L-1.2460779402227316 11.925433228147353"/>
<path fill="none" stroke="#e2c66c" d="M1.5563183453298295 11.974570481076297 L1.8628612082254807 12.043090929076588"/>
<path fill="none" stroke="#e2c66c" d="M-1.862861208225485 12.043090929076586 L-1.556318345329834 11.9745704810763"/>
<path fill="none" stroke="#e2c66c" d="M-2.164496744275948 12.130724153243975 L-1.862861208225485 12.043090929076586"/>
<path fill="none" stroke="#e2c66c" d="M2.164496744275944 12.130724153243973 L2.7601048696338975 12.311399902800893"/>
<path fill="none" stroke="#e2c66c" d="M-2.760104869633902 12.311399902800895 L-2.164496744275948 12.130724153243975"/>
<path fill="none" stroke="#e2c66c" d="M-3.0556426611825547 12.417800054835407 L-2.760104869633902 12.311399902800895"/>
<path fill="none" stroke="#e2c66c" d="M3.05564266118255 12.417800054835407 L3.3439163555845237 12.542547221946565"/>
<path fill="none" stroke="#e2c66c" d="M3.3439163555845237 12.542547221946565 L3.623788268267737 12.685149084057343"/>
<path fill="none" stroke="#e2c66c" d="M3.623788268267737 12.685149084057343 L4.172703860345814 12.9785505807201"/>
<path fill="none" stroke="#e2c66c" d="M-4.17270386034582 12.978550580720102 L-3.623788268267742 12.685149084057349"/>
<path fill="none" stroke="#e2c66c" d="M4.172703860345814 12.9785505807201 L4.443069464732221 13.138444353429342"/>
<path fill="none" stroke="#e2c66c" d="M4.443069464732221 13.138444353429342 L4.702861751299604 13.314999009064682"/>
<path fill="none" stroke="#e2c66c" d="M-4.702861751299609 13.314999009064683 L-4.443069464732226 13.138444353429346"/>
<path fill="none" stroke="#e2c66c" d="M-4.951055438580692 13.507517767060477 L-4.702861751299609 13.314999009064683"/>
<path fill="none" stroke="#e2c66c" d="M4.9510554385806875 13.507517767060472 L5.4321839790107385 13.902369755853766"/>
<path fill="none" stroke="#e2c66c" d="M5.4321839790107385 13.902369755853766 L5.667799559910733 14.110092832625654"/>
<path fill="none" stroke="#e2c66c" d="M5.667799559910733 14.110092832625654 L5.889907167374348 14.332200440089268"/>
<path fill="none" stroke="#e2c66c" d="M-5.889907167374351 14.332200440089274 L-5.667799559910737 14.110092832625655"/>
<path fill="none" stroke="#e2c66c" d="M5.889907167374348 14.332200440089268 L6.097630244146237 14.567816020989264"/>
<path fill="none" stroke="#e2c66c" d="M6.097630244146237 14.567816020989264 L6.492482232939529 15.048944561419317"/>
<path fill="none" stroke="#e2c66c" d="M-6.492482232939532 15.048944561419319 L-6.09763024414624 14.567816020989266"/>
<path fill="none" stroke="#e2c66c" d="M-6.685000990935324 15.297138248700403 L-6.492482232939532 15.048944561419319"/>
<path fill="none" stroke="#e2c66c" d="M6.68500099093532 15.297138248700398 L6.8615556465706575 15.556930535267782"/>
<path fill="none" stroke="#e2c66c" d="M6.8615556465706575 15.556930535267782 L7.0214494192799 15.827296139654187"/>
<path fill="none" stroke="#e2c66c" d="M7.0214494192799 15.827296139654187 L7.314850915942654 16.376211731732266"/>
<path fill="none" stroke="#e2c66c" d="M-7.314850915942658 16.37621173173227 L-7.021449419279904 15.827296139654194"/>
<path fill="none" stroke="#e2c66c" d="M7.314850915942654 16.376211731732266 L7.457452778053434 16.656083644415478"/>
<path fill="none" stroke="#e2c66c" d="M7.457452778053434 16.656083644415478 L7.582199945164594 16.94435733881745"/>
<path fill="none" stroke="#e2c66c" d="M-7.582199945164596 16.944357338817458 L-7.457452778053437 16.65608364441548"/>
<path fill="none" stroke="#e2c66c" d="M-7.688600097199106 17.23989513036611 L-7.582199945164596 16.944357338817458"/>
<path fill="none" stroke="#e2c66c" d="M7.688600097199105 17.2398951303661 L7.869275846756025 17.835503255724056"/>
<path fill="none" stroke="#e2c66c" d="M7.869275846756025 17.835503255724056 L7.9569090709234125 18.13713879177452"/>
<path fill="none" stroke="#e2c66c" d="M7.9569090709234125 18.13713879177452 L8.025429518923701 18.44368165467017"/>
<path fill="none" stroke="#e2c66c" d="M-8.025429518923701 18.443681654670176 L-7.956909070923414 18.137138791774525"/>
<path fill="none" stroke="#e2c66c" d="M8.025429518923701 18.44368165467017 L8.074566771852647 18.753922059777274"/>
<path fill="none" stroke="#e2c66c" d="M8.074566771852647 18.753922059777274 L8.135573506572388 19.37333383217848"/>
<path fill="none" stroke="#e2c66c" d="M-8.13557350657239 19.37333383217849 L-8.074566771852647 18.75392205977728"/>
<path fill="none" stroke="#e2c66c" d="M-8.165133642141358 19.68604740235344 L-8.13557350657239 19.37333383217849"/>
<path fill="none" stroke="#e2c66c" d="M8.165133642141358 19.686047402353438 L8.174999999999999 20.000000000000004"/>
<path fill="none" stroke="#e2c66c" d="M4.951055438580679 26.492482232939526 L4.702861751299595 26.685000990935322"/>
<path fill="none" stroke="#e2c66c" d="M-3.6237882682677243 27.314850915942657 L-4.172703860345801 27.021449419279904"/>
<path fill="none" stroke="#e2c66c" d="M4.172703860345806 27.0214494192799 L3.6237882682677274 27.314850915942653"/>
<path fill="none" stroke="#e2c66c" d="M-0.3139525976465527 28.165133642141356 L-0.6266661678215053 28.13557350657239"/>
<path fill="none" stroke="#e2c66c" d="M-3.0556426611825365 27.582199945164593 L-3.3439163555845086 27.457452778053437"/>
<path fill="none" stroke="#e2c66c" d="M3.0556426611825405 27.582199945164593 L2.7601048696338872 27.688600097199107"/>
<path fill="none" stroke="#e2c66c" d="M1.8628612082254696 27.95690907092341 L1.5563183453298195 28.025429518923698"/>
<path fill="none" stroke="#e2c66c" d="M-1.8628612082254665 27.956909070923412 L-2.164496744275928 27.86927584675603"/>
<path fill="none" stroke="#e2c66c" d="M-2.164496744275928 27.86927584675603 L-2.760104869633881 27.688600097199107"/>
<path fill="none" stroke="#e2c66c" d="M1.5563183453298195 28.025429518923698 L1.2460779402227171 28.07456677185264"/>
<path fill="none" stroke="#e2c66c" d="M-1.2460779402227125 28.074566771852645 L-1.5563183453298128 28.025429518923698"/>
<path fill="none" stroke="#e2c66c" d="M0.6266661678215224 28.135573506572385 L0.31395259764656763 28.165133642141356"/>
<path fill="none" stroke="#e2c66c" d="M1.2460779402227171 28.07456677185264 L0.6266661678215224 28.135573506572385"/>
<path fill="none" stroke="#e2c66c" d="M-0.6266661678215053 28.13557350657239 L-1.2460779402227125 28.074566771852645"/>
<path fill="none" stroke="#e2c66c" d="M0.31395259764656763 28.165133642141356 L3.061616997868383e-16 28.174999999999997"/>
<path fill="none" stroke="#e2c66c" d="M3.061616997868383e-16 28.174999999999997 L-0.3139525976465527 28.165133642141356"/>
<path fill="none" stroke="#e2c66c" d="M-1.5563183453298128 28.025429518923698 L-1.8628612082254665 27.956909070923412"/>
<path fill="none" stroke="#e2c66c" d="M2.164496744275933 27.869275846756025 L1.8628612082254696 27.95690907092341"/>
<path fill="none" stroke="#e2c66c" d="M2.7601048696338872 27.688600097199107 L2.164496744275933 27.869275846756025"/>
<path fill="none" stroke="#e2c66c" d="M-2.760104869633881 27.688600097199107 L-3.0556426611825365 27.582199945164593"/>
<path fill="none" stroke="#e2c66c" d="M3.343916355584514 27.457452778053433 L3.0556426611825405 27.582199945164593"/>
<path fill="none" stroke="#e2c66c" d="M-3.3439163555845086 27.457452778053437 L-3.6237882682677243 27.314850915942657"/>
<path fill="none" stroke="#e2c66c" d="M3.6237882682677274 27.314850915942653 L3.343916355584514 27.457452778053433"/>
<path fill="none" stroke="#e2c66c" d="M-4.172703860345801 27.021449419279904 L-4.443069464732207 26.86155564657066"/>
<path fill="none" stroke="#e2c66c" d="M4.443069464732213 26.861555646570658 L4.172703860345806 27.0214494192799"/>
<path fill="none" stroke="#e2c66c" d="M-4.443069464732207 26.86155564657066 L-4.702861751299592 26.685000990935322"/>
<path fill="none" stroke="#e2c66c" d="M4.702861751299595 26.685000990935322 L4.443069464732213 26.861555646570658"/>
<path fill="none" stroke="#e2c66c" d="M-4.702861751299592 26.685000990935322 L-4.951055438580674 26.492482232939533"/>
<path fill="none" stroke="#e2c66c" d="M-4.951055438580674 26.492482232939533 L-5.432183979010725 26.09763024414624"/>
<path fill="none" stroke="#e2c66c" d="M5.432183979010731 26.097630244146238 L4.951055438580679 26.492482232939526"/>
<path fill="none" stroke="#e2c66c" d="M-5.432183979010725 26.09763024414624 L-5.667799559910721 25.889907167374353"/>
<path fill="none" stroke="#e2c66c" d="M5.667799559910726 25.88990716737435 L5.432183979010731 26.097630244146238"/>
<path fill="none" stroke="#e2c66c" d="M-5.667799559910721 25.889907167374353 L-5.889907167374336 25.667799559910737"/>
<path fill="none" stroke="#e2c66c" d="M5.88990716737434 25.667799559910733 L5.667799559910726 25.88990716737435"/>
<path fill="none" stroke="#e2c66c" d="M-5.889907167374336 25.667799559910737 L-6.097630244146226 25.432183979010745"/>
<path fill="none" stroke="#e2c66c" d="M6.097630244146228 25.432183979010738 L5.88990716737434 25.667799559910733"/>
<path fill="none" stroke="#e2c66c" d="M-6.097630244146226 25.432183979010745 L-6.492482232939519 24.951055438580692"/>
<path fill="none" stroke="#e2c66c" d="M6.492482232939523 24.95105543858069 L6.097630244146228 25.432183979010738"/>
<path fill="none" stroke="#e2c66c" d="M-6.492482232939519 24.951055438580692 L-6.68500099093531 24.702861751299608"/>
<path fill="none" stroke="#e2c66c" d="M6.685000990935314 24.702861751299604 L6.492482232939523 24.95105543858069"/>
<path fill="none" stroke="#e2c66c" d="M-6.68500099093531 24.702861751299608 L-6.8615556465706495 24.443069464732226"/>
<path fill="none" stroke="#e2c66c" d="M6.861555646570652 24.443069464732222 L6.685000990935314 24.702861751299604"/>
<path fill="none" stroke="#e2c66c" d="M-6.8615556465706495 24.443069464732226 L-7.021449419279893 24.17270386034582"/>
<path fill="none" stroke="#e2c66c" d="M7.021449419279894 24.172703860345816 L6.861555646570652 24.443069464732222"/>
<path fill="none" stroke="#e2c66c" d="M-7.021449419279893 24.17270386034582 L-7.314850915942647 23.62378826826774"/>
<path fill="none" stroke="#e2c66c" d="M7.3148509159426505 23.623788268267738 L7.021449419279894 24.172703860345816"/>
<path fill="none" stroke="#e2c66c" d="M-7.314850915942647 23.62378826826774 L-7.457452778053428 23.34391635558453"/>
<path fill="none" stroke="#e2c66c" d="M7.4574527780534305 23.343916355584525 L7.3148509159426505 23.623788268267738"/>
<path fill="none" stroke="#e2c66c" d="M-7.457452778053428 23.34391635558453 L-7.582199945164588 23.055642661182556"/>
<path fill="none" stroke="#e2c66c" d="M7.582199945164589 23.055642661182553 L7.4574527780534305 23.343916355584525"/>
<path fill="none" stroke="#e2c66c" d="M-7.582199945164588 23.055642661182556 L-7.6886000971990995 22.760104869633906"/>
<path fill="none" stroke="#e2c66c" d="M7.6886000971991 22.7601048696339 L7.582199945164589 23.055642661182553"/>
<path fill="none" stroke="#e2c66c" d="M-7.6886000971990995 22.760104869633906 L-7.869275846756021 22.16449674427595"/>
<path fill="none" stroke="#e2c66c" d="M7.8692758467560235 22.164496744275947 L7.6886000971991 22.7601048696339"/>
<path fill="none" stroke="#e2c66c" d="M-7.869275846756021 22.16449674427595 L-7.95690907092341 21.86286120822549"/>
<path fill="none" stroke="#e2c66c" d="M7.956909070923411 21.862861208225485 L7.8692758467560235 22.164496744275947"/>
<path fill="none" stroke="#e2c66c" d="M-7.95690907092341 21.86286120822549 L-8.025429518923698 21.556318345329835"/>
<path fill="none" stroke="#e2c66c" d="M8.025429518923698 21.55631834532983 L7.956909070923411 21.862861208225485"/>
<path fill="none" stroke="#e2c66c" d="M-8.025429518923698 21.556318345329835 L-8.074566771852643 21.246077940222737"/>
<path fill="none" stroke="#e2c66c" d="M8.074566771852643 21.246077940222733 L8.025429518923698 21.55631834532983"/>
<path fill="none" stroke="#e2c66c" d="M-8.074566771852643 21.246077940222737 L-8.135573506572387 20.62666616782153"/>
<path fill="none" stroke="#e2c66c" d="M8.135573506572388 20.626666167821522 L8.074566771852643 21.246077940222733"/>
<path fill="none" stroke="#e2c66c" d="M-8.135573506572387 20.62666616782153 L-8.165133642141356 20.313952597646576"/>
<path fill="none" stroke="#e2c66c" d="M8.165133642141358 20.31395259764657 L8.135573506572388 20.626666167821522"/>
<path fill="none" stroke="#e2c66c" d="M-8.165133642141356 20.313952597646576 L-8.174999999999999 20.000000000000007"/>
<path fill="none" stroke="#e2c66c" d="M8.174999999999999 20.000000000000004 L8.165133642141358 20.31395259764657"/>
<path fill="none" stroke="#e2c66c" d="M-8.174999999999999 20.000000000000007 L-8.165133642141358 19.68604740235344"/>
<path fill="none" stroke="#e2c66c" d="M8.135573506572388 19.37333383217848 L8.165133642141358 19.686047402353438"/>
<path fill="none" stroke="#e2c66c" d="M-8.074566771852647 18.75392205977728 L-8.025429518923701 18.443681654670176"/>
<path fill="none" stroke="#e2c66c" d="M-7.956909070923414 18.137138791774525 L-7.869275846756027 17.835503255724063"/>
<path fill="none" stroke="#e2c66c" d="M-7.869275846756027 17.835503255724063 L-7.688600097199106 17.23989513036611"/>
<path fill="none" stroke="#e2c66c" d="M7.582199945164594 16.94435733881745 L7.688600097199105 17.2398951303661"/>
<path fill="none" stroke="#e2c66c" d="M-7.457452778053437 16.65608364441548 L-7.314850915942658 16.37621173173227"/>
<path fill="none" stroke="#e2c66c" d="M-7.021449419279904 15.827296139654194 L-6.861555646570661 15.556930535267785"/>
<path fill="none" stroke="#e2c66c" d="M-6.861555646570661 15.556930535267785 L-6.685000990935324 15.297138248700403"/>
<path fill="none" stroke="#e2c66c" d="M6.492482232939529 15.048944561419317 L6.68500099093532 15.297138248700398"/>
<path fill="none" stroke="#e2c66c" d="M-6.09763024414624 14.567816020989266 L-5.889907167374351 14.332200440089274"/>
<path fill="none" stroke="#e2c66c" d="M-5.667799559910737 14.110092832625655 L-5.432183979010744 13.90236975585377"/>
<path fill="none" stroke="#e2c66c" d="M-5.432183979010744 13.90236975585377 L-4.951055438580692 13.507517767060477"/>
<path fill="none" stroke="#e2c66c" d="M4.702861751299604 13.314999009064682 L4.9510554385806875 13.507517767060472"/>
<path fill="none" stroke="#e2c66c" d="M-4.443069464732226 13.138444353429346 L-4.17270386034582 12.978550580720102"/>
<path fill="none" stroke="#e2c66c" d="M-3.623788268267742 12.685149084057349 L-3.3439163555845286 12.542547221946567"/>
<path fill="none" stroke="#e2c66c" d="M-3.3439163555845286 12.542547221946567 L-3.0556426611825547 12.417800054835407"/>
<path fill="none" stroke="#e2c66c" d="M2.7601048696338975 12.311399902800893 L3.05564266118255 12.417800054835407"/>
<path fill="none" stroke="#e2c66c" d="M1.8628612082254807 12.043090929076588 L2.164496744275944 12.130724153243973"/>
<path fill="none" stroke="#e2c66c" d="M1.246077940222727 11.925433228147353 L1.5563183453298295 11.974570481076297"/>
<path fill="none" stroke="#e2c66c" d="M0.6266661678215192 11.86442649342761 L1.246077940222727 11.925433228147353"/>
<path fill="none" stroke="#e2c66c" d="M0.31395259764656447 11.834866357858639 L0.6266661678215192 11.86442649342761"/>
<path fill="none" stroke="#e2c66c" d="M-0.6266661678215237 11.86442649342761 L-0.31395259764657013 11.834866357858642"/>
<path fill="none" stroke="#e2c66c" d="M-1.2460779402227316 11.925433228147353 L-0.6266661678215237 11.86442649342761"/>
<path fill="none" stroke="#e2c66c" d="M-0.31395259764657013 11.834866357858642 L-2.813812299520332e-15 11.825"/>
<path fill="none" stroke="#e2c66c" d="M-2.813812299520332e-15 11.825 L0.31395259764656447 11.834866357858639"/>
<path fill="none" stroke="#e2c66c" d="M-1.556318345329834 11.9745704810763 L-1.2460779402227316 11.925433228147353"/>
<path fill="none" stroke="#e2c66c" d="M1.5563183453298295 11.974570481076297 L1.8628612082254807 12.043090929076588"/>
<path fill="none" stroke="#e2c66c" d="M-1.862861208225485 12.043090929076586 L-1.556318345329834 11.9745704810763"/>
<path fill="none" stroke="#e2c66c" d="M-2.164496744275948 12.130724153243975 L-1.862861208225485 12.043090929076586"/>
<path fill="none" stroke="#e2c66c" d="M2.164496744275944 12.130724153243973 L2.7601048696338975 12.311399902800893"/>
<path fill="none" stroke="#e2c66c" d="M-2.760104869633902 12.311399902800895 L-2.164496744275948 12.130724153243975"/>
<path fill="none" stroke="#e2c66c" d="M-3.0556426611825547 12.417800054835407 L-2.760104869633902 12.311399902800895"/>
<path fill="none" stroke="#e2c66c" d="M3.05564266118255 12.417800054835407 L3.3439163555845237 12.542547221946565"/>
<path fill="none" stroke="#e2c66c" d="M3.3439163555845237 12.542547221946565 L3.623788268267737 12.685149084057343"/>
<path fill="none" stroke="#e2c66c" d="M3.623788268267737 12.685149084057343 L4.172703860345814 12.9785505807201"/>
<path fill="none" stroke="#e2c66c" d="M-4.17270386034582 12.978550580720102 L-3.623788268267742 12.685149084057349"/>
<path fill="none" stroke="#e2c66c" d="M4.172703860345814 12.9785505807201 L4.443069464732221 13.138444353429342"/>
<path fill="none" stroke="#e2c66c" d="M4.443069464732221 13.138444353429342 L4.702861751299604 13.314999009064682"/>
<path fill="none" stroke="#e2c66c" d="M-4.702861751299609 13.314999009064683 L-4.443069464732226 13.138444353429346"/>
<path fill="none" stroke="#e2c66c" d="M-4.951055438580692 13.507517767060477 L-4.702861751299609 13.314999009064683"/>
<path fill="none" stroke="#e2c66c" d="M4.9510554385806875 13.507517767060472 L5.4321839790107385 13.902369755853766"/>
<path fill="none" stroke="#e2c66c" d="M5.4321839790107385 13.902369755853766 L5.667799559910733 14.110092832625654"/>
<path fill="none" stroke="#e2c66c" d="M5.667799559910733 14.110092832625654 L5.889907167374348 14.332200440089268"/>
<path fill="none" stroke="#e2c66c" d="M-5.889907167374351 14.332200440089274 L-5.667799559910737 14.110092832625655"/>
<path fill="none" stroke="#e2c66c" d="M5.889907167374348 14.332200440089268 L6.097630244146237 14.567816020989264"/>
<path fill="none" stroke="#e2c66c" d="M6.097630244146237 14.567816020989264 L6.492482232939529 15.048944561419317"/>
<path fill="none" stroke="#e2c66c" d="M-6.492482232939532 15.048944561419319 L-6.09763024414624 14.567816020989266"/>
<path fill="none" stroke="#e2c66c" d="M-6.685000990935324 15.297138248700403 L-6.492482232939532 15.048944561419319"/>
<path fill="none" stroke="#e2c66c" d="M6.68500099093532 15.297138248700398 L6.8615556465706575 15.556930535267782"/>
<path fill="none" stroke="#e2c66c" d="M6.8615556465706575 15.556930535267782 L7.0214494192799 15.827296139654187"/>
<path fill="none" stroke="#e2c66c" d="M7.0214494192799 15.827296139654187 L7.314850915942654 16.376211731732266"/>
<path fill="none" stroke="#e2c66c" d="M-7.314850915942658 16.37621173173227 L-7.021449419279904 15.827296139654194"/>
<path fill="none" stroke="#e2c66c" d="M7.314850915942654 16.376211731732266 L7.457452778053434 16.656083644415478"/>
<path fill="none" stroke="#e2c66c" d="M7.457452778053434 16.656083644415478 L7.582199945164594 16.94435733881745"/>
<path fill="none" stroke="#e2c66c" d="M-7.582199945164596 16.944357338817458 L-7.457452778053437 16.65608364441548"/>
<path fill="none" stroke="#e2c66c" d="M-7.688600097199106 17.23989513036611 L-7.582199945164596 16.944357338817458"/>
<path fill="none" stroke="#e2c66c" d="M7.688600097199105 17.2398951303661 L7.869275846756025 17.835503255724056"/>
<path fill="none" stroke="#e2c66c" d="M7.869275846756025 17.835503255724056 L7.9569090709234125 18.13713879177452"/>
<path fill="none" stroke="#e2c66c" d="M7.9569090709234125 18.13713879177452 L8.025429518923701 18.44368165467017"/>
<path fill="none" stroke="#e2c66c" d="M-8.025429518923701 18.443681654670176 L-7.956909070923414 18.137138791774525"/>
<path fill="none" stroke="#e2c66c" d="M8.025429518923701 18.44368165467017 L8.074566771852647 18.753922059777274"/>
<path fill="none" stroke="#e2c66c" d="M8.074566771852647 18.753922059777274 L8.135573506572388 19.37333383217848"/>
<path fill="none" stroke="#e2c66c" d="M-8.13557350657239 19.37333383217849 L-8.074566771852647 18.75392205977728"/>
<path fill="none" stroke="#e2c66c" d="M-8.165133642141358 19.68604740235344 L-8.13557350657239 19.37333383217849"/>
<path fill="none" stroke="#e2c66c" d="M8.165133642141358 19.686047402353438 L8.174999999999999 20.000000000000004"/>
<path fill="none" stroke="#e2c66c" d="M4.951055438580679 26.492482232939526 L4.702861751299595 26.685000990935322"/>
<path fill="none" stroke="#e2c66c" d="M-3.6237882682677243 27.314850915942657 L-4.172703860345801 27.021449419279904"/>
<path fill="none" stroke="#e2c66c" d="M4.172703860345806 27.0214494192799 L3.6237882682677274 27.314850915942653"/>
<path fill="none" stroke="#e2c66c" d="M-0.3139525976465527 28.165133642141356 L-0.6266661678215053 28.13557350657239"/>
<path fill="none" stroke="#e2c66c" d="M-3.0556426611825365 27.582199945164593 L-3.3439163555845086 27.457452778053437"/>
<path fill="none" stroke="#e2c66c" d="M3.0556426611825405 27.582199945164593 L2.7601048696338872 27.688600097199107"/>
<path fill="none" stroke="#e2c66c" d="M1.8628612082254696 27.95690907092341 L1.5563183453298195 28.025429518923698"/>
<path fill="none" stroke="#e2c66c" d="M-1.8628612082254665 27.956909070923412 L-2.164496744275928 27.86927584675603"/>
<path fill="none" stroke="#e2c66c" d="M-2.164496744275928 27.86927584675603 L-2.760104869633881 27.688600097199107"/>
<path fill="none" stroke="#e2c66c" d="M1.5563183453298195 28.025429518923698 L1.2460779402227171 28.07456677185264"/>
<path fill="none" stroke="#e2c66c" d="M-1.2460779402227125 28.074566771852645 L-1.5563183453298128 28.025429518923698"/>
<path fill="none" stroke="#e2c66c" d="M0.6266661678215224 28.135573506572385 L0.31395259764656763 28.165133642141356"/>
<path fill="none" stroke="#e2c66c" d="M1.2460779402227171 28.07456677185264 L0.6266661678215224 28.135573506572385"/>
<path fill="none" stroke="#e2c66c" d="M-0.6266661678215053 28.13557350657239 L-1.2460779402227125 28.074566771852645"/>
<path fill="none" stroke="#e2c66c" d="M0.31395259764656763 28.165133642141356 L3.061616997868383e-16 28.174999999999997"/>
<path fill="none" stroke="#e2c66c" d="M3.061616997868383e-16 28.174999999999997 L-0.3139525976465527 28.165133642141356"/>
<path fill="none" stroke="#e2c66c" d="M-1.5563183453298128 28.025429518923698 L-1.8628612082254665 27.956909070923412"/>
<path fill="none" stroke="#e2c66c" d="M2.164496744275933 27.869275846756025 L1.8628612082254696 27.95690907092341"/>
<path fill="none" stroke="#e2c66c" d="M2.7601048696338872 27.688600097199107 L2.164496744275933 27.869275846756025"/>
<path fill="none" stroke="#e2c66c" d="M-2.760104869633881 27.688600097199107 L-3.0556426611825365 27.582199945164593"/>
<path fill="none" stroke="#e2c66c" d="M3.343916355584514 27.457452778053433 L3.0556426611825405 27.582199945164593"/>
<path fill="none" stroke="#e2c66c" d="M-3.3439163555845086 27.457452778053437 L-3.6237882682677243 27.314850915942657"/>
<path fill="none" stroke="#e2c66c" d="M3.6237882682677274 27.314850915942653 L3.343916355584514 27.457452778053433"/>
<path fill="none" stroke="#e2c66c" d="M-4.172703860345801 27.021449419279904 L-4.443069464732207 26.86155564657066"/>
<path fill="none" stroke="#e2c66c" d="M4.443069464732213 26.861555646570658 L4.172703860345806 27.0214494192799"/>
<path fill="none" stroke="#e2c66c" d="M-4.443069464732207 26.86155564657066 L-4.702861751299592 26.685000990935322"/>
<path fill="none" stroke="#e2c66c" d="M4.702861751299595 26.685000990935322 L4.443069464732213 26.861555646570658"/>
<path fill="none" stroke="#e2c66c" d="M-4.702861751299592 26.685000990935322 L-4.951055438580674 26.492482232939533"/>
<path fill="none" stroke="#e2c66c" d="M-4.951055438580674 26.492482232939533 L-5.432183979010725 26.09763024414624"/>
<path fill="none" stroke="#e2c66c" d="M5.432183979010731 26.097630244146238 L4.951055438580679 26.492482232939526"/>
<path fill="none" stroke="#e2c66c" d="M-5.432183979010725 26.09763024414624 L-5.667799559910721 25.889907167374353"/>
<path fill="none" stroke="#e2c66c" d="M5.667799559910726 25.88990716737435 L5.432183979010731 26.097630244146238"/>
<path fill="none" stroke="#e2c66c" d="M-5.667799559910721 25.889907167374353 L-5.889907167374336 25.667799559910737"/>
<path fill="none" stroke="#e2c66c" d="M5.88990716737434 25.667799559910733 L5.667799559910726 25.88990716737435"/>
<path fill="none" stroke="#e2c66c" d="M-5.889907167374336 25.667799559910737 L-6.097630244146226 25.432183979010745"/>
<path fill="none" stroke="#e2c66c" d="M6.097630244146228 25.432183979010738 L5.88990716737434 25.667799559910733"/>
<path fill="none" stroke="#e2c66c" d="M-6.097630244146226 25.432183979010745 L-6.492482232939519 24.951055438580692"/>
<path fill="none" stroke="#e2c66c" d="M6.492482232939523 24.95105543858069 L6.097630244146228 25.432183979010738"/>
<path fill="none" stroke="#e2c66c" d="M-6.492482232939519 24.951055438580692 L-6.68500099093531 24.702861751299608"/>
<path fill="none" stroke="#e2c66c" d="M6.685000990935314 24.702861751299604 L6.492482232939523 24.95105543858069"/>
<path fill="none" stroke="#e2c66c" d="M-6.68500099093531 24.702861751299608 L-6.8615556465706495 24.443069464732226"/>
<path fill="none" stroke="#e2c66c" d="M6.861555646570652 24.443069464732222 L6.685000990935314 24.702861751299604"/>
<path fill="none" stroke="#e2c66c" d="M-6.8615556465706495 24.443069464732226 L-7.021449419279893 24.17270386034582"/>
<path fill="none" stroke="#e2c66c" d="M7.021449419279894 24.172703860345816 L6.861555646570652 24.443069464732222"/>
<path fill="none" stroke="#e2c66c" d="M-7.021449419279893 24.17270386034582 L-7.314850915942647 23.62378826826774"/>
<path fill="none" stroke="#e2c66c" d="M7.3148509159426505 23.623788268267738 L7.021449419279894 24.172703860345816"/>
<path fill="none" stroke="#e2c66c" d="M-7.314850915942647 23.62378826826774 L-7.457452778053428 23.34391635558453"/>
<path fill="none" stroke="#e2c66c" d="M7.4574527780534305 23.343916355584525 L7.3148509159426505 23.623788268267738"/>
<path fill="none" stroke="#e2c66c" d="M-7.457452778053428 23.34391635558453 L-7.582199945164588 23.055642661182556"/>
<path fill="none" stroke="#e2c66c" d="M7.582199945164589 23.055642661182553 L7.4574527780534305 23.343916355584525"/>
<path fill="none" stroke="#e2c66c" d="M-7.582199945164588 23.055642661182556 L-7.6886000971990995 22.760104869633906"/>
<path fill="none" stroke="#e2c66c" d="M7.6886000971991 22.7601048696339 L7.582199945164589 23.055642661182553"/>
<path fill="none" stroke="#e2c66c" d="M-7.6886000971990995 22.760104869633906 L-7.869275846756021 22.16449674427595"/>
<path fill="none" stroke="#e2c66c" d="M7.8692758467560235 22.164496744275947 L7.6886000971991 22.7601048696339"/>
<path fill="none" stroke="#e2c66c" d="M-7.869275846756021 22.16449674427595 L-7.95690907092341 21.86286120822549"/>
<path fill="none" stroke="#e2c66c" d="M7.956909070923411 21.862861208225485 L7.8692758467560235 22.164496744275947"/>
<path fill="none" stroke="#e2c66c" d="M-7.95690907092341 21.86286120822549 L-8.025429518923698 21.556318345329835"/>
<path fill="none" stroke="#e2c66c" d="M8.025429518923698 21.55631834532983 L7.956909070923411 21.862861208225485"/>
<path fill="none" stroke="#e2c66c" d="M-8.025429518923698 21.556318345329835 L-8.074566771852643 21.246077940222737"/>
<path fill="none" stroke="#e2c66c" d="M8.074566771852643 21.246077940222733 L8.025429518923698 21.55631834532983"/>
<path fill="none" stroke="#e2c66c" d="M-8.074566771852643 21.246077940222737 L-8.135573506572387 20.62666616782153"/>
<path fill="none" stroke="#e2c66c" d="M8.135573506572388 20.626666167821522 L8.074566771852643 21.246077940222733"/>
<path fill="none" stroke="#e2c66c" d="M-8.135573506572387 20.62666616782153 L-8.165133642141356 20.313952597646576"/>
<path fill="none" stroke="#e2c66c" d="M8.165133642141358 20.31395259764657 L8.135573506572388 20.626666167821522"/>
<path fill="none" stroke="#e2c66c" d="M-8.165133642141356 20.313952597646576 L-8.174999999999999 20.000000000000007"/>
<path fill="none" stroke="#e2c66c" d="M8.174999999999999 20.000000000000004 L8.165133642141358 20.31395259764657"/>
<path fill="none" stroke="#e2c66c" d="M-8.174999999999999 20.000000000000007 L-8.165133642141358 19.68604740235344"/>
<path fill="none" stroke="#e2c66c" d="M8.135573506572388 19.37333383217848 L8.165133642141358 19.686047402353438"/>
<path fill="none" stroke="#e2c66c" d="M-8.074566771852647 18.75392205977728 L-8.025429518923701 18.443681654670176"/>
<path fill="none" stroke="#e2c66c" d="M-7.956909070923414 18.137138791774525 L-7.869275846756027 17.835503255724063"/>
<path fill="none" stroke="#e2c66c" d="M-7.869275846756027 17.835503255724063 L-7.688600097199106 17.23989513036611"/>
<path fill="none" stroke="#e2c66c" d="M7.582199945164594 16.94435733881745 L7.688600097199105 17.2398951303661"/>
<path fill="none" stroke="#e2c66c" d="M-7.457452778053437 16.65608364441548 L-7.314850915942658 16.37621173173227"/>
<path fill="none" stroke="#e2c66c" d="M-7.021449419279904 15.827296139654194 L-6.861555646570661 15.556930535267785"/>
<path fill="none" stroke="#e2c66c" d="M-6.861555646570661 15.556930535267785 L-6.685000990935324 15.297138248700403"/>
<path fill="none" stroke="#e2c66c" d="M6.492482232939529 15.048944561419317 L6.68500099093532 15.297138248700398"/>
<path fill="none" stroke="#e2c66c" d="M-6.09763024414624 14.567816020989266 L-5.889907167374351 14.332200440089274"/>
<path fill="none" stroke="#e2c66c" d="M-5.667799559910737 14.110092832625655 L-5.432183979010744 13.90236975585377"/>
<path fill="none" stroke="#e2c66c" d="M-5.432183979010744 13.90236975585377 L-4.951055438580692 13.507517767060477"/>
<path fill="none" stroke="#e2c66c" d="M4.702861751299604 13.314999009064682 L4.9510554385806875 13.507517767060472"/>
<path fill="none" stroke="#e2c66c" d="M-4.443069464732226 13.138444353429346 L-4.17270386034582 12.978550580720102"/>
<path fill="none" stroke="#e2c66c" d="M-3.623788268267742 12.685149084057349 L-3.3439163555845286 12.542547221946567"/>
<path fill="none" stroke="#e2c66c" d="M-3.3439163555845286 12.542547221946567 L-3.0556426611825547 12.417800054835407"/>
<path fill="none" stroke="#e2c66c" d="M2.7601048696338975 12.311399902800893 L3.05564266118255 12.417800054835407"/>
<path fill="none" stroke="#e2c66c" d="M1.8628612082254807 12.043090929076588 L2.164496744275944 12.130724153243973"/>
<path fill="none" stroke="#e2c66c" d="M1.246077940222727 11.925433228147353 L1.5563183453298295 11.974570481076297"/>
<path fill="none" stroke="#e2c66c" d="M0.6266661678215192 11.86442649342761 L1.246077940222727 11.925433228147353"/>
<path fill="none" stroke="#e2c66c" d="M0.31395259764656447 11.834866357858639 L0.6266661678215192 11.86442649342761"/>
<path fill="none" stroke="#e2c66c" d="M-0.6266661678215237 11.86442649342761 L-0.31395259764657013 11.834866357858642"/>
<path fill="none" stroke="#e2c66c" d="M-1.2460779402227316 11.925433228147353 L-0.6266661678215237 11.86442649342761"/>
<path fill="none" stroke="#e2c66c" d="M-0.31395259764657013 11.834866357858642 L-2.813812299520332e-15 11.825"/>
<path fill="none" stroke="#e2c66c" d="M-2.813812299520332e-15 11.825 L0.31395259764656447 11.834866357858639"/>
<path fill="none" stroke="#e2c66c" d="M-1.556318345329834 11.9745704810763 L-1.2460779402227316 11.925433228147353"/>
<path fill="none" stroke="#e2c66c" d="M1.5563183453298295 11.974570481076297 L1.8628612082254807 12.043090929076588"/>
<path fill="none" stroke="#e2c66c" d="M-1.862861208225485 12.043090929076586 L-1.556318345329834 11.9745704810763"/>
<path fill="none" stroke="#e2c66c" d="M-2.164496744275948 12.130724153243975 L-1.862861208225485 12.043090929076586"/>
<path fill="none" stroke="#e2c66c" d="M2.164496744275944 12.130724153243973 L2.7601048696338975 12.311399902800893"/>
<path fill="none" stroke="#e2c66c" d="M-2.760104869633902 12.311399902800895 L-2.164496744275948 12.130724153243975"/>
<path fill="none" stroke="#e2c66c" d="M-3.0556426611825547 12.417800054835407 L-2.760104869633902 12.311399902800895"/>
<path fill="none" stroke="#e2c66c" d="M3.05564266118255 12.417800054835407 L3.3439163555845237 12.542547221946565"/>
<path fill="none" stroke="#e2c66c" d="M3.3439163555845237 12.542547221946565 L3.623788268267737 12.685149084057343"/>
<path fill="none" stroke="#e2c66c" d="M3.623788268267737 12.685149084057343 L4.172703860345814 12.9785505807201"/>
<path fill="none" stroke="#e2c66c" d="M-4.17270386034582 12.978550580720102 L-3.623788268267742 12.685149084057349"/>
<path fill="none" stroke="#e2c66c" d="M4.172703860345814 12.9785505807201 L4.443069464732221 13.138444353429342"/>
<path fill="none" stroke="#e2c66c" d="M4.443069464732221 13.138444353429342 L4.702861751299604 13.314999009064682"/>
<path fill="none" stroke="#e2c66c" d="M-4.702861751299609 13.314999009064683 L-4.443069464732226 13.138444353429346"/>
<path fill="none" stroke="#e2c66c" d="M-4.951055438580692 13.507517767060477 L-4.702861751299609 13.314999009064683"/>
<path fill="none" stroke="#e2c66c" d="M4.9510554385806875 13.507517767060472 L5.4321839790107385 13.902369755853766"/>
<path fill="none" stroke="#e2c66c" d="M5.4321839790107385 13.902369755853766 L5.667799559910733 14.110092832625654"/>
<path fill="none" stroke="#e2c66c" d="M5.667799559910733 14.110092832625654 L5.889907167374348 14.332200440089268"/>
<path fill="none" stroke="#e2c66c" d="M-5.889907167374351 14.332200440089274 L-5.667799559910737 14.110092832625655"/>
<path fill="none" stroke="#e2c66c" d="M5.889907167374348 14.332200440089268 L6.097630244146237 14.567816020989264"/>
<path fill="none" stroke="#e2c66c" d="M6.097630244146237 14.567816020989264 L6.492482232939529 15.048944561419317"/>
<path fill="none" stroke="#e2c66c" d="M-6.492482232939532 15.048944561419319 L-6.09763024414624 14.567816020989266"/>
<path fill="none" stroke="#e2c66c" d="M-6.685000990935324 15.297138248700403 L-6.492482232939532 15.048944561419319"/>
<path fill="none" stroke="#e2c66c" d="M6.68500099093532 15.297138248700398 L6.8615556465706575 15.556930535267782"/>
<path fill="none" stroke="#e2c66c" d="M6.8615556465706575 15.556930535267782 L7.0214494192799 15.827296139654187"/>
<path fill="none" stroke="#e2c66c" d="M7.0214494192799 15.827296139654187 L7.314850915942654 16.376211731732266"/>
<path fill="none" stroke="#e2c66c" d="M-7.314850915942658 16.37621173173227 L-7.021449419279904 15.827296139654194"/>
<path fill="none" stroke="#e2c66c" d="M7.314850915942654 16.376211731732266 L7.457452778053434 16.656083644415478"/>
<path fill="none" stroke="#e2c66c" d="M7.457452778053434 16.656083644415478 L7.582199945164594 16.94435733881745"/>
<path fill="none" stroke="#e2c66c" d="M-7.582199945164596 16.944357338817458 L-7.457452778053437 16.65608364441548"/>
<path fill="none" stroke="#e2c66c" d="M-7.688600097199106 17.23989513036611 L-7.582199945164596 16.944357338817458"/>
<path fill="none" stroke="#e2c66c" d="M7.688600097199105 17.2398951303661 L7.869275846756025 17.835503255724056"/>
<path fill="none" stroke="#e2c66c" d="M7.869275846756025 17.835503255724056 L7.9569090709234125 18.13713879177452"/>
<path fill="none" stroke="#e2c66c" d="M7.9569090709234125 18.13713879177452 L8.025429518923701 18.44368165467017"/>
<path fill="none" stroke="#e2c66c" d="M-8.025429518923701 18.443681654670176 L-7.956909070923414 18.137138791774525"/>
<path fill="none" stroke="#e2c66c" d="M8.025429518923701 18.44368165467017 L8.074566771852647 18.753922059777274"/>
<path fill="none" stroke="#e2c66c" d="M8.074566771852647 18.753922059777274 L8.135573506572388 19.37333383217848"/>
<path fill="none" stroke="#e2c66c" d="M-8.13557350657239 19.37333383217849 L-8.074566771852647 18.75392205977728"/>
<path fill="none" stroke="#e2c66c" d="M-8.165133642141358 19.68604740235344 L-8.13557350657239 19.37333383217849"/>
<path fill="none" stroke="#e2c66c" d="M8.165133642141358 19.686047402353438 L8.174999999999999 20.000000000000004"/>
</svg>