<?xml version="1.0" encoding="UTF-8"?>
<!-- Generated by jsxcad -->
<!DOCTYPE svg PUBLIC "-//W3C//DTD SVG 1.1 Tiny//EN" "http://www.w3.org/Graphics/SVG/1.1/DTD/svg11-tiny.dtd">
<svg baseProfile="tiny" height="127.00593031744206mm" width="45.788013318534986mm" viewBox="-22.894006659267493 -75.98544200747058 45.788013318534986 127.00593031744206" version="1.1" stroke="black" stroke-width=".1" fill="none" xmlns="http://www.w3.org/2000/svg">
<path fill="#3c3c3c" stroke="#3c3c3c" d="M12.287163746048774 -17.285195608098338 L12.287163746048774 53.37470286905902 L12.500000000000002 55 L12.500000000000002 -15.65989847715735 z"/>
<path fill="#3c3c3c" stroke="#3c3c3c" d="M11.65590286755445 -18.85514519457417 L11.655902867554454 51.80475328258318 L12.287163746048778 53.374702869059014 L12.287163746048774 -17.285195608098338 z"/>
<path fill="#3c3c3c" stroke="#3c3c3c" d="M10.627714196620177 -20.31628448636442 L10.627714196620174 50.34361399079293 L11.655902867554456 51.80475328258318 L11.65590286755446 -18.855145194574174 z"/>
<path fill="#3c3c3c" stroke="#3c3c3c" d="M9.237611465258256 -21.618856137330578 L9.237611465258242 49.041042339826774 L10.627714196620188 50.34361399079293 L10.62771419662018 -20.316284486364424 z"/>
<path fill="#3c3c3c" stroke="#3c3c3c" d="M7.532932954740711 -22.718502632161492 L7.532932954740731 47.941395844995846 L9.237611465258246 49.041042339826774 L9.237611465258249 -21.61885613733057 z"/>
<path fill="#3c3c3c" stroke="#3c3c3c" d="M5.5717294472067245 -23.57777682835634 L5.5717294472067245 47.08212164880101 L7.532932954740703 47.941395844995824 L7.532932954740703 -22.71850263216152 z"/>
<path fill="#3c3c3c" stroke="#3c3c3c" d="M3.420787375901032 -24.167417173749424 L3.420787375901032 46.49248130340788 L5.5717294472067245 47.08212164880098 L5.5717294472067245 -23.57777682835632 z"/>
<path fill="#3c3c3c" stroke="#3c3c3c" d="M1.1533544932912716 -24.4673441735741 L1.1533544932912716 46.1925543035832 L3.420787375901032 46.49248130340788 L3.420787375901032 -24.16741717374943 z"/>
<path fill="#3c3c3c" stroke="#3c3c3c" d="M-1.1533544932912776 -24.46734417357412 L-1.1533544932912776 46.19255430358323 L1.1533544932912716 46.19255430358323 L1.1533544932912716 -24.467344173574123 z"/>
<path fill="#3c3c3c" stroke="#3c3c3c" d="M-3.4207873759010377 -24.167417173749435 L-3.4207873759010377 46.49248130340789 L-1.1533544932912776 46.19255430358322 L-1.1533544932912776 -24.46734417357411 z"/>
<path fill="#3c3c3c" stroke="#3c3c3c" d="M-5.571729447206732 -23.577776828356335 L-5.571729447206732 47.08212164880102 L-3.4207873759010377 46.49248130340792 L-3.4207873759010377 -24.16741717374944 z"/>
<path fill="#3c3c3c" stroke="#3c3c3c" d="M-7.532932954740707 -22.718502632161503 L-7.532932954740707 47.94139584499583 L-5.571729447206731 47.082121648801014 L-5.571729447206731 -23.577776828356317 z"/>
<path fill="#3c3c3c" stroke="#3c3c3c" d="M-9.237611465258256 -21.618856137330567 L-9.237611465258263 49.04104233982677 L-7.532932954740742 47.94139584499583 L-7.532932954740717 -22.718502632161492 z"/>
<path fill="#3c3c3c" stroke="#3c3c3c" d="M-10.627714196620191 -20.316284486364413 L-10.627714196620188 50.34361399079293 L-9.237611465258244 49.04104233982678 L-9.237611465258244 -21.618856137330575 z"/>
<path fill="#3c3c3c" stroke="#3c3c3c" d="M-11.65590286755445 -18.85514519457417 L-11.655902867554458 51.80475328258318 L-10.627714196620182 50.34361399079294 L-10.62771419662019 -20.316284486364417 z"/>
<path fill="#3c3c3c" stroke="#3c3c3c" d="M-12.287163746048767 -14.034601346216364 L-12.287163746048767 56.625297130940986 L-12.499999999999996 55.00000000000001 L-12.499999999999996 -15.659898477157347 z"/>
<path fill="#3c3c3c" stroke="#3c3c3c" d="M-12.287163746048778 -17.28519560809833 L-12.287163746048774 53.37470286905902 L-11.65590286755445 51.804753282583185 L-11.655902867554454 -18.855145194574167 z"/>
<path fill="#3c3c3c" stroke="#3c3c3c" d="M-12.5 -15.659898477157348 L-12.5 55.00000000000001 L-12.287163746048774 53.37470286905902 L-12.287163746048774 -17.28519560809833 z"/>
<path fill="#3c3c3c" stroke="#3c3c3c" d="M-9.237611465258228 -9.70094081698412 L-9.23761146525822 60.958957660173226 L-10.627714196620166 59.656386009207075 L-10.62771419662016 -11.003512467950285 z"/>
<path fill="#3c3c3c" stroke="#3c3c3c" d="M-11.65590286755444 -12.464651759740526 L-11.65590286755444 58.19524671741683 L-12.287163746048765 56.625297130940986 L-12.287163746048765 -14.034601346216366 z"/>
<path fill="#3c3c3c" stroke="#3c3c3c" d="M-10.62771419662016 -11.003512467950282 L-10.627714196620163 59.65638600920707 L-11.655902867554442 58.19524671741683 L-11.65590286755444 -12.464651759740526 z"/>
<path fill="#3c3c3c" stroke="#3c3c3c" d="M-7.53293295474069 -8.601294322153194 L-7.532932954740689 62.05860415500415 L-9.237611465258203 60.958957660173226 L-9.237611465258228 -9.700940816984113 z"/>
<path fill="#3c3c3c" stroke="#3c3c3c" d="M-5.571729447206724 -7.742020125958408 L-5.571729447206724 62.91787835119896 L-7.5329329547407 62.05860415500414 L-7.5329329547407 -8.601294322153223 z"/>
<path fill="#3c3c3c" stroke="#3c3c3c" d="M1.1533544932912756 -6.852452780740645 L1.1533544932912756 63.80744569641673 L-1.1533544932912674 63.80744569641673 L-1.1533544932912674 -6.852452780740644 z"/>
<path fill="#3c3c3c" stroke="#3c3c3c" d="M-3.4207873759010274 -7.152379780565308 L-3.4207873759010274 63.50751869659203 L-5.5717294472067245 62.91787835119893 L-5.5717294472067245 -7.742020125958411 z"/>
<path fill="#3c3c3c" stroke="#3c3c3c" d="M-1.1533544932912674 -6.852452780740626 L-1.1533544932912674 63.8074456964167 L-3.4207873759010274 63.50751869659203 L-3.4207873759010274 -7.1523797805652976 z"/>
<path fill="#3c3c3c" stroke="#3c3c3c" d="M3.4207873759010403 -7.152379780565314 L3.4207873759010403 63.50751869659203 L1.1533544932912756 63.8074456964167 L1.1533544932912756 -6.8524527807406415 z"/>
<path fill="#3c3c3c" stroke="#3c3c3c" d="M9.237611465258226 -9.700940816984119 L9.237611465258226 60.95895766017322 L7.532932954740673 62.05860415500413 L7.53293295474069 -8.601294322153198 z"/>
<path fill="#3c3c3c" stroke="#3c3c3c" d="M5.571729447206732 -7.742020125958414 L5.571729447206732 62.917878351198915 L3.4207873759010408 63.507518696592015 L3.4207873759010408 -7.152379780565312 z"/>
<path fill="#3c3c3c" stroke="#3c3c3c" d="M7.532932954740707 -8.601294322153217 L7.532932954740707 62.05860415500409 L5.571729447206731 62.91787835119891 L5.571729447206731 -7.742020125958401 z"/>
<path fill="#3c3c3c" stroke="#3c3c3c" d="M10.627714196620168 -11.003512467950282 L10.627714196620174 59.65638600920707 L9.237611465258226 60.958957660173226 L9.237611465258224 -9.700940816984131 z"/>
<path fill="#3c3c3c" stroke="#3c3c3c" d="M11.655902867554445 -12.464651759740537 L11.655902867554444 58.195246717416815 L10.627714196620175 59.65638600920707 L10.627714196620165 -11.003512467950287 z"/>
<path fill="#3c3c3c" stroke="#3c3c3c" d="M12.28716374604877 -14.03460134621637 L12.287163746048765 56.62529713094098 L11.655902867554444 58.195246717416815 L11.655902867554449 -12.464651759740537 z"/>
<path fill="#3c3c3c" stroke="#3c3c3c" d="M12.499999999999998 -15.659898477157352 L12.499999999999996 55 L12.28716374604877 56.625297130940986 L12.28716374604877 -14.03460134621637 z"/>
<path fill="#3c3c3c" stroke="#3c3c3c" d="M12.28716374604877 -17.285195608098338 L12.5 -15.659898477157352 L12.287163746048773 -14.03460134621637 L11.65590286755445 -12.464651759740535 L10.627714196620179 -11.003512467950287 L9.237611465258238 -9.700940816984126 L7.532932954740708 -8.601294322153205 L5.571729447206732 -7.742020125958389 L3.4207873759010408 -7.152379780565286 L1.1533544932912756 -6.852452780740613 L-1.1533544932912674 -6.852452780740612 L-3.4207873759010274 -7.152379780565283 L-5.5717294472067245 -7.742020125958386 L-7.5329329547407005 -8.601294322153201 L-9.237611465258233 -9.70094081698412 L-10.627714196620172 -11.003512467950278 L-11.655902867554445 -12.464651759740526 L-12.28716374604877 -14.034601346216366 L-12.5 -15.659898477157348 L-12.287163746048773 -17.285195608098327 L-11.655902867554449 -18.85514519457417 L-10.627714196620179 -20.316284486364413 L-9.23761146525824 -21.618856137330575 L-7.532932954740708 -22.718502632161496 L-5.571729447206732 -23.577776828356313 L-3.420787375901038 -24.167417173749417 L-1.1533544932912776 -24.46734417357409 L1.1533544932912718 -24.46734417357409 L3.4207873759010323 -24.167417173749417 L5.571729447206725 -23.577776828356317 L7.532932954740703 -22.7185026321615 L9.237611465258237 -21.61885613733058 L10.627714196620174 -20.31628448636442 L11.655902867554447 -18.855145194574174 z"/>
<path fill="#3c3c3c" stroke="#3c3c3c" d="M12.28716374604877 53.374702869059014 L11.655902867554447 51.80475328258317 L10.627714196620174 50.343613990792925 L9.237611465258237 49.041042339826774 L7.532932954740703 47.941395844995846 L5.571729447206725 47.082121648801035 L3.4207873759010323 46.492481303407935 L1.1533544932912718 46.19255430358326 L-1.1533544932912776 46.19255430358326 L-3.420787375901038 46.492481303407935 L-5.571729447206732 47.082121648801035 L-7.532932954740708 47.941395844995846 L-9.23761146525824 49.041042339826774 L-10.627714196620179 50.34361399079293 L-11.655902867554449 51.804753282583185 L-12.287163746048773 53.37470286905902 L-12.5 55.00000000000001 L-12.28716374604877 56.625297130940986 L-11.655902867554445 58.19524671741683 L-10.627714196620172 59.65638600920707 L-9.237611465258233 60.95895766017323 L-7.5329329547407005 62.05860415500415 L-5.5717294472067245 62.917878351198965 L-3.4207873759010274 63.50751869659207 L-1.1533544932912674 63.807445696416735 L1.1533544932912756 63.807445696416735 L3.4207873759010408 63.50751869659206 L5.571729447206732 62.91787835119896 L7.532932954740708 62.05860415500415 L9.237611465258238 60.95895766017322 L10.627714196620179 59.65638600920707 L11.65590286755445 58.19524671741681 L12.287163746048773 56.62529713094098 L12.5 54.99999999999999 z"/>
<path fill="#3c3c3c" stroke="#3c3c3c" d="M0.04999999999999881 -50.989847715736026 L12.287163746048767 -17.285195608098334 L12.499999999999996 -15.659898477157352 z"/>
<path fill="#3c3c3c" stroke="#3c3c3c" d="M0.024999999999999967 -50.959207121500604 L-1.1533544932912672 -6.852452780740613 L-0.025000000000000012 -50.959207121500604 z"/>
<path fill="#3c3c3c" stroke="#3c3c3c" d="M-0.025000000000000012 -50.959207121500604 L-1.1533544932912672 -6.852452780740612 L-3.420787375901027 -7.152379780565285 z"/>
<path fill="#3c3c3c" stroke="#3c3c3c" d="M0.024999999999999967 -50.959207121500604 L5.571729447206731 -7.742020125958389 L3.4207873759010403 -7.152379780565288 z"/>
<path fill="#3c3c3c" stroke="#3c3c3c" d="M11.655902867554447 -18.855145194574174 L12.28716374604877 -17.285195608098334 L0.05000000000000221 -50.989847715736026 z"/>
<path fill="#3c3c3c" stroke="#3c3c3c" d="M-3.420787375901037 -24.16741717374944 L-1.1533544932912774 -24.467344173574116 L-0.024999999999999988 -51.02048830997147 z"/>
<path fill="#3c3c3c" stroke="#3c3c3c" d="M5.571729447206719 -23.577776828356324 L7.532932954740699 -22.71850263216151 L0.025000000000003672 -51.02048830997146 z"/>
<path fill="#3c3c3c" stroke="#3c3c3c" d="M-11.655902867554433 -12.464651759740526 L-0.04999999999998962 -50.989847715736026 L-10.627714196620166 -11.003512467950278 z"/>
<path fill="#3c3c3c" stroke="#3c3c3c" d="M-12.287163746048764 -14.034601346216364 L-0.049999999999995326 -50.989847715736026 L-11.65590286755443 -12.464651759740526 z"/>
<path fill="#3c3c3c" stroke="#3c3c3c" d="M-10.627714196620168 -11.003512467950278 L-0.0499999999999883 -50.989847715736026 L-0.024999999999987445 -50.959207121500604 z"/>
<path fill="#3c3c3c" stroke="#3c3c3c" d="M-0.024999999999999988 -51.02048830997147 L-1.1533544932912774 -24.467344173574105 L1.1533544932912716 -24.467344173574105 z"/>
<path fill="#3c3c3c" stroke="#3c3c3c" d="M-0.02500000000000111 -50.95920712150061 L-7.5329329547407 -8.601294322153203 L-9.237611465258231 -9.70094081698412 z"/>
<path fill="#3c3c3c" stroke="#3c3c3c" d="M-10.627714196620186 -20.31628448636442 L-9.237611465258242 -21.618856137330575 L-0.025000000000011607 -51.020488309971455 z"/>
<path fill="#3c3c3c" stroke="#3c3c3c" d="M-0.025000000000000012 -50.959207121500604 L-3.420787375901027 -7.152379780565284 L-5.571729447206724 -7.742020125958387 z"/>
<path fill="#3c3c3c" stroke="#3c3c3c" d="M0.024999999999999967 -50.95920712150061 L3.4207873759010403 -7.152379780565287 L1.1533544932912754 -6.852452780740615 z"/>
<path fill="#3c3c3c" stroke="#3c3c3c" d="M0.02499999999999997 -50.959207121500604 L9.237611465258237 -9.700940816984126 L7.532932954740707 -8.601294322153205 z"/>
<path fill="#3c3c3c" stroke="#3c3c3c" d="M0.02500000000001371 -51.02048830997145 L9.23761146525824 -21.618856137330578 L10.627714196620182 -20.316284486364427 z"/>
<path fill="#3c3c3c" stroke="#3c3c3c" d="M-0.024999999999998683 -51.02048830997146 L-7.532932954740711 -22.718502632161513 L-5.571729447206733 -23.577776828356324 z"/>
<path fill="#3c3c3c" stroke="#3c3c3c" d="M10.627714196620175 -20.31628448636442 L11.65590286755445 -18.85514519457417 L0.05000000000000544 -50.98984771573602 z"/>
<path fill="#3c3c3c" stroke="#3c3c3c" d="M1.1533544932912716 -24.467344173574116 L3.4207873759010314 -24.16741717374944 L0.024999999999999998 -51.02048830997146 z"/>
<path fill="#3c3c3c" stroke="#3c3c3c" d="M0.025 -51.02048830997144 L0.05 -50.98984771573602 L0.02499999999999997 -50.9592071215006 L-0.025000000000000015 -50.9592071215006 L-0.05 -50.98984771573602 L-0.02499999999999999 -51.02048830997144 z"/>
<path fill="#3c3c3c" stroke="#3c3c3c" d="M0.024999999999999998 -51.02048830997146 L3.420787375901032 -24.167417173749424 L5.5717294472067245 -23.577776828356328 z"/>
<path fill="#3c3c3c" stroke="#3c3c3c" d="M-5.571729447206724 -7.742020125958387 L-7.5329329547407 -8.601294322153201 L-0.02499999999999994 -50.959207121500604 z"/>
<path fill="#3c3c3c" stroke="#3c3c3c" d="M-12.28716374604877 -17.28519560809833 L-0.04999999999999542 -50.989847715736026 L-12.499999999999998 -15.659898477157348 z"/>
<path fill="#3c3c3c" stroke="#3c3c3c" d="M7.532932954740707 -8.601294322153205 L5.571729447206731 -7.742020125958389 L0.024999999999999457 -50.959207121500604 z"/>
<path fill="#3c3c3c" stroke="#3c3c3c" d="M-10.627714196620182 -20.316284486364413 L-0.05000000000000648 -50.989847715736026 L-11.65590286755445 -18.855145194574167 z"/>
<path fill="#3c3c3c" stroke="#3c3c3c" d="M0.025000000000008866 -51.02048830997145 L10.627714196620182 -20.31628448636442 L0.050000000000009925 -50.989847715736026 z"/>
<path fill="#3c3c3c" stroke="#3c3c3c" d="M-0.02500000000000338 -51.02048830997146 L-9.237611465258233 -21.61885613733058 L-7.532932954740707 -22.718502632161513 z"/>
<path fill="#3c3c3c" stroke="#3c3c3c" d="M0.024999999999993708 -51.020488309971455 L7.53293295474071 -22.71850263216151 L9.237611465258237 -21.618856137330585 z"/>
<path fill="#3c3c3c" stroke="#3c3c3c" d="M1.1533544932912754 -6.852452780740615 L-1.1533544932912672 -6.852452780740612 L0.024999999999999967 -50.9592071215006 z"/>
<path fill="#3c3c3c" stroke="#3c3c3c" d="M0.04999999999999041 -50.989847715736026 L12.287163746048767 -14.034601346216371 L11.655902867554436 -12.464651759740537 z"/>
<path fill="#3c3c3c" stroke="#3c3c3c" d="M-11.655902867554449 -18.85514519457417 L-0.05000000000000181 -50.989847715736026 L-12.287163746048773 -17.28519560809833 z"/>
<path fill="#3c3c3c" stroke="#3c3c3c" d="M-5.571729447206731 -23.57777682835634 L-3.420787375901037 -24.167417173749435 L-0.024999999999999988 -51.020488309971455 z"/>
<path fill="#3c3c3c" stroke="#3c3c3c" d="M0.049999999999997706 -50.989847715736026 L11.655902867554436 -12.464651759740537 L10.627714196620174 -11.003512467950287 z"/>
<path fill="#3c3c3c" stroke="#3c3c3c" d="M-0.02500000000000666 -51.02048830997145 L-0.050000000000007726 -50.989847715736026 L-10.627714196620186 -20.316284486364413 z"/>
<path fill="#3c3c3c" stroke="#3c3c3c" d="M-9.237611465258203 -9.700940816984122 L-10.627714196620142 -11.00351246795028 L-0.024999999999983438 -50.95920712150061 z"/>
<path fill="#3c3c3c" stroke="#3c3c3c" d="M0.0499999999999962 -50.989847715736026 L10.627714196620172 -11.003512467950287 L0.0249999999999953 -50.959207121500604 z"/>
<path fill="#3c3c3c" stroke="#3c3c3c" d="M12.5 -15.659898477157352 L12.28716374604877 -17.285195608098338 L11.655902867554447 -18.855145194574174 L10.627714196620174 -20.31628448636442 L9.237611465258237 -21.618856137330578 L7.532932954740703 -22.718502632161496 L5.571729447206725 -23.577776828356313 L3.4207873759010323 -24.167417173749413 L1.1533544932912718 -24.467344173574087 L-1.1533544932912776 -24.467344173574087 L-3.420787375901038 -24.167417173749413 L-5.571729447206732 -23.577776828356313 L-7.532932954740708 -22.718502632161496 L-9.23761146525824 -21.618856137330578 L-10.627714196620179 -20.316284486364413 L-11.655902867554449 -18.85514519457417 L-12.287163746048773 -17.28519560809833 L-12.5 -15.659898477157347 L-12.28716374604877 -14.034601346216366 L-11.655902867554445 -12.464651759740526 L-10.627714196620172 -11.00351246795028 L-9.237611465258233 -9.700940816984122 L-7.5329329547407005 -8.601294322153201 L-5.5717294472067245 -7.742020125958387 L-3.4207873759010274 -7.152379780565284 L-1.1533544932912674 -6.852452780740612 L1.1533544932912756 -6.852452780740614 L3.4207873759010408 -7.152379780565287 L5.571729447206732 -7.74202012595839 L7.532932954740708 -8.601294322153205 L9.237611465258238 -9.700940816984126 L10.627714196620179 -11.003512467950287 L11.65590286755445 -12.464651759740535 L12.287163746048773 -14.03460134621637 z"/>
<path fill="#3c3c3c" stroke="#3c3c3c" d="M-12.499999999999995 -15.659898477157348 L-0.049999999999995014 -50.989847715736026 L-12.287163746048767 -14.034601346216366 z"/>
<path fill="#3c3c3c" stroke="#3c3c3c" d="M10.62771419662015 -11.003512467950287 L9.23761146525821 -9.700940816984126 L0.024999999999976784 -50.959207121500604 z"/>
<path fill="#3c3c3c" stroke="#3c3c3c" d="M12.49999999999999 -15.659898477157352 L12.287163746048762 -14.034601346216371 L0.049999999999994535 -50.989847715736026 z"/>
<path fill="#3c3c3c" stroke="#3c3c3c" d="M-0.024999999999999988 -51.02048830997147 L1.1533544932912716 -24.467344173574094 L0.024999999999999998 -51.02048830997147 z"/>
<path fill="#3c3c3c" stroke="#3c3c3c" d="M-2.5 26.019289340101516 L2.5 26.019289340101516 L2.5 58.5228426395939 L-2.5 58.5228426395939 z"/>
<path fill="#3c3c3c" stroke="#3c3c3c" d="M-2.5 25.7297564503936 L2.5 25.7297564503936 L2.5 26.019289340101547 L-2.5 26.019289340101547 z"/>
<path fill="#3c3c3c" stroke="#3c3c3c" d="M-2.5 26.019289340101526 L2.5 26.019289340101526 z"/>
<path fill="#3c3c3c" stroke="#3c3c3c" d="M-2.5 26.71065989847716 L2.5 26.71065989847716 L2.5 25.729756450393584 L-2.5 25.729756450393584 z"/>
<path fill="#3c3c3c" stroke="#3c3c3c" d="M-2.5 58.52284263959391 L2.5 58.52284263959391 L2.5 47.90862944162437 L-2.5 47.90862944162437 z"/>
<path fill="#3c3c3c" stroke="#3c3c3c" d="M-2.5 47.90862944162436 L2.5 47.90862944162436 L2.5 26.710659898477136 L-2.5 26.710659898477136 z"/>
<path fill="#3c3c3c" stroke="#3c3c3c" d="M-2.5 26.01928934010153 L-2.5 58.52284263959391 L-2.5 47.90862944162437 L-2.5 26.710659898477164 L-2.5 25.729756450393584 z"/>
<path fill="#3c3c3c" stroke="#3c3c3c" d="M2.5 58.52284263959391 L2.5 26.01928934010153 L2.5 25.729756450393584 L2.5 26.710659898477164 L2.5 47.90862944162437 z"/>
<path fill="#3c3c3c" stroke="#3c3c3c" d="M-7.4056603773584895 38.16889186859497 L-9.908435072142057 35.105966861411744 L-9.908435072142057 67.60952016090413 L-7.405660377358489 70.67244516808735 z"/>
<path fill="#3c3c3c" stroke="#3c3c3c" d="M-7.962124678751942 38.56187986347938 L-10.464899373535516 35.49895485629616 L-9.908435072142064 35.105966861411744 L-7.4056603773584895 38.16889186859496 z"/>
<path fill="#3c3c3c" stroke="#3c3c3c" d="M-7.4056603773584895 38.168891868595 L-9.908435072142062 35.10596686141176 z"/>
<path fill="#3c3c3c" stroke="#3c3c3c" d="M-20.391231964483904 54.787472464323336 L-22.89400665926748 51.72454745714012 L-10.464899373535516 35.498954856296166 L-7.962124678751943 38.56187986347938 z"/>
<path fill="#3c3c3c" stroke="#3c3c3c" d="M-7.40566037735849 70.67244516808734 L-9.908435072142064 67.60952016090413 L-22.89400665926748 72.92251700028731 L-20.391231964483904 75.98544200747054 z"/>
<path fill="#3c3c3c" stroke="#3c3c3c" d="M-20.391231964483886 75.98544200747054 L-22.894006659267465 72.92251700028733 L-22.894006659267472 51.72454745714012 L-20.391231964483893 54.787472464323336 z"/>
<path fill="#3c3c3c" stroke="#3c3c3c" d="M-7.4056603773584895 38.16889186859492 L-7.4056603773584895 70.67244516808732 L-20.391231964483904 75.98544200747052 L-20.391231964483904 54.787472464323294 L-7.962124678751942 38.56187986347934 z"/>
<path fill="#3c3c3c" stroke="#3c3c3c" d="M-9.908435072142064 67.60952016090408 L-9.908435072142064 35.10596686141174 L-10.464899373535516 35.49895485629616 L-22.89400665926748 51.72454745714011 L-22.89400665926748 72.92251700028729 z"/>
<path fill="#3c3c3c" stroke="#3c3c3c" d="M9.908435072142057 35.105966861411744 L7.4056603773584895 38.16889186859497 L7.405660377358489 70.67244516808735 L9.908435072142057 67.60952016090413 z"/>
<path fill="#3c3c3c" stroke="#3c3c3c" d="M10.464899373535516 35.49895485629616 L7.962124678751942 38.56187986347938 L7.4056603773584895 38.16889186859496 L9.908435072142064 35.105966861411744 z"/>
<path fill="#3c3c3c" stroke="#3c3c3c" d="M9.908435072142062 35.10596686141176 L7.4056603773584895 38.168891868595 z"/>
<path fill="#3c3c3c" stroke="#3c3c3c" d="M22.89400665926748 51.72454745714012 L20.391231964483904 54.787472464323336 L7.962124678751943 38.56187986347938 L10.464899373535516 35.498954856296166 z"/>
<path fill="#3c3c3c" stroke="#3c3c3c" d="M9.908435072142064 67.60952016090413 L7.40566037735849 70.67244516808734 L20.391231964483904 75.98544200747054 L22.89400665926748 72.92251700028731 z"/>
<path fill="#3c3c3c" stroke="#3c3c3c" d="M22.894006659267465 72.92251700028733 L20.391231964483886 75.98544200747054 L20.391231964483893 54.787472464323336 L22.894006659267472 51.72454745714012 z"/>
<path fill="#3c3c3c" stroke="#3c3c3c" d="M9.908435072142064 35.10596686141174 L9.908435072142064 67.60952016090408 L22.89400665926748 72.92251700028729 L22.89400665926748 51.72454745714011 L10.464899373535516 35.49895485629616 z"/>
<path fill="#3c3c3c" stroke="#3c3c3c" d="M7.4056603773584895 70.67244516808732 L7.4056603773584895 38.16889186859492 L7.962124678751942 38.56187986347934 L20.391231964483904 54.787472464323294 L20.391231964483904 75.98544200747052 z"/>
<path fill="#3c3c3c" stroke="#3c3c3c" d="M-2.5 26.019289340101516 L2.5 26.019289340101516 L2.5 58.5228426395939 L-2.5 58.5228426395939 z"/>
<path fill="#3c3c3c" stroke="#3c3c3c" d="M-2.5 25.7297564503936 L2.5 25.7297564503936 L2.5 26.019289340101547 L-2.5 26.019289340101547 z"/>
<path fill="#3c3c3c" stroke="#3c3c3c" d="M-2.5 26.019289340101526 L2.5 26.019289340101526 z"/>
<path fill="#3c3c3c" stroke="#3c3c3c" d="M-2.5 26.71065989847716 L2.5 26.71065989847716 L2.5 25.729756450393584 L-2.5 25.729756450393584 z"/>
<path fill="#3c3c3c" stroke="#3c3c3c" d="M-2.5 58.52284263959391 L2.5 58.52284263959391 L2.5 47.90862944162437 L-2.5 47.90862944162437 z"/>
<path fill="#3c3c3c" stroke="#3c3c3c" d="M-2.5 47.90862944162436 L2.5 47.90862944162436 L2.5 26.710659898477136 L-2.5 26.710659898477136 z"/>
<path fill="#3c3c3c" stroke="#3c3c3c" d="M-2.5 26.01928934010153 L-2.5 58.52284263959391 L-2.5 47.90862944162437 L-2.5 26.710659898477164 L-2.5 25.729756450393584 z"/>
<path fill="#3c3c3c" stroke="#3c3c3c" d="M2.5 58.52284263959391 L2.5 26.01928934010153 L2.5 25.729756450393584 L2.5 26.710659898477164 L2.5 47.90862944162437 z"/>
</svg>